<?xml version="1.0" encoding="utf-8"?>
<!-- Generator: Adobe Illustrator 23.0.3, SVG Export Plug-In . SVG Version: 6.00 Build 0)  -->
<svg version="1.1" id="Layer_1" xmlns="http://www.w3.org/2000/svg" xmlns:xlink="http://www.w3.org/1999/xlink" x="0px" y="0px"
	 viewBox="0 0 41 41" style="enable-background:new 0 0 41 41;" xml:space="preserve">
<style type="text/css">
	.st0{fill:none;stroke:#333333;stroke-width:1.8639;stroke-miterlimit:10;}
</style>
<g>
	<polyline class="st0" points="13.1,20.9 13.1,1 39.5,1 39.5,25 17.2,25 	"/>
	<polyline class="st0" points="32.9,26.6 32.9,35.7 1.5,35.7 1.5,7.6 11.4,7.6 	"/>
	<line class="st0" x1="13.1" y1="6" x2="39.5" y2="6"/>
	<line class="st0" x1="15.5" y1="3.5" x2="17.2" y2="3.5"/>
	<line class="st0" x1="18.8" y1="3.5" x2="20.5" y2="3.5"/>
	<line class="st0" x1="22.2" y1="3.5" x2="23.8" y2="3.5"/>
	<line class="st0" x1="1.5" y1="12.6" x2="11.4" y2="12.6"/>
	<line class="st0" x1="8.9" y1="29.1" x2="22.2" y2="15.9"/>
	<polyline class="st0" points="8.9,24.2 8.9,29.1 13.9,29.1 	"/>
	<polyline class="st0" points="22.2,20.9 22.2,15.9 17.2,15.9 	"/>
	<line class="st0" x1="4" y1="10.1" x2="5.6" y2="10.1"/>
	<line class="st0" x1="7.3" y1="10.1" x2="8.9" y2="10.1"/>
</g>
</svg>
