<?xml version="1.0" encoding="utf-8"?>
<!-- Generator: Adobe Illustrator 23.0.3, SVG Export Plug-In . SVG Version: 6.00 Build 0)  -->
<svg version="1.1" id="Layer_1" xmlns="http://www.w3.org/2000/svg" xmlns:xlink="http://www.w3.org/1999/xlink" x="0px" y="0px"
	 viewBox="0 0 41 41" style="enable-background:new 0 0 41 41;" xml:space="preserve">
<style type="text/css">
	.st0{fill:none;stroke:#1A1A1A;stroke-width:1.8571;stroke-linejoin:round;stroke-miterlimit:10;}
</style>
<g>
	<rect x="11.6" y="2.3" class="st0" width="18.2" height="9.1"/>
	<rect x="11.6" y="15.9" class="st0" width="18.2" height="9.1"/>
	<rect x="11.6" y="29.5" class="st0" width="18.2" height="9.1"/>
	<path class="st0" d="M33.4,5.9H37c1.5,0,2.7,1.2,2.7,2.7v22.7c0,1.5-1.2,2.7-2.7,2.7h-4.5"/>
	<polyline class="st0" points="36.1,2.3 32.5,5.9 36.1,9.5 	"/>
	<path class="st0" d="M7.9,19.5H4.3c-1.5,0-2.7-1.2-2.7-2.7V9.5c0-1.5,1.2-2.7,2.7-2.7h4.5"/>
	<polyline class="st0" points="5.2,23.2 8.8,19.5 5.2,15.9 	"/>
</g>
</svg>
