<?xml version="1.0" encoding="utf-8"?>
<!-- Generator: Adobe Illustrator 23.0.3, SVG Export Plug-In . SVG Version: 6.00 Build 0)  -->
<svg version="1.1" id="Layer_1" xmlns="http://www.w3.org/2000/svg" xmlns:xlink="http://www.w3.org/1999/xlink" x="0px" y="0px"
	 viewBox="0 0 70 40" style="enable-background:new 0 0 70 40;" xml:space="preserve">
<style type="text/css">
	.st0{fill:none;stroke:#505050;stroke-width:1.7188;stroke-linecap:square;stroke-miterlimit:8;}
</style>
<path class="st0" d="M35.1,12.6c-4.2,0-7.5,3.3-7.5,7.5s3.3,7.7,7.5,7.7s7.7-3.5,7.7-7.7S39.4,12.6,35.1,12.6z M35.1,1.8
	c-10.6,0-19.3,8.1-19.3,18.4s8.7,18.4,19.3,18.4s19.3-8.1,19.3-18.4S45.7,1.8,35.1,1.8z M2.3,19.3C5,15.9,16.6,1.8,35.1,1.8
	c21.2,0,33.4,18.4,33.4,18.4S56.3,38.5,35.1,38.5c-17.6,0-28.9-12.6-32.2-17c-0.8-0.8-1.2-1.4-1.2-1.4S2,19.9,2.3,19.3z"/>
</svg>
