<?xml version="1.0" encoding="utf-8"?>
<!-- Generator: Adobe Illustrator 23.0.3, SVG Export Plug-In . SVG Version: 6.00 Build 0)  -->
<svg version="1.1" id="Layer_1" xmlns="http://www.w3.org/2000/svg" xmlns:xlink="http://www.w3.org/1999/xlink" x="0px" y="0px"
	 viewBox="0 0 47 47" style="enable-background:new 0 0 47 47;" xml:space="preserve">
<style type="text/css">
	.st0{fill:none;stroke:#1A1A1A;stroke-width:2;stroke-miterlimit:10;}
	.st1{fill:none;stroke:#1A1A1A;stroke-width:2;stroke-linejoin:round;stroke-miterlimit:10;}
</style>
<g>
	<line class="st0" x1="23.5" y1="1.4" x2="23.5" y2="35"/>
	<polyline class="st0" points="28.3,36.9 28.3,30.2 35,23.5 	"/>
	<polyline class="st0" points="28.3,18.7 28.3,14.8 35,8.1 	"/>
	<line class="st0" x1="23.5" y1="36.9" x2="23.5" y2="38.8"/>
	<line class="st0" x1="23.5" y1="40.7" x2="23.5" y2="42.6"/>
	<line class="st0" x1="28.3" y1="38.8" x2="28.3" y2="40.7"/>
	<line class="st0" x1="28.3" y1="20.6" x2="28.3" y2="22.5"/>
	<line class="st0" x1="28.3" y1="24.4" x2="28.3" y2="26.3"/>
	<line class="st0" x1="23.5" y1="44.6" x2="23.5" y2="46.5"/>
	<polyline class="st1" points="26.4,4.3 23.5,1.4 20.6,4.3 	"/>
	<polyline class="st1" points="31.2,8.1 35,8.1 35,12 	"/>
	<polyline class="st1" points="31.2,23.5 35,23.5 35,27.3 	"/>
	<polyline class="st0" points="18.7,36.9 18.7,30.2 12,23.5 	"/>
	<polyline class="st0" points="18.7,18.7 18.7,14.8 12,8.1 	"/>
	<line class="st0" x1="18.7" y1="38.8" x2="18.7" y2="40.7"/>
	<line class="st0" x1="18.7" y1="20.6" x2="18.7" y2="22.5"/>
	<line class="st0" x1="18.7" y1="24.4" x2="18.7" y2="26.3"/>
	<polyline class="st1" points="15.8,8.1 12,8.1 12,12 	"/>
	<polyline class="st1" points="15.8,23.5 12,23.5 12,27.3 	"/>
</g>
</svg>
