<?xml version="1.0" encoding="utf-8"?>
<!-- Generator: Adobe Illustrator 23.0.3, SVG Export Plug-In . SVG Version: 6.00 Build 0)  -->
<svg version="1.1" id="Layer_1" xmlns="http://www.w3.org/2000/svg" xmlns:xlink="http://www.w3.org/1999/xlink" x="0px" y="0px"
	 viewBox="0 0 41 41" style="enable-background:new 0 0 41 41;" xml:space="preserve">
<style type="text/css">
	.st0{fill:none;stroke:#333333;stroke-width:1.7001;stroke-linejoin:round;stroke-miterlimit:10;}
</style>
<g>
	<polyline class="st0" points="7.7,4.8 7.7,1.4 37.4,1.4 37.4,20.1 	"/>
	<polyline class="st0" points="3.4,33.7 3.4,6.5 33.2,6.5 33.2,26.9 	"/>
	<line class="st0" x1="3.4" y1="11.6" x2="33.2" y2="11.6"/>
	<line class="st0" x1="6" y1="9.1" x2="7.7" y2="9.1"/>
	<line class="st0" x1="9.4" y1="9.1" x2="11.1" y2="9.1"/>
	<line class="st0" x1="12.8" y1="9.1" x2="14.5" y2="9.1"/>
	<line class="st0" x1="33.2" y1="28.6" x2="33.2" y2="30.3"/>
	<line class="st0" x1="33.2" y1="32" x2="33.2" y2="33.7"/>
	<line class="st0" x1="37.4" y1="25.2" x2="37.4" y2="26.9"/>
	<line class="st0" x1="37.4" y1="21.8" x2="37.4" y2="23.5"/>
	<line class="st0" x1="9.4" y1="27.8" x2="9.4" y2="36.3"/>
	<line class="st0" x1="27.2" y1="24.4" x2="27.2" y2="33.7"/>
	<line class="st0" x1="9.4" y1="38" x2="9.4" y2="39.7"/>
	<line class="st0" x1="15.3" y1="25.2" x2="15.3" y2="33.7"/>
	<line class="st0" x1="15.3" y1="35.4" x2="15.3" y2="37.1"/>
	<line class="st0" x1="21.3" y1="31.2" x2="21.3" y2="40.5"/>
	<line class="st0" x1="3.4" y1="35.4" x2="3.4" y2="37.1"/>
</g>
</svg>
