<?xml version="1.0" encoding="utf-8"?>
<!-- Generator: Adobe Illustrator 23.0.3, SVG Export Plug-In . SVG Version: 6.00 Build 0)  -->
<svg version="1.1" id="Layer_1" xmlns="http://www.w3.org/2000/svg" xmlns:xlink="http://www.w3.org/1999/xlink" x="0px" y="0px"
	 viewBox="0 0 41 41" style="enable-background:new 0 0 41 41;" xml:space="preserve">
<style type="text/css">
	.st0{fill:none;stroke:#1A1A1A;stroke-width:1.5;stroke-miterlimit:10;}
</style>
<g>
	<path class="st0" d="M33.7,35.9H7.5c-1.2,0-2.2-1-2.2-2.2V7.5c0-1.2,1-2.2,2.2-2.2h26.2c1.2,0,2.2,1,2.2,2.2v26.2
		C35.9,34.9,34.9,35.9,33.7,35.9z"/>
	<path class="st0" d="M30.1,31.5H11.1c-0.8,0-1.5-0.6-1.5-1.5V14.8c2-2,3.1-3.1,5.1-5.1h15.3c0.8,0,1.5,0.6,1.5,1.5v18.9
		C31.5,30.9,30.9,31.5,30.1,31.5z"/>
	<line class="st0" x1="3.1" y1="7.5" x2="0.2" y2="7.5"/>
	<line class="st0" x1="3.1" y1="11.9" x2="0.2" y2="11.9"/>
	<line class="st0" x1="3.1" y1="16.2" x2="0.2" y2="16.2"/>
	<line class="st0" x1="3.1" y1="20.6" x2="0.2" y2="20.6"/>
	<line class="st0" x1="3.1" y1="25" x2="0.2" y2="25"/>
	<line class="st0" x1="3.1" y1="29.3" x2="0.2" y2="29.3"/>
	<line class="st0" x1="3.1" y1="33.7" x2="0.2" y2="33.7"/>
	<line class="st0" x1="41" y1="7.5" x2="38.1" y2="7.5"/>
	<line class="st0" x1="41" y1="11.9" x2="38.1" y2="11.9"/>
	<line class="st0" x1="41" y1="16.2" x2="38.1" y2="16.2"/>
	<line class="st0" x1="41" y1="20.6" x2="38.1" y2="20.6"/>
	<line class="st0" x1="41" y1="25" x2="38.1" y2="25"/>
	<line class="st0" x1="41" y1="29.3" x2="38.1" y2="29.3"/>
	<line class="st0" x1="41" y1="33.7" x2="38.1" y2="33.7"/>
	<line class="st0" x1="33.7" y1="41" x2="33.7" y2="38.1"/>
	<line class="st0" x1="29.4" y1="41" x2="29.4" y2="38.1"/>
	<line class="st0" x1="25" y1="41" x2="25" y2="38.1"/>
	<line class="st0" x1="20.6" y1="41" x2="20.6" y2="38.1"/>
	<line class="st0" x1="16.2" y1="41" x2="16.2" y2="38.1"/>
	<line class="st0" x1="11.9" y1="41" x2="11.9" y2="38.1"/>
	<line class="st0" x1="7.5" y1="41" x2="7.5" y2="38.1"/>
	<line class="st0" x1="33.7" y1="3.1" x2="33.7" y2="0.2"/>
	<line class="st0" x1="29.4" y1="3.1" x2="29.4" y2="0.2"/>
	<line class="st0" x1="25" y1="3.1" x2="25" y2="0.2"/>
	<line class="st0" x1="20.6" y1="3.1" x2="20.6" y2="0.2"/>
	<line class="st0" x1="16.2" y1="3.1" x2="16.2" y2="0.2"/>
	<line class="st0" x1="11.9" y1="3.1" x2="11.9" y2="0.2"/>
	<line class="st0" x1="7.5" y1="3.1" x2="7.5" y2="0.2"/>
	<line class="st0" x1="17" y1="20.6" x2="18.4" y2="20.6"/>
	<line class="st0" x1="19.9" y1="20.6" x2="21.3" y2="20.6"/>
	<line class="st0" x1="22.8" y1="20.6" x2="24.3" y2="20.6"/>
</g>
</svg>
