<?xml version="1.0" encoding="utf-8"?>
<!-- Generator: Adobe Illustrator 23.0.3, SVG Export Plug-In . SVG Version: 6.00 Build 0)  -->
<svg version="1.1" id="Layer_1" xmlns="http://www.w3.org/2000/svg" xmlns:xlink="http://www.w3.org/1999/xlink" x="0px" y="0px"
	 viewBox="0 0 41 41" style="enable-background:new 0 0 41 41;" xml:space="preserve">
<style type="text/css">
	.st0{fill:none;stroke:#1A1A1A;stroke-width:1.7587;stroke-linejoin:round;stroke-miterlimit:10;}
	.st1{fill:none;stroke:#1A1A1A;stroke-width:1.7587;stroke-miterlimit:10;}
</style>
<g>
	<path class="st0" d="M17.1,14.1L1.2,29.9c-0.3,0.3-0.3,0.9,0,1.2l2.2,2.2c0.3,0.3,0.9,0.3,1.2,0l15.9-15.9"/>
	<path class="st0" d="M25.1,19.7c-0.4-0.4,0.3-2.1-0.6-3c-0.7-0.7-2.2-1-4,0.8c-0.7-0.7-3.4-3.4-3.4-3.4s1.7-3.1,0.2-4.6
		c-1.9-1.9-3.9-2.2-4.5-2.2V4.7c2.3,0,6.8-0.1,9.2,2.3l3.6,3.6c0.9,0.9,0.4,2.8,1.2,3.6c1.1,1.1,2.6,0.2,3.6,1.2l1.8,1.8L27.4,22
		L25.1,19.7z"/>
	<line class="st1" x1="40" y1="6.4" x2="24.7" y2="6.4"/>
	<line class="st1" x1="37.5" y1="3.9" x2="35.8" y2="3.9"/>
	<line class="st1" x1="34.1" y1="3.9" x2="32.4" y2="3.9"/>
	<line class="st1" x1="30.7" y1="3.9" x2="29" y2="3.9"/>
	<polyline class="st0" points="5.2,22.5 5.2,1.3 40,1.3 40,28.5 12.9,28.5 	"/>
	<line class="st0" x1="5.2" y1="6.4" x2="10.3" y2="6.4"/>
</g>
</svg>
