<?xml version="1.0" encoding="UTF-8"?>
<svg id="Ebene_1" data-name="Ebene 1" xmlns="http://www.w3.org/2000/svg" xmlns:xlink="http://www.w3.org/1999/xlink" viewBox="0 0 1097.22 179.7">
  <defs>
    <style>
      .cls-1 {
        font-family: Rajdhani-Semibold, Rajdhani;
        font-size: 49.01px;
        font-weight: 600;
      }

      .cls-1, .cls-2 {
        fill: #231f20;
      }

      .cls-3, .cls-4 {
        fill: #fff;
      }

      .cls-5, .cls-6 {
        fill: none;
      }

      .cls-7 {
        clip-path: url(#clippath-1);
      }

      .cls-4, .cls-8 {
        stroke-width: 5px;
      }

      .cls-4, .cls-8, .cls-6 {
        stroke-miterlimit: 10;
      }

      .cls-4, .cls-6 {
        stroke: #1a67a9;
      }

      .cls-8 {
        stroke: #fff;
      }

      .cls-8, .cls-9 {
        fill: #1a67a9;
      }

      .cls-10 {
        clip-path: url(#clippath-2);
      }

      .cls-6 {
        stroke-width: 1.5px;
      }
    </style>
    <clipPath id="clippath-1">
      <rect class="cls-5" x="264.66" y="-14.34" width="875.26" height="235.48"/>
    </clipPath>
    <clipPath id="clippath-2">
      <rect class="cls-5" x="264.66" y="-14.34" width="875.26" height="235.48"/>
    </clipPath>
  </defs>
  <text class="cls-1" transform="translate(524.31 178.59)"><tspan x="0" y="0">ONNX-to-C Code Generator</tspan></text>
  <g>
    <polygon class="cls-4" points="68.74 14.31 3.79 51.81 3.79 126.81 68.74 164.31 133.69 126.81 133.69 51.81 68.74 14.31"/>
    <circle class="cls-8" cx="123.17" cy="45.78" r="10.17"/>
    <circle class="cls-8" cx="55.17" cy="85.66" r="10.17"/>
    <circle class="cls-8" cx="95.35" cy="121.66" r="10.17"/>
    <circle class="cls-8" cx="35.48" cy="144.88" r="10.17"/>
    <line class="cls-6" x1="50.94" y1="87.72" x2="123.27" y2="45.95"/>
    <line class="cls-6" x1="35.74" y1="143.75" x2="95.48" y2="122.01"/>
    <line class="cls-6" x1="96.11" y1="119.57" x2="123.45" y2="44.46"/>
    <line class="cls-6" x1="95.28" y1="121.06" x2="54.33" y2="84.2"/>
    <g class="cls-7">
      <path class="cls-2" d="M548.38,67.84h-42.89c1.14-10.72,7.31-23.07,22.26-23.07,13.16,0,20.63,10.4,20.63,23.07M564.63,79.21c0-26.64-8.93-46.78-36.55-46.78-23.39,0-38.83,17.38-38.83,41.91,0,26.97,13.48,44.84,42.89,44.84,13.65,0,24.95-4.95,24.95-4.95l-7.01-11.22s-11.45,3.82-17.29,3.82c-14.46,0-27.29-11.21-27.29-27.62h59.13Z"/>
      <path class="cls-2" d="M715.66,117.32h15.29v-41.79c0-15.45,6.18-30.74,21.79-30.74,12.36,0,14.8,12.85,14.8,23.09v49.44h15.29v-41.79c0-15.45,6.18-30.74,21.79-30.74,12.36,0,14.8,12.85,14.8,23.09v49.44h15.28v-53.18c0-18.05-7.64-31.71-28.78-31.71-7.48,0-20,4.23-25.69,16.1-4.39-11.22-13.98-16.1-23.58-16.1-12.2,0-20.49,4.39-26.35,13.99h-.32v-12.03l-14.31.06v82.87Z"/>
      <path class="cls-2" d="M581.25,117.32h15.29v-41.79c0-15.45,6.18-30.74,21.79-30.74,12.36,0,14.8,12.85,14.8,23.09v49.44h15.29v-41.79c0-15.45,6.18-30.74,21.79-30.74,12.36,0,14.8,12.85,14.8,23.09v49.44h15.28v-53.18c0-18.05-7.64-31.71-28.78-31.71-7.48,0-20,4.23-25.69,16.1-4.39-11.22-13.99-16.1-23.58-16.1-12.2,0-20.49,4.39-26.35,13.99h-.32v-12.03l-14.31.06v82.87Z"/>
      <polygon class="cls-2" points="1019.11 117.23 1037.3 117.23 1057.77 84.74 1078.24 117.23 1097.08 117.23 1067.84 73.85 1094.48 34.38 1077.43 34.38 1060.33 62.69 1041.04 34.38 1022.03 34.38 1049 73.85 1019.11 117.23"/>
      <rect class="cls-2" x="986.09" y="1.21" width="15.1" height="15.1"/>
      <rect class="cls-2" x="986.01" y="34.38" width="15.27" height="82.85"/>
      <g class="cls-10">
        <path class="cls-2" d="M901.7,34.38h-21.93V.88l-15.27,14.33v19.17h-18.68v12.35h18.68v48.41c0,16.57,9.75,24.04,25.5,24.04,4.87,0,9.58-1.3,13-2.28v-12.99c-2.27,1.46-5.69,2.92-10.4,2.92-6.98,0-12.83-5.2-12.83-14.78v-45.32h21.93v-12.35Z"/>
        <path class="cls-2" d="M920.87,117.23h15.27v-37.69c0-20.79,8.93-33.79,22.58-33.79,2.6,0,5.69.33,8.45,1.46v-13.65c-3.25-.65-5.52-1.14-10.07-1.14-8.77,0-17.54,6.17-21.6,14.78h-.33v-12.83h-14.3v82.85Z"/>
      </g>
    </g>
    <polygon class="cls-9" points="262.95 89.64 215.85 47.14 215.85 65.61 157.49 65.61 157.49 112.77 215.85 112.77 215.85 132.14 262.95 89.64"/>
    <g>
      <path d="M408.27,48.15c0-7.16-5.81-12.96-12.96-12.96h-15.56v-15.56h-5.19v15.56h-10.37v-15.56h-5.19v15.56h-10.37v-15.56h-5.19v15.56h-10.37v-15.56h-5.19v15.56h-15.56c-7.16,0-12.96,5.81-12.96,12.96v15.56h-15.56v5.19h15.56v10.37h-15.56v5.19h15.56v10.37h-15.56v5.19h15.56v10.37h-15.56v5.19h15.56v15.56c0,7.16,5.81,12.96,12.96,12.96h15.56v15.56h5.19v-15.56h10.37v15.56h5.19v-15.56h10.37v15.56h5.19v-15.56h10.37v15.56h5.19v-15.56h15.56c7.16,0,12.96-5.81,12.96-12.96v-15.56h15.56v-5.19h-15.56v-10.37h15.56v-5.19h-15.56v-10.37h15.56v-5.19h-15.56v-10.37h15.56v-5.19h-15.56v-15.56Z"/>
      <rect class="cls-3" x="304.57" y="41.52" width="98.52" height="98.52" rx="7.78" ry="7.78"/>
      <rect x="309.99" y="46.94" width="87.68" height="87.68" rx="6.92" ry="6.92"/>
      <path class="cls-3" d="M357.78,112.98h-7.91c-3.83,0-6.78-1.02-8.86-3.05-2.08-2.03-3.12-4.96-3.12-8.79v-23.02c0-3.82,1.04-6.75,3.12-8.79,2.08-2.03,5.03-3.05,8.86-3.05h7.91c3.78,0,6.72,1.03,8.82,3.09,2.11,2.06,3.16,4.97,3.16,8.75v3.41c0,1.07-.53,1.6-1.6,1.6h-6.1c-1.02,0-1.52-.53-1.52-1.6v-2.97c0-1.55-.33-2.65-.98-3.31-.65-.65-1.76-.98-3.31-.98h-4.94c-1.5,0-2.58.33-3.23.98-.65.65-.98,1.76-.98,3.31v22.15c0,1.55.33,2.65.98,3.3.65.65,1.73.98,3.23.98h4.94c1.55,0,2.65-.33,3.31-.98.65-.65.98-1.75.98-3.3v-2.98c0-1.07.51-1.6,1.52-1.6h6.1c1.06,0,1.6.53,1.6,1.6v3.41c0,3.78-1.05,6.69-3.16,8.75-2.11,2.06-5.05,3.09-8.82,3.09"/>
    </g>
  </g>
</svg>
