<?xml version="1.0" encoding="UTF-8"?>
<svg id="Calque_1" xmlns="http://www.w3.org/2000/svg" version="1.1" viewBox="0 0 250 84">
  <!-- Generator: Adobe Illustrator 29.6.0, SVG Export Plug-In . SVG Version: 2.1.1 Build 207)  -->
  <defs>
    <style>
      .st0 {
        isolation: isolate;
      }

      .st1 {
        fill: #0a292e;
      }
    </style>
  </defs>
  <g class="st0">
    <path class="st1" d="M12.24,61.88c-3.26,0-6.15-1.2-8.65-3.59-2.39-2.49-3.59-5.37-3.59-8.65v-6.13c0-3.28,1.2-6.17,3.59-8.66,2.49-2.39,5.37-3.59,8.65-3.59h11.23c3.26,0,6.15,1.2,8.66,3.59,1.84,1.87,2.98,4.07,3.4,6.61h-6.3c-.44-1.21-1.18-2.19-2.22-2.95s-2.22-1.14-3.55-1.14h-11.23c-1.68,0-3.12.6-4.32,1.79s-1.79,2.65-1.79,4.34v6.13c0,1.68.6,3.12,1.79,4.32s2.64,1.79,4.32,1.79h11.23c1.32,0,2.51-.38,3.55-1.14s1.78-1.74,2.22-2.95h-9.86v-6.13h16.32v4.09c0,3.26-1.2,6.15-3.58,8.65-2.51,2.39-5.4,3.59-8.66,3.59h-11.24.01Z"/>
  </g>
  <g class="st0">
    <path class="st1" d="M46.11,51.66v10.21h-6.13v-30.61h21.68c1.88,0,3.59.46,5.14,1.38,1.55.93,2.76,2.15,3.69,3.7.93,1.55,1.38,3.26,1.38,5.13,0,2.01-.53,3.83-1.57,5.46-1.05,1.62-2.42,2.86-4.15,3.72l5.97,11.13h-6.95l-5.41-10.1h-13.66ZM46.11,37.38v8.18h15.56c1.13,0,2.09-.4,2.89-1.2s1.2-1.77,1.2-2.89-.4-2.09-1.2-2.89c-.8-.8-1.77-1.2-2.89-1.2,0,0-15.56,0-15.56,0Z"/>
  </g>
  <g class="st0">
    <path class="st1" d="M82.89,56.78l-2.74,5.09h-6.95l16.48-30.61h6.42l16.48,30.61h-6.95l-2.74-5.09h-20.01ZM92.88,38.23l-6.7,12.41h13.39l-6.7-12.41h0Z"/>
    <path class="st1" d="M116.84,31.25h6.13v30.61h-6.13v-30.61h0Z"/>
    <path class="st1" d="M159.12,41.46c0,1.88-.46,3.59-1.38,5.14-.93,1.54-2.15,2.76-3.69,3.69s-3.25,1.38-5.14,1.38h-15.56v10.21h-6.13v-30.61h21.68c1.88,0,3.59.46,5.14,1.38,1.55.93,2.76,2.15,3.69,3.7s1.38,3.26,1.38,5.13h0v-.03ZM133.36,37.38v8.18h15.56c1.13,0,2.09-.4,2.89-1.2s1.2-1.77,1.2-2.89-.4-2.09-1.2-2.89c-.8-.8-1.77-1.2-2.89-1.2,0,0-15.56,0-15.56,0Z"/>
    <path class="st1" d="M169.52,49.64v12.24h-6.13v-30.61h6.13v12.26h23.99v-12.26h6.13v30.61h-6.13v-12.24h-23.99Z"/>
    <path class="st1" d="M203.9,31.25h6.13v30.61h-6.13v-30.61h0Z"/>
    <path class="st1" d="M214.3,49.64v-6.13c0-3.28,1.2-6.17,3.59-8.66,2.49-2.39,5.37-3.59,8.65-3.59h11.23c3.26,0,6.15,1.2,8.66,3.59,2.22,2.26,3.42,4.99,3.58,8.15h-6.14c-.17-1.61-.83-2.95-1.98-4.02s-2.52-1.61-4.12-1.61h-11.23c-1.68,0-3.12.6-4.32,1.79s-1.79,2.65-1.79,4.34v6.13c0,1.68.6,3.12,1.79,4.32s2.64,1.79,4.32,1.79h11.23c1.6,0,2.96-.53,4.12-1.61,1.15-1.07,1.81-2.41,1.98-4h6.14c-.16,3.15-1.35,5.87-3.58,8.13-2.51,2.39-5.4,3.59-8.66,3.59h-11.23c-3.26,0-6.15-1.2-8.65-3.59-2.39-2.49-3.59-5.37-3.59-8.65h0Z"/>
  </g>
</svg>