<?xml version="1.0" encoding="UTF-8"?>
<svg id="Calque_1" xmlns="http://www.w3.org/2000/svg" version="1.1" viewBox="0 0 250 84">
  <!-- Generator: Adobe Illustrator 29.6.0, SVG Export Plug-In . SVG Version: 2.1.1 Build 207)  -->
  <defs>
    <style>
      .st0 {
        fill: #0a292e;
      }
    </style>
  </defs>
  <g id="Calque_1-2">
    <g>
      <path class="st0" d="M84.74,41.71c-1.09-.93-1.94-2.07-2.55-3.4s-.92-2.74-.92-4.21c0-1.87.46-3.57,1.37-5.11.91-1.54,2.14-2.77,3.67-3.69s3.23-1.38,5.09-1.38h28.14v6.78h-28.14c-.93,0-1.72.33-2.39,1s-.99,1.46-.99,2.4.36,1.75,1.09,2.44c.57.46,1.29.74,2.17.84.88.1,1.87.15,2.95.15h.59c2.64.05,5.29.06,7.93.02h.78c1.29-.02,2.57-.04,3.85-.07.44,0,.89,0,1.34-.02,1.05-.03,2.17.02,3.34.14s2.34.47,3.51,1.02c2.91,1.5,4.71,3.88,5.38,7.14.28,1.53.24,3.04-.14,4.53-.41,1.58-1.16,2.98-2.24,4.2-.98,1.08-2.11,1.9-3.4,2.49-1.29.58-2.64.88-4.06.88h-28.71v-6.78h28.71c.91,0,1.72-.37,2.43-1.12.72-.82.98-1.79.78-2.92-.22-1.08-.8-1.85-1.72-2.32-1.01-.41-2.26-.57-3.75-.47-.44.02-.88.02-1.32.02-1.29.03-2.61.06-3.94.07h-.78c-2.69.05-5.4.04-8.12-.02h-.52c-1.46.03-3.02-.09-4.66-.37s-3.23-1.02-4.76-2.24h0Z"/>
      <path class="st0" d="M126.09,44.3v-6.78c0-3.64,1.32-6.84,3.97-9.6,2.75-2.66,5.93-3.98,9.54-3.98h12.39c3.6,0,6.79,1.33,9.56,3.98,2.63,2.77,3.94,5.97,3.94,9.6v6.78c0,3.62-1.31,6.81-3.94,9.58-2.77,2.66-5.96,3.98-9.56,3.98h-12.39c-3.6,0-6.78-1.33-9.54-3.98-2.64-2.77-3.97-5.96-3.97-9.58h0ZM132.85,37.52v6.78c0,1.87.66,3.46,1.98,4.79s2.91,1.99,4.77,1.99h12.39c1.86,0,3.45-.66,4.77-1.99s1.98-2.92,1.98-4.79v-6.78c0-1.88-.66-3.49-1.98-4.81s-2.91-1.99-4.77-1.99h-12.39c-1.86,0-3.45.66-4.77,1.99s-1.98,2.93-1.98,4.81h0Z"/>
      <path class="st0" d="M207.94,23.93v6.78h-15.77v27.15h-6.75v-27.15h-15.2v-6.78h37.73Z"/>
      <path class="st0" d="M211.55,52.22l-3.02,5.64h-7.67l18.18-33.94h7.08l18.18,33.94h-7.67l-3.02-5.64h-22.05,0ZM222.58,31.66l-7.39,13.75h14.78l-7.39-13.75Z"/>
    </g>
    <g>
      <g>
        <polygon class="st0" points="12.99 41.19 14.58 40.6 23.91 65.95 22.33 66.54 12.99 41.19"/>
        <polygon class="st0" points="34.86 20.93 35.98 19.66 62.94 43.68 61.82 44.95 34.86 20.93"/>
        <rect class="st0" x="38.18" y="18.95" width="1.7" height="45.86" transform="translate(-6.49 76.59) rotate(-84.34)"/>
        <polygon class="st0" points="22.2 63.57 32.31 18.63 33.95 19.01 23.85 63.94 22.2 63.57"/>
        <polygon class="st0" points="24.86 64.44 66.02 44.13 66.77 45.65 25.6 65.97 24.86 64.44"/>
        <polygon class="st0" points="11.41 36.78 33.44 18.11 34.53 19.4 12.5 38.08 11.41 36.78"/>
      </g>
      <ellipse class="st0" cx="33.1" cy="18.96" rx="7.29" ry="7.32"/>
      <ellipse class="st0" cx="64.33" cy="46.07" rx="7.29" ry="7.32"/>
      <ellipse class="st0" cx="28.32" cy="40.23" rx="5.16" ry="5.18"/>
      <ellipse class="st0" cx="24.7" cy="65.04" rx="7.29" ry="7.32"/>
      <ellipse class="st0" cx="13" cy="36.8" rx="7.29" ry="7.32"/>
    </g>
  </g>
</svg>