<?xml version="1.0" encoding="UTF-8"?>
<svg id="Calque_1" xmlns="http://www.w3.org/2000/svg" version="1.1" viewBox="0 0 250 84">
  <!-- Generator: Adobe Illustrator 29.6.0, SVG Export Plug-In . SVG Version: 2.1.1 Build 207)  -->
  <defs>
    <style>
      .st0 {
        fill: #0a292e;
      }

      .st1 {
        isolation: isolate;
      }
    </style>
  </defs>
  <g class="st1">
    <path class="st0" d="M74.56,52.75c-2.29,0-4.32-.84-6.07-2.52-1.68-1.75-2.52-3.77-2.52-6.07v-4.3c0-2.3.84-4.33,2.52-6.08,1.75-1.68,3.77-2.52,6.07-2.52h7.88c2.29,0,4.32.84,6.08,2.52,1.29,1.31,2.09,2.86,2.39,4.64h-4.42c-.31-.85-.83-1.54-1.56-2.07s-1.56-.8-2.49-.8h-7.88c-1.18,0-2.19.42-3.03,1.26s-1.26,1.86-1.26,3.05v4.3c0,1.18.42,2.19,1.26,3.03s1.85,1.26,3.03,1.26h7.88c.93,0,1.76-.27,2.49-.8s1.25-1.22,1.56-2.07h-6.92v-4.3h11.46v2.87c0,2.29-.84,4.32-2.51,6.07-1.76,1.68-3.79,2.52-6.08,2.52h-7.89,0Z"/>
  </g>
  <g class="st1">
    <path class="st0" d="M98.34,45.58v7.17h-4.3v-21.49h15.22c1.32,0,2.52.32,3.61.97s1.94,1.51,2.59,2.6c.65,1.09.97,2.29.97,3.6,0,1.41-.37,2.69-1.1,3.83-.74,1.14-1.7,2.01-2.91,2.61l4.19,7.81h-4.88l-3.8-7.09h-9.58s0,0,0,0ZM98.34,35.55v5.74h10.92c.79,0,1.47-.28,2.03-.84s.84-1.24.84-2.03-.28-1.47-.84-2.03c-.56-.56-1.24-.84-2.03-.84h-10.92Z"/>
  </g>
  <g class="st1">
    <path class="st0" d="M124.16,49.17l-1.92,3.57h-4.88l11.57-21.49h4.51l11.57,21.49h-4.88l-1.92-3.57h-14.03,0ZM131.17,36.15l-4.7,8.71h9.4l-4.7-8.71h0Z"/>
    <path class="st0" d="M147.99,31.25h4.3v21.49h-4.3v-21.49h0Z"/>
    <path class="st0" d="M177.67,38.42c0,1.32-.32,2.52-.97,3.61-.65,1.08-1.51,1.94-2.59,2.59-1.08.65-2.28.97-3.61.97h-10.92v7.17h-4.3v-21.49h15.22c1.32,0,2.52.32,3.61.97s1.94,1.51,2.59,2.6.97,2.29.97,3.6h0s0,0,0,0ZM159.59,35.55v5.74h10.92c.79,0,1.47-.28,2.03-.84s.84-1.24.84-2.03-.28-1.47-.84-2.03c-.56-.56-1.24-.84-2.03-.84h-10.92Z"/>
    <path class="st0" d="M184.97,44.16v8.59h-4.3v-21.49h4.3v8.61h16.84v-8.61h4.3v21.49h-4.3v-8.59h-16.84Z"/>
    <path class="st0" d="M209.11,31.25h4.3v21.49h-4.3v-21.49h0Z"/>
    <path class="st0" d="M216.41,44.16v-4.3c0-2.3.84-4.33,2.52-6.08,1.75-1.68,3.77-2.52,6.07-2.52h7.88c2.29,0,4.32.84,6.08,2.52,1.56,1.59,2.4,3.5,2.51,5.72h-4.31c-.12-1.13-.58-2.07-1.39-2.82-.81-.75-1.77-1.13-2.89-1.13h-7.88c-1.18,0-2.19.42-3.03,1.26s-1.26,1.86-1.26,3.05v4.3c0,1.18.42,2.19,1.26,3.03s1.85,1.26,3.03,1.26h7.88c1.12,0,2.08-.37,2.89-1.13.81-.75,1.27-1.69,1.39-2.81h4.31c-.11,2.21-.95,4.12-2.51,5.71-1.76,1.68-3.79,2.52-6.08,2.52h-7.88c-2.29,0-4.32-.84-6.07-2.52-1.68-1.75-2.52-3.77-2.52-6.07h0Z"/>
  </g>
  <g>
    <g>
      <rect class="st0" x="18.01" y="40.46" width="1.35" height="21.44" transform="translate(-16.6 9.66) rotate(-20.3)"/>
      <rect class="st0" x="42.26" y="19.96" width="1.35" height="28.71" transform="translate(-11.22 43.67) rotate(-48.44)"/>
      <rect class="st0" x="34.4" y="23.64" width="1.35" height="36.54" transform="translate(-10.1 72.65) rotate(-84.31)"/>
      <rect class="st0" x="8.08" y="40.76" width="36.54" height="1.35" transform="translate(-19.88 58) rotate(-77.27)"/>
      <rect class="st0" x="22.21" y="51.67" width="36.54" height="1.35" transform="translate(-18.94 23.22) rotate(-26.17)"/>
      <rect class="st0" x="10.79" y="30.3" width="22.96" height="1.35" transform="translate(-14.72 21.67) rotate(-40.16)"/>
    </g>
    <circle class="st0" cx="30.35" cy="23.73" r="5.81"/>
    <circle class="st0" cx="55.22" cy="45.23" r="5.81"/>
    <circle class="st0" cx="26.53" cy="40.6" r="4.11"/>
    <circle class="st0" cx="23.65" cy="60.27" r="5.81"/>
    <circle class="st0" cx="14.33" cy="37.87" r="5.81"/>
  </g>
</svg>