<svg xmlns="http://www.w3.org/2000/svg" width="221.573" height="69.311" viewBox="0 0 58.625 18.339"><g fill="#820064"><path d="M15.866 18.339H2.472A2.476 2.476 0 0 1 0 15.866V2.473A2.476 2.476 0 0 1 2.472 0h13.394a2.476 2.476 0 0 1 2.473 2.473v13.393a2.476 2.476 0 0 1-2.473 2.473zM2.472.91C1.611.91.91 1.61.91 2.473v13.393c0 .862.7 1.562 1.562 1.562h13.394c.862 0 1.562-.7 1.562-1.562V2.473c0-.862-.7-1.563-1.562-1.563zm16.573 6.007h.887V5.119h1.822v1.798h1.086v1.121h-1.086v3.048c0 .49.246.618.572.618.199 0 .455-.023.549-.034v1.436c-.234.023-.77.07-1.168.07-1.553 0-1.775-.97-1.775-1.869V8.04h-.887m9.959 3.676c0 .432.012.91.164 1.296h-1.681a2.458 2.458 0 0 1-.117-.642h-.023c-.304.49-1.215.805-1.869.805-1.19 0-2.078-.653-2.078-1.844 0-1.495 1.203-2.02 3.187-2.3l.666-.094v-.514c0-.466-.373-.665-.864-.665-.584 0-.864.21-.957.829H23.68c.059-1.786 1.716-1.95 2.557-1.95 1.693 0 2.756.397 2.767 1.798v3.281zm-1.751-1.728l-1.226.35c-.456.129-.876.304-.876.806 0 .49.409.7.852.7.712 0 1.25-.478 1.25-1.424zm3.315 3.024V4.7h1.822v4.192l1.891-2.09h2.23L34.387 9.16l2.3 3.853h-2.078l-1.54-2.51-.678.69v1.82h-1.822z"/><path d="M42.15 11.716c0 .432.012.91.163 1.296h-1.68a2.503 2.503 0 0 1-.118-.642h-.023c-.303.49-1.214.805-1.868.805-1.19 0-2.078-.653-2.078-1.844 0-1.495 1.202-2.02 3.187-2.3l.666-.094v-.514c0-.466-.374-.665-.864-.665-.584 0-.865.21-.958.829h-1.75c.057-1.786 1.715-1.95 2.556-1.95 1.693 0 2.755.397 2.767 1.798zm-1.751-1.728l-1.226.35c-.455.129-.876.304-.876.806 0 .49.409.7.852.7.713 0 1.25-.478 1.25-1.424zm2.848 3.024V4.7h1.822v8.313zm8.114-1.296c0 .432.012.91.164 1.296h-1.68a2.458 2.458 0 0 1-.118-.642h-.023c-.304.49-1.214.805-1.869.805-1.19 0-2.078-.653-2.078-1.844 0-1.495 1.203-2.02 3.188-2.3l.665-.094v-.514c0-.466-.373-.665-.864-.665-.583 0-.864.21-.957.829h-1.751c.058-1.786 1.716-1.95 2.557-1.95 1.693 0 2.756.397 2.766 1.798zm-1.75-1.728l-1.227.35c-.455.129-.875.304-.875.806 0 .49.408.7.852.7.712 0 1.25-.478 1.25-1.424zM52.459 4.7h1.821v2.673c.537-.596 1.203-.736 1.705-.736 1.25 0 2.673.84 2.639 3.082 0 2.464-1.226 3.456-2.791 3.456a2.088 2.088 0 0 1-1.6-.77h-.023v.607h-1.751zm3.082 7.145c.934 0 1.262-.876 1.262-1.938-.036-1.192-.292-1.939-1.262-1.939-.945 0-1.273.876-1.273 1.939 0 1.062.328 1.938 1.273 1.938zM2.513 4.223h3.382c2.66 0 4.448 1.262 4.448 4.362 0 3.101-1.789 4.363-4.448 4.363H2.513zm2.181 6.887h1.25c1.63 0 2.218-1.115 2.218-2.525 0-1.409-.588-2.523-2.23-2.523H4.694zm11.604.353c0 .432.012.91.164 1.295H14.78a2.495 2.495 0 0 1-.117-.641h-.022c-.304.49-1.215.805-1.869.805-1.19 0-2.078-.654-2.078-1.845 0-1.494 1.202-2.02 3.188-2.3l.665-.093V8.17c0-.467-.374-.666-.864-.666-.583 0-.864.211-.957.83h-1.751c.058-1.787 1.716-1.95 2.557-1.95 1.692 0 2.755.396 2.766 1.797v3.282zm-1.751-1.728l-1.226.35c-.456.128-.876.303-.876.806 0 .49.408.7.852.7.712 0 1.25-.479 1.25-1.425z"/></g></svg>