<?xml version="1.0" encoding="UTF-8" standalone="no"?>
<!-- Created with Inkscape (http://www.inkscape.org/) -->

<svg
   xmlns:dc="http://purl.org/dc/elements/1.1/"
   xmlns:cc="http://creativecommons.org/ns#"
   xmlns:rdf="http://www.w3.org/1999/02/22-rdf-syntax-ns#"
   xmlns:svg="http://www.w3.org/2000/svg"
   xmlns="http://www.w3.org/2000/svg"
   xmlns:sodipodi="http://sodipodi.sourceforge.net/DTD/sodipodi-0.dtd"
   xmlns:inkscape="http://www.inkscape.org/namespaces/inkscape"
   version="1.1"
   id="svg64"
   xml:space="preserve"
   width="702.23798"
   height="190.332"
   viewBox="0 0 702.23798 190.332"
   sodipodi:docname="octoml.svg"
   inkscape:version="0.92.2 5c3e80d, 2017-08-06"><metadata
     id="metadata70"><rdf:RDF><cc:Work
         rdf:about=""><dc:format>image/svg+xml</dc:format><dc:type
           rdf:resource="http://purl.org/dc/dcmitype/StillImage" /><dc:title></dc:title></cc:Work></rdf:RDF></metadata><defs
     id="defs68"><clipPath
       clipPathUnits="userSpaceOnUse"
       id="clipPath84"><path
         d="m 87.785,238.1499 -3.2927,-3.2916 c -5.7132,-5.7132 -13.25,-8.5708 -20.7868,-8.5708 l -0.0241,-0.0244 c -7.5359,0 -15.0814,2.8664 -20.8099,8.5952 l -0.0023,10e-4 c -5.7132,5.7129 -8.5697,13.2499 -8.5708,20.7867 v 0.0473 c 0.0011,6.2252 1.9502,12.4515 5.8476,17.6483 1.3886,1.8521 3.3114,2.8995 5.6205,3.0636 6.3442,0.4536 11.7181,-7.3958 7.5302,-13.0594 -1.6784,-2.2697 -2.5217,-4.9743 -2.5273,-7.6757 0.0068,-3.3069 1.2676,-6.6172 3.7805,-9.1301 l 0.0023,-0.002 c 2.5041,-2.5041 5.8155,-3.7565 9.1292,-3.7565 v -0.024 c 3.3069,0.007 6.6172,1.2673 9.1302,3.7805 l 3.2927,3.2927 L 87.785,238.15 Z m 42.4724,115.7412 8e-4,-9e-4 c 10.0809,-10.0808 15.1211,-23.3617 15.1223,-36.6335 -0.001,-13.2733 -5.0414,-26.5541 -15.1223,-36.6336 l -6.692,-6.6912 -2.7431,-2.743 -9.6778,-9.6787 h -0.001 l -11.6796,11.6796 h -0.0011 l 18.2619,18.2628 1.1517,1.152 c 6.6558,6.8187 9.9848,15.7331 9.9848,24.6521 0,9.0499 -3.428,18.0975 -10.2833,24.9528 l -0.002,0.002 c -6.8553,6.8553 -15.9018,10.2824 -24.9528,10.2832 -9.051,0 -18.0978,-3.4279 -24.9528,-10.2844 l -0.0023,-8e-4 c -6.855,-6.8553 -10.2832,-15.9018 -10.2832,-24.9528 0,-8.9652 3.3633,-17.9258 10.0896,-24.7567 l 1.0471,-1.0474 24.1016,-24.1027 0.0011,-10e-4 5.8386,-5.8386 5.841,-5.8399 2.9237,-2.9248 6.2076,-6.2076 c 2.5132,-2.5132 5.8235,-3.7752 9.1304,-3.7805 v 0.024 c 3.3137,0 6.6251,1.2532 9.1304,3.7577 l 0.001,0.001 c 2.514,2.514 3.7749,5.8243 3.7803,9.1301 -0.004,2.7003 -0.8479,5.4071 -2.5271,7.6757 -6.0052,8.115 6.8485,18.3982 13.1496,9.9969 3.8974,-5.1979 5.8476,-11.4242 5.8499,-17.6494 v -0.0473 c -0.002,-7.5368 -2.859,-15.0727 -8.572,-20.7879 h -0.002 c -5.7277,-5.7288 -13.2744,-8.5952 -20.81,-8.5952 l -0.0233,0.0233 c -7.5379,0.002 -15.0758,2.8587 -20.7878,8.5719 l -9.1313,9.1301 -5.8399,5.84 v 0.001 l -5.8408,5.8408 -24.954,24.9528 c -10.0805,10.0806 -15.1208,23.3603 -15.122,36.6336 0.0012,13.2718 5.0415,26.5527 15.122,36.6335 l 0.0012,9e-4 c 10.0805,10.0797 23.3603,15.1211 36.6335,15.1211 13.273,0 26.5527,-5.0403 36.6336,-15.1211"
         id="path82"
         inkscape:connector-curvature="0" /></clipPath><linearGradient
       x1="93.620003"
       y1="243.99001"
       x2="93.620003"
       y2="369.01001"
       gradientUnits="userSpaceOnUse"
       spreadMethod="pad"
       id="linearGradient90"><stop
         style="stop-opacity:1;stop-color:#f4c257"
         offset="0"
         id="stop86" /><stop
         style="stop-opacity:1;stop-color:#f6b110"
         offset="1"
         id="stop88" /></linearGradient></defs><sodipodi:namedview
     pagecolor="#ffffff"
     bordercolor="#666666"
     borderopacity="1"
     objecttolerance="10"
     gridtolerance="10"
     guidetolerance="10"
     inkscape:pageopacity="0"
     inkscape:pageshadow="2"
     inkscape:window-width="2070"
     inkscape:window-height="1328"
     id="namedview66"
     showgrid="false"
     inkscape:zoom="0.84724439"
     inkscape:cx="468.58534"
     inkscape:cy="195.24836"
     inkscape:window-x="835"
     inkscape:window-y="482"
     inkscape:window-maximized="0"
     inkscape:current-layer="g72"
     fit-margin-top="0"
     fit-margin-left="0"
     fit-margin-right="0"
     fit-margin-bottom="0" /><g
     id="g72"
     inkscape:groupmode="layer"
     inkscape:label="Octo ML1"
     transform="matrix(1.3333333,0,0,-1.3333333,-45.731199,492.01612)"><path
       inkscape:connector-curvature="0"
       id="path76"
       style="fill:#042435;fill-opacity:1;fill-rule:evenodd;stroke:none"
       d="m 258.4678,297.7353 c 0,4.7872 -0.8733,9.3152 -2.6201,13.585 -1.7467,4.2696 -4.1726,7.9892 -7.2776,11.1592 -3.1051,3.1697 -6.8247,5.6764 -11.1592,7.52 -4.3341,1.8437 -9.1213,2.7658 -14.3611,2.7658 -5.2402,0 -10.027,-0.9383 -14.3615,-2.8142 -4.3342,-1.876 -8.0864,-4.415 -11.2561,-7.6173 -3.1697,-3.2023 -5.6282,-6.9381 -7.3746,-11.2076 -1.7467,-4.2696 -2.6201,-8.7979 -2.6201,-13.5851 0,-4.7871 0.8734,-9.3155 2.6201,-13.585 1.7464,-4.2695 4.1723,-7.9892 7.2777,-11.1592 3.105,-3.1697 6.8247,-5.6766 11.1591,-7.5203 4.3342,-1.8436 9.1213,-2.7655 14.3612,-2.7655 5.2398,0 10.027,0.938 14.3614,2.814 4.3342,1.8763 8.0861,4.4152 11.2561,7.6175 3.1697,3.2021 5.6279,6.9381 7.3746,11.2077 1.7468,4.2695 2.6201,8.7979 2.6201,13.585 z M 245.95,297.5411 c 0,-3.2992 -0.5658,-6.4204 -1.6979,-9.3639 -1.1322,-2.9435 -2.7009,-5.4987 -4.7064,-7.6658 -2.0052,-2.1671 -4.415,-3.8814 -7.2292,-5.1429 -2.8139,-1.2614 -5.9029,-1.8924 -9.2667,-1.8924 -3.3639,0 -6.4693,0.6472 -9.3155,1.9409 -2.8463,1.2937 -5.2886,3.0404 -7.3262,5.2399 -2.0378,2.1994 -3.6227,4.7709 -4.7548,7.7144 -1.1322,2.9433 -1.6982,6.0648 -1.6982,9.364 0,3.2993 0.566,6.4205 1.6982,9.364 1.1321,2.9432 2.7008,5.4986 4.7064,7.6657 2.0052,2.1671 4.4149,3.8815 7.2289,5.1429 2.8142,1.2614 5.9031,1.8921 9.267,1.8921 3.3639,0 6.4692,-0.6468 9.3155,-1.9406 2.8463,-1.2937 5.2883,-3.0404 7.3261,-5.2398 2.0379,-2.1997 3.6227,-4.771 4.7549,-7.7145 1.1321,-2.9435 1.6979,-6.0647 1.6979,-9.364 z m 70.1085,-25.4233 -7.0835,6.9865 c -1.876,-1.876 -3.8654,-3.4123 -5.9678,-4.6091 -2.1025,-1.1968 -4.5445,-1.7952 -7.3262,-1.7952 -2.2643,0 -4.3341,0.4365 -6.2104,1.3099 -1.876,0.8733 -3.4931,2.054 -4.8518,3.5419 -1.3583,1.4879 -2.4097,3.2346 -3.1535,5.2398 -0.7441,2.0055 -1.116,4.1726 -1.116,6.5016 0,2.264 0.3719,4.3826 1.116,6.3558 0.7438,1.9729 1.7629,3.7035 3.0566,5.1914 1.2937,1.4879 2.8463,2.6685 4.6576,3.5419 1.8113,0.8733 3.7845,1.3099 5.9193,1.3099 2.9758,0 5.4825,-0.5984 7.5203,-1.7952 2.0378,-1.1968 3.9623,-2.7332 5.7736,-4.6092 l 7.2777,7.8599 c -2.3936,2.6524 -5.1914,4.7872 -8.3937,6.4044 -3.202,1.6171 -7.2292,2.4259 -12.081,2.4259 -3.8165,0 -7.3584,-0.7115 -10.6253,-2.1348 -3.267,-1.4233 -6.0971,-3.3639 -8.4745,-5.8221 -2.3774,-2.4582 -4.2372,-5.3048 -5.5794,-8.5394 -1.3425,-3.2343 -2.0055,-6.6954 -2.0055,-10.3827 0,-3.6873 0.663,-7.132 2.0055,-10.3343 1.3422,-3.2023 3.202,-6.0162 5.5794,-8.4421 2.3774,-2.4259 5.1914,-4.3342 8.426,-5.7252 3.2346,-1.3909 6.7601,-2.0863 10.5769,-2.0863 4.9813,0 9.089,0.8896 12.3236,2.6686 3.2346,1.779 6.1132,4.0918 8.6361,6.9381 z m 24.6957,32.7979 h 13.7789 v 9.9947 h -13.7789 v 14.0704 h -11.8386 v -14.0704 h -6.5013 v -9.9947 h 6.5013 v -27.0405 c 0,-2.8463 0.356,-5.2398 1.0836,-7.1484 0.7115,-1.9083 1.7306,-3.4447 3.0728,-4.6253 1.3425,-1.1645 2.9273,-2.0055 4.7548,-2.5228 1.8114,-0.5176 3.8004,-0.7764 5.9355,-0.7764 2.1994,0 4.14,0.2265 5.8221,0.6791 1.6818,0.453 3.2669,1.0999 4.7548,1.9409 v 9.6066 c -2.3289,-1.1644 -4.7548,-1.7467 -7.2779,-1.7467 -2.0053,0 -3.5578,0.5012 -4.6576,1.5041 -1.0999,1.0026 -1.6495,2.6524 -1.6495,4.9164 z m 75.6394,-15.6225 c 0,3.6873 -0.6792,7.1481 -2.0379,10.3827 -1.3583,3.2346 -3.2507,6.0647 -5.6766,8.4906 -2.4259,2.4259 -5.3045,4.3345 -8.636,5.7252 -3.3316,1.3909 -6.9704,2.0863 -10.9165,2.0863 -3.9462,0 -7.585,-0.7115 -10.9168,-2.1348 -3.3316,-1.4233 -6.2102,-3.3477 -8.6361,-5.7736 -2.4259,-2.4259 -4.3341,-5.2725 -5.7251,-8.5391 -1.391,-3.2669 -2.0863,-6.7442 -2.0863,-10.4315 0,-3.6873 0.6792,-7.132 2.0378,-10.3343 1.3584,-3.2023 3.2508,-6.0162 5.6767,-8.4421 2.4259,-2.4259 5.3045,-4.3342 8.636,-5.7252 3.3316,-1.3909 6.9381,-2.0863 10.8196,-2.0863 3.9461,0 7.6011,0.7118 10.965,2.1348 3.3638,1.4233 6.2589,3.3477 8.6847,5.7736 2.4259,2.4259 4.3342,5.2563 5.7252,8.4906 1.3909,3.2347 2.0863,6.6958 2.0863,10.3831 z m -11.8384,-0.1942 c 0,-2.264 -0.356,-4.3827 -1.0675,-6.3559 -0.6953,-1.9729 -1.7305,-3.7034 -3.0727,-5.1913 -1.3587,-1.4879 -2.9759,-2.6686 -4.868,-3.5419 -1.9083,-0.8734 -4.0433,-1.3099 -6.4204,-1.3099 -2.2482,0 -4.3183,0.4365 -6.2266,1.3099 -1.8922,0.8733 -3.5258,2.054 -4.9164,3.5419 -1.3748,1.4879 -2.4582,3.2508 -3.2185,5.2883 -0.7761,2.0378 -1.1645,4.1888 -1.1645,6.4531 0,2.264 0.3558,4.3826 1.0676,6.3558 0.6953,1.9729 1.7305,3.7035 3.0727,5.1914 1.3584,1.4879 2.9758,2.6685 4.868,3.5419 1.9082,0.8733 4.0107,1.3099 6.3235,1.3099 2.3128,0 4.4152,-0.4366 6.3235,-1.3099 1.8921,-0.8734 3.5257,-2.0702 4.9164,-3.5904 1.3748,-1.5202 2.4582,-3.2831 3.2185,-5.2886 0.7761,-2.0052 1.1644,-4.14 1.1644,-6.4043 z m 79.812,23.2886 v -48.712 h 11.8384 v 67.9252 h -12.7117 l -20.6688,-32.1191 -20.6686,32.1191 h -12.7116 v -67.9252 h 11.8383 v 48.5178 l 21.2508,-31.8277 h 0.3883 z m 29.0622,-48.712 h 47.5475 v 10.7711 h -35.7091 v 57.1541 h -11.8384 z" /><path
       inkscape:connector-curvature="0"
       id="path92"
       style="fill:url(#linearGradient90);stroke:none"
       d="m 87.785,238.1499 -3.2927,-3.2916 c -5.7132,-5.7132 -13.25,-8.5708 -20.7868,-8.5708 l -0.0241,-0.0244 c -7.5359,0 -15.0814,2.8664 -20.8099,8.5952 l -0.0023,10e-4 c -5.7132,5.7129 -8.5697,13.2499 -8.5708,20.7867 v 0.0473 c 0.0011,6.2252 1.9502,12.4515 5.8476,17.6483 1.3886,1.8521 3.3114,2.8995 5.6205,3.0636 6.3442,0.4536 11.7181,-7.3958 7.5302,-13.0594 -1.6784,-2.2697 -2.5217,-4.9743 -2.5273,-7.6757 0.0068,-3.3069 1.2676,-6.6172 3.7805,-9.1301 l 0.0023,-0.002 c 2.5041,-2.5041 5.8155,-3.7565 9.1292,-3.7565 v -0.024 c 3.3069,0.007 6.6172,1.2673 9.1302,3.7805 l 3.2927,3.2927 L 87.785,238.15 Z m 42.4724,115.7412 8e-4,-9e-4 c 10.0809,-10.0808 15.1211,-23.3617 15.1223,-36.6335 -0.001,-13.2733 -5.0414,-26.5541 -15.1223,-36.6336 l -6.692,-6.6912 -2.7431,-2.743 -9.6778,-9.6787 h -0.001 l -11.6796,11.6796 h -0.0011 l 18.2619,18.2628 1.1517,1.152 c 6.6558,6.8187 9.9848,15.7331 9.9848,24.6521 0,9.0499 -3.428,18.0975 -10.2833,24.9528 l -0.002,0.002 c -6.8553,6.8553 -15.9018,10.2824 -24.9528,10.2832 -9.051,0 -18.0978,-3.4279 -24.9528,-10.2844 l -0.0023,-8e-4 c -6.855,-6.8553 -10.2832,-15.9018 -10.2832,-24.9528 0,-8.9652 3.3633,-17.9258 10.0896,-24.7567 l 1.0471,-1.0474 24.1016,-24.1027 0.0011,-10e-4 5.8386,-5.8386 5.841,-5.8399 2.9237,-2.9248 6.2076,-6.2076 c 2.5132,-2.5132 5.8235,-3.7752 9.1304,-3.7805 v 0.024 c 3.3137,0 6.6251,1.2532 9.1304,3.7577 l 0.001,0.001 c 2.514,2.514 3.7749,5.8243 3.7803,9.1301 -0.004,2.7003 -0.8479,5.4071 -2.5271,7.6757 -6.0052,8.115 6.8485,18.3982 13.1496,9.9969 3.8974,-5.1979 5.8476,-11.4242 5.8499,-17.6494 v -0.0473 c -0.002,-7.5368 -2.859,-15.0727 -8.572,-20.7879 h -0.002 c -5.7277,-5.7288 -13.2744,-8.5952 -20.81,-8.5952 l -0.0233,0.0233 c -7.5379,0.002 -15.0758,2.8587 -20.7878,8.5719 l -9.1313,9.1301 -5.8399,5.84 v 0.001 l -5.8408,5.8408 -24.954,24.9528 c -10.0805,10.0806 -15.1208,23.3603 -15.122,36.6336 0.0012,13.2718 5.0415,26.5527 15.122,36.6335 l 0.0012,9e-4 c 10.0805,10.0797 23.3603,15.1211 36.6335,15.1211 13.273,0 26.5527,-5.0403 36.6336,-15.1211" /></g></svg>