<?xml version="1.0" encoding="UTF-8" standalone="no"?>
<svg
   xmlns:dc="http://purl.org/dc/elements/1.1/"
   xmlns:cc="http://creativecommons.org/ns#"
   xmlns:rdf="http://www.w3.org/1999/02/22-rdf-syntax-ns#"
   xmlns:svg="http://www.w3.org/2000/svg"
   xmlns="http://www.w3.org/2000/svg"
   viewBox="0 0 164.92 51.066666"
   height="51.066666"
   width="164.92"
   xml:space="preserve"
   id="svg3718"
   version="1.1"><metadata
     id="metadata3724"><rdf:RDF><cc:Work
         rdf:about=""><dc:format>image/svg+xml</dc:format><dc:type
           rdf:resource="http://purl.org/dc/dcmitype/StillImage" /><dc:title></dc:title></cc:Work></rdf:RDF></metadata><defs
     id="defs3722" /><g
     transform="matrix(1.3333333,0,0,-1.3333333,0,51.066667)"
     id="g3726"><g
       transform="scale(0.1)"
       id="g3728"><path
         id="path3730"
         style="fill:#f03a1f;fill-opacity:1;fill-rule:nonzero;stroke:none"
         d="m 1030.17,150.137 c -18.91,0 -34.842,12.695 -39.764,30.058 h 104.884 l 14.45,22.5 H 990.406 c 4.903,17.403 20.854,30.059 39.764,30.059 h 72.01 l 14.4,22.559 h -88.05 c -35.214,0 -63.788,-28.575 -63.788,-63.868 0,-35.254 28.574,-63.769 63.788,-63.769 h 75.74 l 14.4,22.461 h -88.5 M 730.035,127.676 h 75.742 l 14.336,22.461 h -88.398 c -22.91,0 -41.367,18.535 -41.367,41.308 0,22.871 18.457,41.309 41.367,41.309 h 71.953 l 14.512,22.559 h -88.145 c -35.273,0 -63.926,-28.575 -63.926,-63.868 0,-35.254 28.653,-63.769 63.926,-63.769 m -466.043,22.461 h -70.855 c -22.805,0 -41.282,18.535 -41.282,41.308 0,22.871 18.477,41.309 41.282,41.309 h 70.855 c 22.883,0 41.34,-18.438 41.34,-41.309 0,-22.773 -18.457,-41.308 -41.34,-41.308 m -72.488,-22.461 h 74.187 c 35.293,0 63.711,28.515 63.711,63.769 0,35.293 -28.418,63.868 -63.711,63.868 h -74.187 c -35.254,0 -63.848,-28.575 -63.848,-63.868 0,-35.254 28.594,-63.769 63.848,-63.769 m 258.367,41.328 c 23.899,0 43.113,19.336 43.113,43.164 0,23.828 -19.214,43.145 -43.113,43.145 H 342.488 V 127.676 h 24.543 v 105.078 h 81.211 c 11.399,0 20.637,-9.199 20.637,-20.586 0,-11.367 -9.238,-20.723 -20.637,-20.723 l -69.211,0.059 73.305,-63.828 h 35.609 l -49.234,41.328 h 11.16 m 406.004,-18.789 v 105.098 h -24.59 v -115.43 c 0,-3.145 1.328,-6.231 3.633,-8.457 2.344,-2.422 5.566,-3.75 8.945,-3.75 H 955.68 l 14.57,22.539 H 855.875 m -300.391,22.461 h 65.469 l -34.59,55.82 -63.496,-100.82 h -29.004 l 77.305,120.996 c 3.301,4.902 8.965,7.871 15.156,7.871 6.055,0 11.621,-2.871 14.922,-7.656 l 77.539,-121.211 h -28.926 l -13.632,22.539 h -66.289 l -14.454,22.461" /></g></g></svg>