<?xml version="1.0" encoding="utf-8"?>
<!-- Generator: Adobe Illustrator 23.0.3, SVG Export Plug-In . SVG Version: 6.00 Build 0)  -->
<svg version="1.1" id="Layer_1" xmlns="http://www.w3.org/2000/svg" xmlns:xlink="http://www.w3.org/1999/xlink" x="0px" y="0px"
	 viewBox="0 0 332 272" style="enable-background:new 0 0 332 272;" xml:space="preserve">
<style type="text/css">
	.st0{clip-path:url(#SVGID_2_);}
	.st1{opacity:0.4;fill:#1FA2FF;}
	.st2{fill:#FFFFFF;}
	.st3{fill:none;stroke:#333333;stroke-width:5.0562;stroke-linejoin:round;stroke-miterlimit:10;}
	.st4{fill:#1FA2FF;}
	.st5{fill:none;}
	.st6{fill:#414042;}
	.st7{fill:#333333;}
	.st8{fill:#FFFFFF;stroke:#333333;stroke-width:5.0562;stroke-linejoin:round;stroke-miterlimit:10;}
</style>
<g>
	<g>
		<defs>
			<polygon id="SVGID_1_" points="25.8,103.2 90.7,103.2 90.4,112.1 85,115.7 89.3,123.4 94.6,124.2 94.1,137.4 89.2,142.6 
				88.9,150.9 25.8,150.9 			"/>
		</defs>
		<clipPath id="SVGID_2_">
			<use xlink:href="#SVGID_1_"  style="overflow:visible;"/>
		</clipPath>
		<g class="st0">
			<g>
				<path class="st1" d="M87.9,143.5h11.7c0.9,0,1.6,0.7,1.6,1.6l0,0c0,0.9-0.7,1.6-1.6,1.6H87.9c-0.9,0-1.6-0.7-1.6-1.6l0,0
					C86.3,144.2,87,143.5,87.9,143.5z"/>
				<path class="st1" d="M29.6,143.5h11.7c0.9,0,1.6,0.7,1.6,1.6l0,0c0,0.9-0.7,1.6-1.6,1.6H29.6c-0.9,0-1.6-0.7-1.6-1.6l0,0
					C28,144.2,28.7,143.5,29.6,143.5z"/>
				<path class="st1" d="M52.8,143.5h2c0.9,0,1.6,0.7,1.6,1.6l0,0c0,0.9-0.7,1.6-1.6,1.6h-2c-0.9,0-1.6-0.7-1.6-1.6l0,0
					C51.2,144.2,51.9,143.5,52.8,143.5z"/>
				<path class="st1" d="M46.2,143.5h2c0.9,0,1.6,0.7,1.6,1.6l0,0c0,0.9-0.7,1.6-1.6,1.6h-2c-0.9,0-1.6-0.7-1.6-1.6l0,0
					C44.6,144.2,45.3,143.5,46.2,143.5z"/>
				<path class="st1" d="M59.8,143.5h11.7c0.9,0,1.6,0.7,1.6,1.6l0,0c0,0.9-0.7,1.6-1.6,1.6H59.8c-0.9,0-1.6-0.7-1.6-1.6l0,0
					C58.2,144.2,58.9,143.5,59.8,143.5z"/>
				<path class="st1" d="M76.4,143.5h6.4c0.9,0,1.6,0.7,1.6,1.6l0,0c0,0.9-0.7,1.6-1.6,1.6h-6.4c-0.9,0-1.6-0.7-1.6-1.6l0,0
					C74.8,144.2,75.5,143.5,76.4,143.5z"/>
				<path class="st1" d="M57.6,141.1H46c-0.9,0-1.6-0.7-1.6-1.6l0,0c0-0.9,0.7-1.6,1.6-1.6h11.7c0.9,0,1.6,0.7,1.6,1.6l0,0
					C59.3,140.4,58.5,141.1,57.6,141.1z"/>
				<path class="st1" d="M41.7,141.1H30c-0.9,0-1.6-0.7-1.6-1.6l0,0c0-0.9,0.7-1.6,1.6-1.6h11.7c0.9,0,1.6,0.7,1.6,1.6l0,0
					C43.3,140.4,42.6,141.1,41.7,141.1z"/>
				<path class="st1" d="M92.8,141.1h-2c-0.9,0-1.6-0.7-1.6-1.6l0,0c0-0.9,0.7-1.6,1.6-1.6h2c0.9,0,1.6,0.7,1.6,1.6l0,0
					C94.4,140.4,93.6,141.1,92.8,141.1z"/>
				<path class="st1" d="M99.3,141.1h-2c-0.9,0-1.6-0.7-1.6-1.6l0,0c0-0.9,0.7-1.6,1.6-1.6h2c0.9,0,1.6,0.7,1.6,1.6l0,0
					C100.9,140.4,100.2,141.1,99.3,141.1z"/>
				<path class="st1" d="M85.7,141.1H74c-0.9,0-1.6-0.7-1.6-1.6l0,0c0-0.9,0.7-1.6,1.6-1.6h11.7c0.9,0,1.6,0.7,1.6,1.6l0,0
					C87.3,140.4,86.6,141.1,85.7,141.1z"/>
				<path class="st1" d="M69.1,141.1h-6.4c-0.9,0-1.6-0.7-1.6-1.6l0,0c0-0.9,0.7-1.6,1.6-1.6h6.4c0.9,0,1.6,0.7,1.6,1.6l0,0
					C70.7,140.4,70,141.1,69.1,141.1z"/>
				<path class="st1" d="M48.4,135.7H36.7c-0.9,0-1.6-0.7-1.6-1.6l0,0c0-0.9,0.7-1.6,1.6-1.6h11.7c0.9,0,1.6,0.7,1.6,1.6l0,0
					C50,135,49.3,135.7,48.4,135.7z"/>
				<path class="st1" d="M64.7,135.7H53c-0.9,0-1.6-0.7-1.6-1.6l0,0c0-0.9,0.7-1.6,1.6-1.6h11.7c0.9,0,1.6,0.7,1.6,1.6l0,0
					C66.3,135,65.5,135.7,64.7,135.7z"/>
				<path class="st1" d="M32.4,135.7h-2c-0.9,0-1.6-0.7-1.6-1.6l0,0c0-0.9,0.7-1.6,1.6-1.6h2c0.9,0,1.6,0.7,1.6,1.6l0,0
					C34,135,33.2,135.7,32.4,135.7z"/>
				<path class="st1" d="M88.3,135.7h-2c-0.9,0-1.6-0.7-1.6-1.6l0,0c0-0.9,0.7-1.6,1.6-1.6h2c0.9,0,1.6,0.7,1.6,1.6l0,0
					C89.9,135,89.2,135.7,88.3,135.7z"/>
				<path class="st1" d="M81.6,135.7H69.9c-0.9,0-1.6-0.7-1.6-1.6l0,0c0-0.9,0.7-1.6,1.6-1.6h11.7c0.9,0,1.6,0.7,1.6,1.6l0,0
					C83.2,135,82.4,135.7,81.6,135.7z"/>
				<path class="st1" d="M99.1,135.7h-6.4c-0.9,0-1.6-0.7-1.6-1.6l0,0c0-0.9,0.7-1.6,1.6-1.6h6.4c0.9,0,1.6,0.7,1.6,1.6l0,0
					C100.7,135,100,135.7,99.1,135.7z"/>
			</g>
			<g>
				<path class="st1" d="M87.9,110.7h11.7c0.9,0,1.6,0.7,1.6,1.6l0,0c0,0.9-0.7,1.6-1.6,1.6H87.9c-0.9,0-1.6-0.7-1.6-1.6l0,0
					C86.3,111.5,87,110.7,87.9,110.7z"/>
				<path class="st1" d="M29.6,110.7h11.7c0.9,0,1.6,0.7,1.6,1.6l0,0c0,0.9-0.7,1.6-1.6,1.6H29.6c-0.9,0-1.6-0.7-1.6-1.6l0,0
					C28,111.5,28.7,110.7,29.6,110.7z"/>
				<path class="st1" d="M52.8,110.7h2c0.9,0,1.6,0.7,1.6,1.6l0,0c0,0.9-0.7,1.6-1.6,1.6h-2c-0.9,0-1.6-0.7-1.6-1.6l0,0
					C51.2,111.5,51.9,110.7,52.8,110.7z"/>
				<path class="st1" d="M46.2,110.7h2c0.9,0,1.6,0.7,1.6,1.6l0,0c0,0.9-0.7,1.6-1.6,1.6h-2c-0.9,0-1.6-0.7-1.6-1.6l0,0
					C44.6,111.5,45.3,110.7,46.2,110.7z"/>
				<path class="st1" d="M59.8,110.7h11.7c0.9,0,1.6,0.7,1.6,1.6l0,0c0,0.9-0.7,1.6-1.6,1.6H59.8c-0.9,0-1.6-0.7-1.6-1.6l0,0
					C58.2,111.5,58.9,110.7,59.8,110.7z"/>
				<path class="st1" d="M76.4,110.7h6.4c0.9,0,1.6,0.7,1.6,1.6l0,0c0,0.9-0.7,1.6-1.6,1.6h-6.4c-0.9,0-1.6-0.7-1.6-1.6l0,0
					C74.8,111.5,75.5,110.7,76.4,110.7z"/>
				<path class="st1" d="M57.6,108.4H46c-0.9,0-1.6-0.7-1.6-1.6l0,0c0-0.9,0.7-1.6,1.6-1.6h11.7c0.9,0,1.6,0.7,1.6,1.6l0,0
					C59.3,107.7,58.5,108.4,57.6,108.4z"/>
				<path class="st1" d="M41.7,108.4H30c-0.9,0-1.6-0.7-1.6-1.6l0,0c0-0.9,0.7-1.6,1.6-1.6h11.7c0.9,0,1.6,0.7,1.6,1.6l0,0
					C43.3,107.7,42.6,108.4,41.7,108.4z"/>
				<path class="st1" d="M92.8,108.4h-2c-0.9,0-1.6-0.7-1.6-1.6l0,0c0-0.9,0.7-1.6,1.6-1.6h2c0.9,0,1.6,0.7,1.6,1.6l0,0
					C94.4,107.7,93.6,108.4,92.8,108.4z"/>
				<path class="st1" d="M99.3,108.4h-2c-0.9,0-1.6-0.7-1.6-1.6l0,0c0-0.9,0.7-1.6,1.6-1.6h2c0.9,0,1.6,0.7,1.6,1.6l0,0
					C100.9,107.7,100.2,108.4,99.3,108.4z"/>
				<path class="st1" d="M85.7,108.4H74c-0.9,0-1.6-0.7-1.6-1.6l0,0c0-0.9,0.7-1.6,1.6-1.6h11.7c0.9,0,1.6,0.7,1.6,1.6l0,0
					C87.3,107.7,86.6,108.4,85.7,108.4z"/>
				<path class="st1" d="M69.1,108.4h-6.4c-0.9,0-1.6-0.7-1.6-1.6l0,0c0-0.9,0.7-1.6,1.6-1.6h6.4c0.9,0,1.6,0.7,1.6,1.6l0,0
					C70.7,107.7,70,108.4,69.1,108.4z"/>
			</g>
			<g>
				<path class="st1" d="M87.9,127.3h11.7c0.9,0,1.6,0.7,1.6,1.6l0,0c0,0.9-0.7,1.6-1.6,1.6H87.9c-0.9,0-1.6-0.7-1.6-1.6l0,0
					C86.3,128,87,127.3,87.9,127.3z"/>
				<path class="st1" d="M29.6,127.3h11.7c0.9,0,1.6,0.7,1.6,1.6l0,0c0,0.9-0.7,1.6-1.6,1.6H29.6c-0.9,0-1.6-0.7-1.6-1.6l0,0
					C28,128,28.7,127.3,29.6,127.3z"/>
				<path class="st1" d="M52.8,127.3h2c0.9,0,1.6,0.7,1.6,1.6l0,0c0,0.9-0.7,1.6-1.6,1.6h-2c-0.9,0-1.6-0.7-1.6-1.6l0,0
					C51.2,128,51.9,127.3,52.8,127.3z"/>
				<path class="st1" d="M46.2,127.3h2c0.9,0,1.6,0.7,1.6,1.6l0,0c0,0.9-0.7,1.6-1.6,1.6h-2c-0.9,0-1.6-0.7-1.6-1.6l0,0
					C44.6,128,45.3,127.3,46.2,127.3z"/>
				<path class="st1" d="M59.8,127.3h11.7c0.9,0,1.6,0.7,1.6,1.6l0,0c0,0.9-0.7,1.6-1.6,1.6H59.8c-0.9,0-1.6-0.7-1.6-1.6l0,0
					C58.2,128,58.9,127.3,59.8,127.3z"/>
				<path class="st1" d="M76.4,127.3h6.4c0.9,0,1.6,0.7,1.6,1.6l0,0c0,0.9-0.7,1.6-1.6,1.6h-6.4c-0.9,0-1.6-0.7-1.6-1.6l0,0
					C74.8,128,75.5,127.3,76.4,127.3z"/>
				<path class="st1" d="M57.6,124.9H46c-0.9,0-1.6-0.7-1.6-1.6l0,0c0-0.9,0.7-1.6,1.6-1.6h11.7c0.9,0,1.6,0.7,1.6,1.6l0,0
					C59.3,124.2,58.5,124.9,57.6,124.9z"/>
				<path class="st1" d="M41.7,124.9H30c-0.9,0-1.6-0.7-1.6-1.6l0,0c0-0.9,0.7-1.6,1.6-1.6h11.7c0.9,0,1.6,0.7,1.6,1.6l0,0
					C43.3,124.2,42.6,124.9,41.7,124.9z"/>
				<path class="st1" d="M92.8,124.9h-2c-0.9,0-1.6-0.7-1.6-1.6l0,0c0-0.9,0.7-1.6,1.6-1.6h2c0.9,0,1.6,0.7,1.6,1.6l0,0
					C94.4,124.2,93.6,124.9,92.8,124.9z"/>
				<path class="st1" d="M99.3,124.9h-2c-0.9,0-1.6-0.7-1.6-1.6l0,0c0-0.9,0.7-1.6,1.6-1.6h2c0.9,0,1.6,0.7,1.6,1.6l0,0
					C100.9,124.2,100.2,124.9,99.3,124.9z"/>
				<path class="st1" d="M85.7,124.9H74c-0.9,0-1.6-0.7-1.6-1.6l0,0c0-0.9,0.7-1.6,1.6-1.6h11.7c0.9,0,1.6,0.7,1.6,1.6l0,0
					C87.3,124.2,86.6,124.9,85.7,124.9z"/>
				<path class="st1" d="M69.1,124.9h-6.4c-0.9,0-1.6-0.7-1.6-1.6l0,0c0-0.9,0.7-1.6,1.6-1.6h6.4c0.9,0,1.6,0.7,1.6,1.6l0,0
					C70.7,124.2,70,124.9,69.1,124.9z"/>
				<path class="st1" d="M48.4,119.5H36.7c-0.9,0-1.6-0.7-1.6-1.6l0,0c0-0.9,0.7-1.6,1.6-1.6h11.7c0.9,0,1.6,0.7,1.6,1.6l0,0
					C50,118.8,49.3,119.5,48.4,119.5z"/>
				<path class="st1" d="M64.7,119.5H53c-0.9,0-1.6-0.7-1.6-1.6l0,0c0-0.9,0.7-1.6,1.6-1.6h11.7c0.9,0,1.6,0.7,1.6,1.6l0,0
					C66.3,118.8,65.5,119.5,64.7,119.5z"/>
				<path class="st1" d="M32.4,119.5h-2c-0.9,0-1.6-0.7-1.6-1.6l0,0c0-0.9,0.7-1.6,1.6-1.6h2c0.9,0,1.6,0.7,1.6,1.6l0,0
					C34,118.8,33.2,119.5,32.4,119.5z"/>
				<path class="st1" d="M88.3,119.5h-2c-0.9,0-1.6-0.7-1.6-1.6l0,0c0-0.9,0.7-1.6,1.6-1.6h2c0.9,0,1.6,0.7,1.6,1.6l0,0
					C89.9,118.8,89.2,119.5,88.3,119.5z"/>
				<path class="st1" d="M81.6,119.5H69.9c-0.9,0-1.6-0.7-1.6-1.6l0,0c0-0.9,0.7-1.6,1.6-1.6h11.7c0.9,0,1.6,0.7,1.6,1.6l0,0
					C83.2,118.8,82.4,119.5,81.6,119.5z"/>
				<path class="st1" d="M99.1,119.5h-6.4c-0.9,0-1.6-0.7-1.6-1.6l0,0c0-0.9,0.7-1.6,1.6-1.6h6.4c0.9,0,1.6,0.7,1.6,1.6l0,0
					C100.7,118.8,100,119.5,99.1,119.5z"/>
			</g>
		</g>
	</g>
	<ellipse class="st2" cx="70.6" cy="131.4" rx="9.3" ry="9.8"/>
	<circle class="st3" cx="70.5" cy="131.6" r="10"/>
	<circle class="st4" cx="70.5" cy="131.9" r="4.6"/>
	<rect x="3" y="155.8" class="st3" width="83.2" height="8.8"/>
	<polyline class="st3" points="90.9,96.9 18.8,96.9 18.8,154.9 	"/>
	<polyline class="st3" points="91.7,88.6 11.2,88.6 11.2,155.8 	"/>
	<line class="st3" x1="70.5" y1="96.5" x2="70.5" y2="121.5"/>
	<polygon id="XMLID_232_" class="st5" points="184.9,26 173,26 166.1,37.6 191.9,37.6 	"/>
	<path id="XMLID_231_" class="st5" d="M160.1,121.3c-1.4,0.7-2.6,1.6-3.7,2.7l-6.4,6.4c-3.4,3.4-7.9,5.3-12.7,5.3h-3.8
		c0.7,1.3,1.5,2.5,2.6,3.5l6.4,6.4c3.4,3.4,5.3,7.9,5.3,12.7v3.7c1.4-0.7,2.6-1.6,3.7-2.7l6.4-6.4c3.4-3.4,7.9-5.3,12.7-5.3h3.8
		c-0.6-1.2-1.5-2.3-2.5-3.3l-6.4-6.4c-3.4-3.4-5.3-7.9-5.3-12.7V121.3z"/>
	<path id="XMLID_230_" class="st5" d="M191.5,73.5c-0.7-0.2-1.5-0.3-2.2-0.3c-0.8,0-1.5,0.1-2.1,0.2v3.1c1.1-0.6,2.4-1,4.1-1
		c0.8,0,1.5,0.1,2.2,0.3V41.9h-2V73.5z"/>
	<path id="XMLID_229_" class="st5" d="M182.9,72.1V41.9h-2v27.9c-1.1-0.6-2.6-1.1-4.3-1.1c-0.3,0-0.7,0-1,0.1v2.8
		c0.9-0.3,1.8-0.5,3-0.5C180.3,71,181.7,71.4,182.9,72.1z"/>
	<polygon id="XMLID_228_" class="st5" points="180.4,19.3 177,19.3 175.6,21.7 182.4,21.7 179,16 178.7,16.4 	"/>
	<polygon id="XMLID_227_" class="st5" points="143.3,198 143.3,167.7 141.6,167.7 141.3,167.7 141.3,195.7 140.9,195.7 137.4,195.7 
		137.4,198 142.8,198 	"/>
	<polygon id="XMLID_226_" class="st5" points="127.6,129.4 127.6,125.4 125.7,125.4 125.7,127.1 125.7,128.8 97.3,128.8 97.3,130.6 
		97.3,131.1 127.6,131.1 	"/>
	<path id="XMLID_225_" class="st5" d="M131.9,57.8v15.7h12.9c3.4,0,6.6,1,9.4,2.9l3.6,2.4c0.8,0.5,1.5,0.9,2.4,1.3V41.9h-31.9
		c-7.5,0-13.7,6.1-13.7,13.7v0.1h15.2C130.9,55.7,131.9,56.7,131.9,57.8z"/>
	<path id="XMLID_223_" class="st5" d="M100.4,194.1v4.4c0.1,0.8,0.5,4.1,3.8,4.1c3.4,0,4-3.6,4.1-4.2V190c0-1.2,1-2.1,2.1-2.1
		c1.2,0,2.1,1,2.1,2.1v9.5c0.1,0.8,0.5,4.1,3.8,4.1c3.4,0,4-3.5,4.1-4.2V190c0-1.2,1-2.1,2.1-2.1c1.2,0,2.1,1,2.1,2.1v9.6
		c0,0,0,0,0,0v4.8c0.1,0.8,0.9,3.7,4.2,3.7c3.4,0,4-3.3,4.1-4v-3.8c0-0.1,0-0.1,0-0.2v-34.6c0-0.2,0-0.3,0-0.4
		c0.2-1,1.1-1.7,2.1-1.7h7.4c0.2,0,0.4,0,0.6-0.1v-5c0-3.7-1.4-7.1-4-9.7l-6.4-6.4c-1.9-1.9-3.4-4.3-4.3-6.8h-32
		c-0.5,1.7-1.2,3.2-2.2,4.7l-2.4,3.6c-1.4,2.1-2.2,4.5-2.2,7v14.8v31.5c0.1,0.8,0.5,3.3,3,3.3c2.7,0,3.2-2.7,3.3-3.3v-2.9V190
		c0-1.2,1-2.1,2.1-2.1s2.1,1,2.1,2.1V194.1z"/>
	<polygon id="XMLID_222_" class="st5" points="127.6,73.5 127.6,60 125.7,60 125.7,71.2 97.3,71.2 97.3,73.5 98.4,73.5 	"/>
	<path id="XMLID_221_" class="st5" d="M95.1,120.9h34.6c0.6,0,1.1,0.2,1.5,0.6c0.6,0.4,0.9,1,0.9,1.8v8h5.1c3.7,0,7.1-1.4,9.7-4
		l6.4-6.4c1.9-1.9,4.3-3.4,6.8-4.3v-32c-1.7-0.5-3.2-1.2-4.7-2.2l-3.6-2.4c-2.1-1.4-4.5-2.2-7-2.2h-15H98.4c-0.8,0.1-3.3,0.5-3.3,3
		c0,2.6,2.6,3.2,3.3,3.3h6.9c1.2,0,2.1,1,2.1,2.1s-1,2.1-2.1,2.1h-7.1c0,0,0,0,0,0H97c-0.8,0.1-4.1,0.5-4.1,3.8c0,3.4,3.5,4,4.2,4.1
		h8.4c1.2,0,2.1,1,2.1,2.1c0,1.2-1,2.1-2.1,2.1h-8.5c0,0,0,0,0,0c0,0,0,0,0,0h-1c-0.8,0.1-4.1,0.5-4.1,3.8c0,3.4,3.5,4,4.2,4.1h9.4
		c1.2,0,2.1,1,2.1,2.1s-1,2.1-2.1,2.1h-9.6c0,0,0,0,0,0c0,0,0,0,0,0H91c-0.8,0.1-3.7,0.9-3.7,4.2c0,3.4,3.3,4,4,4.1h2.9
		C94.5,121,94.8,120.9,95.1,120.9z"/>
	<polygon id="XMLID_220_" class="st5" points="166,115.6 170.2,115.6 170.2,85.3 168.3,85.3 168.3,113.3 164.5,113.3 164.5,115.6 	
		"/>
	<path id="XMLID_103_" class="st5" d="M317.1,166.6c0.4,0.8,0.6,1.8,0.6,2.8c0,3.5-2.9,6.4-6.4,6.4c-1.4,0-2.7-0.5-3.8-1.3
		c1,2.1,3.2,3.6,5.7,3.6c3.5,0,6.4-2.9,6.4-6.4C319.7,169.6,318.6,167.7,317.1,166.6z"/>
	<polyline id="XMLID_84_" class="st5" points="60.3,161 53.4,161 53.4,163.4 62.3,163.4 	"/>
	<path id="XMLID_105_" class="st5" d="M242,231.7c0.4,0.8,0.6,1.8,0.6,2.8c0,3.5-2.9,6.4-6.4,6.4c-1.4,0-2.7-0.5-3.8-1.3
		c1,2.1,3.2,3.6,5.7,3.6c3.5,0,6.4-2.9,6.4-6.4C244.6,234.7,243.6,232.8,242,231.7z"/>
	<path id="XMLID_106_" class="st5" d="M170.2,79.2c0-0.1,0-0.1,0-0.2c0.1-1,0.4-2.3,1.1-3.6V41.9h-2v31.2c-0.7,1.3-1,2.6-1.1,3.6
		c0,0.1,0,0.1,0,0.2v1.7h-3.8V81c0.1,0,0.2,0,0.4,0h5.4V79.2z"/>
	<path id="XMLID_107_" class="st5" d="M253.5,37.4c0,3.1-2.5,5.6-5.6,5.6c-1.2,0-2.3-0.4-3.2-1c0.9,2,2.8,3.3,5.1,3.3
		c3.1,0,5.6-2.5,5.6-5.6c0-1.9-1-3.6-2.4-4.6C253.3,35.8,253.5,36.6,253.5,37.4z"/>
	<polygon id="XMLID_108_" class="st5" points="210.4,152.8 210.4,152.4 208.4,152.4 208.4,155.5 180.1,155.5 180.1,157.9 
		210.4,157.9 	"/>
	<path id="XMLID_112_" class="st5" d="M187.2,83.7c0,0.1,0,0.2,0,0.2c0,0,0,0,0,0v9.4c0,1.2-1,2.1-2.1,2.1s-2.1-1-2.1-2.1V79
		c-0.1-0.8-0.9-3.7-4.2-3.7c-1.6,0-2.6,0.7-3.2,1.6c-0.1,0.2-0.2,0.3-0.3,0.4c-0.5,0.8-0.6,1.7-0.6,2v3.8v34.6v0.2
		c0,1.2-1,2.1-2.1,2.1h-8v5.1c0,3.7,1.4,7.1,4,9.7l6.4,6.4c1.9,1.9,3.4,4.3,4.3,6.8h32c0.5-1.7,1.2-3.2,2.2-4.7l2.4-3.6
		c1.4-2.1,2.2-4.5,2.2-7v-15V86.4c-0.1-0.8-0.5-3.3-3-3.3c-2.7,0-3.2,2.7-3.3,3.3v7c0,1.2-1,2.1-2.1,2.1s-2.1-1-2.1-2.1V85
		c-0.1-0.8-0.5-4.1-3.8-4.1c-3.4,0-4,3.5-4.1,4.2v8.4c0,1.2-1,2.1-2.1,2.1c-1.2,0-2.1-1-2.1-2.1v-8.5c0,0,0,0,0,0v-1
		c0-0.5-0.2-1.9-1.1-2.9c0,0,0,0,0,0c-0.6-0.7-1.4-1.2-2.7-1.2C188.2,79.8,187.4,82.7,187.2,83.7z"/>
	<path id="XMLID_113_" class="st5" d="M235.6,105.6c5.1-5.2,11.6-8.4,18.7-9.2V85.3h-2v8.9c-7.1,0.8-13.7,4-18.7,9.2
		c-2.9,2.9-5.1,6.3-6.6,10h-4.9v2.3h6.9C230.5,111.9,232.7,108.6,235.6,105.6z"/>
	<polygon id="XMLID_114_" class="st5" points="83.6,194.8 83.6,195.7 53.3,195.7 53.3,198 85.5,198 85.5,197.1 85.5,167.7 
		83.6,167.7 	"/>
	<path id="XMLID_115_" class="st5" d="M254.1,161.4l0.5,2.3h6.9l4.9-25.2c-0.4,0.1-0.9,0.1-1.4,0.1c-0.3,0-0.7,0-1-0.1l-4.4,22.8
		H254.1z"/>
	<path id="XMLID_116_" class="st5" d="M185.4,228.3c-1.8-1.7-3.5-3.2-5.3-4.6v0.9c2.4,1.7,4.9,3.7,7.3,6c1.8,1.7,3.4,3.5,4.8,5.1
		C190.4,233.6,188.1,231,185.4,228.3z"/>
	<path id="XMLID_119_" class="st5" d="M277.2,108.6c-5.2-5.2-12-8-19.2-8c-0.2,0-0.3,0-0.5,0c-7.1,0.1-13.8,3-18.8,8.1
		c-2.8,2.8-4.9,6.2-6.2,9.9c0,0,0,0.1,0,0.1c-1,2.9-1.5,5.9-1.5,9.1c0,6.6,2.4,13,6.8,17.9c4.5,5.1,7.2,11.5,7.7,18.1h4.9l-5.5-28.3
		c0-0.1,0-0.2,0-0.3c0,0,0,0,0-0.1c0-0.1,0-0.2,0-0.4c0,0,0,0,0,0c0-0.1,0.1-0.2,0.1-0.4c0,0,0,0,0-0.1c0-0.1,0.1-0.2,0.2-0.3
		c0,0,0,0,0-0.1c0.1-0.1,0.1-0.2,0.2-0.3c0,0,0,0,0,0c0,0,0,0,0,0c0.1-0.1,0.2-0.2,0.3-0.3c0,0,0,0,0,0c0.1-0.1,0.2-0.1,0.3-0.2
		c0,0,0,0,0,0c0.1,0,0.2-0.1,0.3-0.1c0,0,0,0,0.1,0c0,0,0,0,0,0c0.1,0,0.2,0,0.3,0c0,0,0,0,0.1,0c0.1,0,0.2,0,0.4,0c0,0,0,0,0,0
		c0.1,0,0.2,0.1,0.4,0.1c0,0,0,0,0,0c0.1,0,0.2,0.1,0.3,0.2c0,0,0,0,0,0c0.1,0.1,0.2,0.1,0.3,0.2c0,0,0,0,0,0
		c0.9,0.9,2.7,1.2,4.3,0.7c0.8-0.2,2.8-1,3.4-3.2c0,0,0,0,0,0c0-0.1,0-0.1,0.1-0.2c0,0,0,0,0,0c0,0,0-0.1,0-0.1
		c0.1-0.2,0.2-0.4,0.4-0.6c0,0,0,0,0,0c0,0,0.1-0.1,0.1-0.1c0,0,0,0,0.1-0.1c0,0,0,0,0.1,0c0,0,0.1-0.1,0.1-0.1c0,0,0,0,0,0
		c0.1-0.1,0.3-0.2,0.5-0.2c0,0,0.1,0,0.1,0c0,0,0,0,0.1,0c0.1,0,0.1,0,0.2,0c0,0,0,0,0,0c0,0,0,0,0.1,0c0,0,0.1,0,0.1,0
		c0,0,0.1,0,0.1,0c0,0,0.1,0,0.1,0c0,0,0.1,0,0.1,0c0,0,0.1,0,0.1,0c0.1,0,0.1,0,0.2,0c0,0,0,0,0.1,0c0.1,0,0.1,0,0.2,0c0,0,0,0,0,0
		c0,0,0,0,0,0c0.1,0,0.1,0,0.2,0.1c0,0,0,0,0,0c0,0,0.1,0,0.1,0.1c0.1,0.1,0.3,0.1,0.4,0.2c0,0,0,0,0,0c0,0,0.1,0.1,0.1,0.1
		c0,0,0,0,0.1,0c0,0,0,0,0.1,0.1c0,0,0.1,0.1,0.1,0.1c0,0,0,0,0,0c0,0,0.1,0.1,0.1,0.1c0,0,0,0,0,0c0.1,0.1,0.2,0.3,0.2,0.4
		c0,0,0,0.1,0,0.1c0,0,0,0,0,0c0,0.1,0,0.1,0,0.2c0,0,0,0,0,0c0.5,2,2.3,2.8,3.1,3.1c1.7,0.5,3.6,0.3,4.5-0.7c0,0,0,0,0,0
		c0.1-0.1,0.2-0.2,0.3-0.2c0,0,0,0,0,0c0.1-0.1,0.2-0.1,0.3-0.2c0,0,0,0,0,0c0.1,0,0.2-0.1,0.4-0.1c0,0,0,0,0,0c0.1,0,0.2,0,0.4,0
		c0,0,0,0,0.1,0c0.1,0,0.2,0,0.3,0c0,0,0,0,0,0c0,0,0,0,0.1,0c0.1,0,0.2,0.1,0.3,0.1c0,0,0,0,0,0c0.1,0.1,0.2,0.1,0.3,0.2
		c0,0,0,0,0,0c0.1,0.1,0.2,0.2,0.3,0.3c0,0,0,0,0,0c0,0,0,0,0,0c0.1,0.1,0.2,0.2,0.2,0.3c0,0,0,0,0,0.1c0.1,0.1,0.1,0.2,0.2,0.3
		c0,0,0,0,0,0.1c0,0.1,0.1,0.2,0.1,0.4c0,0,0,0,0,0c0,0.1,0,0.2,0,0.4c0,0,0,0,0,0.1c0,0.1,0,0.2,0,0.3l-5.5,28.3h4.8
		c0.5-6.7,3.1-13.1,7.6-18c4.3-4.8,6.7-11,6.9-17.4C285.3,120.9,282.5,113.9,277.2,108.6z M244.9,115c-2.9,2.9-4.7,6.8-5.1,10.9
		c-0.1,1.1-1,1.9-2.1,1.9c-0.1,0-0.1,0-0.2,0c-1.2-0.1-2-1.2-1.9-2.3c0.5-5.1,2.7-9.9,6.4-13.5c0.8-0.8,2.2-0.8,3,0
		C245.7,112.8,245.7,114.2,244.9,115z M278.4,128c-1.2,0-2.1-1-2.1-2.1c0-9.7-7.9-17.7-17.7-17.7c-1.2,0-2.1-1-2.1-2.1
		s1-2.1,2.1-2.1c12.1,0,22,9.8,22,22C280.6,127.1,279.6,128,278.4,128z"/>
	<path id="XMLID_123_" class="st5" d="M161.5,222.4c-15.3,0-28.5,17.1-31.8,21.8c3.3,4.7,16.5,21.8,31.8,21.8
		c15.3,0,28.5-17.1,31.8-21.8C190,239.5,176.8,222.4,161.5,222.4z M180.3,244.2c0,10.3-8.4,18.8-18.8,18.8
		c-10.3,0-18.8-8.4-18.8-18.8s8.4-18.8,18.8-18.8c9.2,0,16.9,6.7,18.5,15.5c0,0.1,0,0.2,0,0.3c0.2,0.9,0.2,1.9,0.2,2.9
		C180.3,244.1,180.3,244.1,180.3,244.2C180.3,244.1,180.3,244.1,180.3,244.2C180.3,244.2,180.3,244.2,180.3,244.2z"/>
	<path id="XMLID_124_" class="st5" d="M209.3,209.7h-0.9v29.9h-13.2c0.7,1,1.3,1.8,1.7,2.3h13.4v-32.2L209.3,209.7
		C209.3,209.7,209.3,209.7,209.3,209.7z"/>
	<path id="XMLID_125_" class="st5" d="M244.7,180.5v-5.3h-1.3c-1.1,0-2.1-0.9-2.2-2c0-0.1,0-0.1,0-0.2v-7.1c0-6.4-2.4-12.6-6.7-17.4
		c-5.1-5.7-7.8-13.1-7.8-20.8c0-2.6,0.3-5.3,1-7.8h-5.4v12.9c0,3.4-1,6.6-2.9,9.4l-2.4,3.6c-1.4,2.1-2.2,4.5-2.2,7v5h1.7
		c0.1,0,0.1,0,0.2,0c2.8,0.2,8,2.3,8,8.3c0,4.8-3.2,7.2-5.8,8.1c0.8,1.2,1.3,2.7,1.3,4.6c0,2.8-1.2,5-3.4,6.5
		c1.3,1.3,2.3,3.2,2.3,5.8c0,1.4-0.3,2.7-0.9,3.8h25.3c6.8,0,12.3-5.5,12.4-12.3h-9C245.6,182.6,244.7,181.6,244.7,180.5z"/>
	<path id="XMLID_126_" class="st5" d="M159.6,256.3c-3.9,0-7.5-1.6-10.1-4.1c2.6,3.9,7,6.4,12,6.4c7.2,0,13.2-5.3,14.3-12.3h-2.5
		C171.4,252.1,166,256.3,159.6,256.3z"/>
	<path id="XMLID_127_" class="st5" d="M220.3,166.2c0-3.4-3.3-4-4-4.1h-2.6c-0.3,0.2-0.8,0.4-1.2,0.4h-34.6c-0.8,0-1.6-0.5-1.9-1.2
		c-0.3-0.4-0.5-0.8-0.5-1.3v-8h-5.1c-3.7,0-7.1,1.4-9.7,4l-6.4,6.4c-1.9,1.9-4.3,3.4-6.8,4.3v32c1.7,0.5,3.2,1.2,4.7,2.2l3.6,2.4
		c2.1,1.4,4.5,2.2,7,2.2h15c0,0,0,0,0,0h31.3c0.8-0.1,3.3-0.5,3.3-3c0-2.7-2.7-3.2-3.3-3.3h-3.3h-3.7c-1.2,0-2.1-1-2.1-2.1
		c0-1.2,1-2.1,2.1-2.1h3.7h3.4c0,0,0,0,0,0h1.4c0.8-0.1,4.1-0.5,4.1-3.8c0-3.4-3.6-4-4.2-4.1h-8.4c-1.2,0-2.1-1-2.1-2.1
		c0-1.2,1-2.1,2.1-2.1h8.5c0,0,0,0,0,0h1c0.8-0.1,4.1-0.5,4.1-3.8c0-3.4-3.5-4-4.2-4.1h-9.4c-1.2,0-2.1-1-2.1-2.1
		c0-1.2,1-2.1,2.1-2.1h9.6c0,0,0,0,0,0h4.8C217.4,170.3,220.3,169.6,220.3,166.2z"/>
	<polygon id="XMLID_128_" class="st5" points="263.3,168 263.3,168 252.8,168 252.8,168 252.8,168 245.4,168 245.4,170.8 
		270.6,170.8 270.6,168 263.3,168 	"/>
	<path id="XMLID_129_" class="st5" d="M135.7,230.7c8.5-8.2,17.5-12.6,25.8-12.6c4.6,0,9.4,1.3,14.2,3.9v-12.3h-12.9
		c-3.4,0-6.6-1-9.4-2.9l-3.6-2.4c-2.1-1.4-4.5-2.2-7-2.2h-5.4v1.9c0,0.1,0,0.1,0,0.2c-0.2,2.8-2.3,8-8.3,8c-4.8,0-7.2-3.2-8.1-5.8
		c-1.2,0.8-2.7,1.3-4.6,1.3c-2.8,0-5-1.2-6.5-3.4c-1.3,1.3-3.2,2.3-5.8,2.3c-1.4,0-2.7-0.3-3.8-0.9v21.8c0,7.8,6.4,14.2,14.2,14.2
		H126C127.4,240.1,130.8,235.4,135.7,230.7z"/>
	<path id="XMLID_130_" class="st5" d="M173.8,239.3v0.4H170c0.4,0.7,0.7,1.5,0.9,2.3h4.9v-0.4c-0.5-3-2-5.7-4.2-7.8
		C172.7,235.5,173.4,237.3,173.8,239.3z"/>
	<path id="XMLID_131_" class="st5" d="M166.8,244.2c0-2.9-2.4-5.3-5.3-5.3c-2.9,0-5.3,2.4-5.3,5.3s2.4,5.3,5.3,5.3
		C164.4,249.5,166.8,247.1,166.8,244.2z"/>
	<path id="XMLID_132_" class="st5" d="M159.6,232.3c-4.5,0-8.3,3.2-9.3,7.4h-2.5c-0.2,0.8-0.4,1.5-0.6,2.3h5c1-4.2,4.8-7.4,9.3-7.4
		c2.4,0,4.6,0.9,6.3,2.4C166.1,234.2,163.1,232.3,159.6,232.3z"/>
	<path id="XMLID_133_" class="st5" d="M153.3,249.1c-0.5-0.8-0.9-1.7-1.1-2.7h-1.1C151.7,247.4,152.5,248.3,153.3,249.1z"/>
	<path id="XMLID_134_" class="st4" d="M180.9,69.8V41.9h-5.3v26.9c0.3,0,0.7-0.1,1-0.1C178.4,68.7,179.8,69.1,180.9,69.8z"/>
	<polygon id="XMLID_135_" class="st1" points="141.3,195.7 141.3,167.7 137.4,167.7 137.4,195.7 140.9,195.7 	"/>
	<path id="XMLID_136_" class="st4" d="M168.3,76.9c0-0.1,0-0.1,0-0.2c0.1-1,0.4-2.3,1.1-3.6V41.9h-4.6c-0.1,0-0.2,0-0.3,0v36.7h3.8
		V76.9z"/>
	<polygon id="XMLID_137_" class="st4" points="208.4,152.4 180.1,152.4 180.1,154 180.1,155.5 208.4,155.5 	"/>
	<rect id="XMLID_138_" x="97.3" y="60" class="st4" width="28.4" height="11.2"/>
	<polygon id="XMLID_139_" class="st1" points="168.3,85.3 164.8,85.3 164.5,85.3 164.5,113.3 168.3,113.3 	"/>
	<polygon id="XMLID_140_" class="st4" points="178.7,16.4 177,19.3 180.4,19.3 	"/>
	<path id="XMLID_141_" class="st1" d="M242.7,234.5c0-1-0.2-1.9-0.6-2.8c-1.1-0.8-2.4-1.3-3.8-1.3c-3.5,0-6.4,2.9-6.4,6.4
		c0,1,0.2,1.9,0.6,2.8c1.1,0.8,2.4,1.3,3.8,1.3C239.8,240.8,242.7,238,242.7,234.5z"/>
	<path id="XMLID_142_" class="st1" d="M317.7,169.4c0-1-0.2-1.9-0.6-2.8c-1.1-0.8-2.4-1.3-3.8-1.3c-3.5,0-6.4,2.9-6.4,6.4
		c0,1,0.2,1.9,0.6,2.8c1.1,0.8,2.4,1.3,3.8,1.3C314.9,175.8,317.7,172.9,317.7,169.4z"/>
	<path id="XMLID_143_" class="st1" d="M253.5,37.4c0-0.8-0.2-1.6-0.5-2.3c-0.9-0.6-2-1-3.2-1c-3.1,0-5.6,2.5-5.6,5.6
		c0,0.8,0.2,1.6,0.5,2.3c0.9,0.6,2,1,3.2,1C250.9,43,253.5,40.5,253.5,37.4z"/>
	<path id="XMLID_100_" class="st4" d="M191.5,73.5V41.9h-4.4v31.6c0.6-0.2,1.3-0.2,2.1-0.2C190.1,73.2,190.8,73.3,191.5,73.5z"/>
	<path id="XMLID_99_" class="st4" d="M233.7,103.3c5.1-5.2,11.6-8.4,18.7-9.2v-8.9h-30.3v1.1v26.9h4.9
		C228.6,109.6,230.8,106.2,233.7,103.3z"/>
	<path id="XMLID_98_" class="st1" d="M173.3,246.3h-2.5c-1,4.2-4.8,7.4-9.3,7.4c-3.5,0-6.5-1.9-8.2-4.7c-0.9-0.8-1.6-1.7-2.2-2.7
		h-3.9c0.3,2.1,1.1,4.1,2.3,5.9c2.6,2.5,6.2,4.1,10.1,4.1C166,256.3,171.4,252.1,173.3,246.3z"/>
	<rect id="XMLID_148_" x="249" y="175.2" class="st1" width="18.2" height="3.1"/>
	<path id="XMLID_97_" class="st4" d="M208.4,209.7h-28.4v14c1.8,1.4,3.6,2.9,5.3,4.6c2.7,2.6,5,5.3,6.7,7.4c1.2,1.4,2.3,2.8,3.2,3.9
		h13.2V209.7z"/>
	<polygon id="XMLID_96_" class="st4" points="125.7,127.1 125.7,125.4 97.3,125.4 97.3,128.8 125.7,128.8 	"/>
	<path id="XMLID_95_" class="st1" d="M258,135.8c-1.1,1.2-2.6,2-4.2,2.5c-0.9,0.3-1.8,0.4-2.7,0.4c-0.4,0-0.9,0-1.3-0.1l4.4,22.8
		h5.4l4.4-22.8c-0.7-0.1-1.3-0.2-2-0.4C260.4,137.7,259,136.9,258,135.8z"/>
	<polygon id="XMLID_94_" class="st4" points="83.6,194.8 83.6,167.7 64.4,167.7 53.3,167.7 53.3,195.7 83.6,195.7 	"/>
	<path id="XMLID_92_" class="st1" d="M173.8,239.3c-0.4-2-1.1-3.8-2.2-5.4c-2.6-2.5-6.1-4.1-10.1-4.1c-6.4,0-11.8,4.2-13.7,10h2.5
		c1-4.2,4.8-7.4,9.3-7.4c3.5,0,6.5,1.9,8.2,4.7c0.9,0.8,1.6,1.7,2.2,2.7h3.8V239.3z"/>
	<path id="XMLID_87_" class="st6" d="M180.3,244c0-1-0.1-1.9-0.2-2.9c0-0.1,0-0.2,0-0.3c-1.6-8.8-9.2-15.5-18.5-15.5
		c-10.3,0-18.8,8.4-18.8,18.8s8.4,18.8,18.8,18.8c10.3,0,18.8-8.4,18.8-18.8C180.3,244.2,180.3,244.2,180.3,244
		C180.3,244.1,180.3,244.1,180.3,244C180.3,244.1,180.3,244.1,180.3,244z M175.8,241.6v0.4h-4.9c-0.2-0.8-0.5-1.6-0.9-2.3
		c-0.6-1-1.3-1.9-2.2-2.7c-1.7-1.5-3.9-2.4-6.3-2.4c-4.5,0-8.3,3.2-9.3,7.4h-5c0.1-0.8,0.3-1.6,0.6-2.3c1.9-5.8,7.3-10,13.7-10
		c3.9,0,7.5,1.6,10.1,4.1C173.7,235.9,175.2,238.6,175.8,241.6z M156.3,244.2c0-2.9,2.4-5.3,5.3-5.3c2.9,0,5.3,2.4,5.3,5.3
		s-2.4,5.3-5.3,5.3C158.6,249.5,156.3,247.1,156.3,244.2z M161.5,258.7c-5,0-9.4-2.6-12-6.4c-1.2-1.7-1.9-3.7-2.3-5.9h3.9h1.1
		c0.2,1,0.6,1.9,1.1,2.7c1.7,2.8,4.7,4.7,8.2,4.7c4.5,0,8.3-3.2,9.3-7.4h2.5h2.5C174.8,253.3,168.8,258.7,161.5,258.7z"/>
	<path id="XMLID_21_" class="st7" d="M49.1,165c0,0.2-0.1,0.3-0.1,0.5v34.6c0,1.2,1,2.1,2.1,2.1h36.4c1.3,1.5,3.1,2.3,5.3,2.3
		c1.3,0,2.3-0.3,3.3-0.7v23.9c0,10.2,8.3,18.5,18.5,18.5H126c1.4,2,4.8,6.7,9.7,11.4c8.5,8.2,17.5,12.6,25.8,12.6
		c8.3,0,17.3-4.3,25.8-12.6c5-4.8,8.5-9.5,9.8-11.5h15.4c1.2,0,2.1-1,2.1-2.1v-36.5c0,0,0,0,0,0c1.4-1.3,2.1-3,2.1-5.1
		c0-1.3-0.3-2.3-0.7-3.3h27.4c9.2,0,16.6-7.4,16.7-16.6h9.1c1.2,0,2.1-1,2.1-2.1v-5.3h1.3c1.1,0,2.1-0.9,2.2-2c0-0.1,0-0.1,0-0.2v-7
		c0-6.5,2.3-12.7,6.6-17.4c5-5.6,7.8-12.7,8-20.2c0.2-8.6-3-16.7-9.2-22.9c-5.8-5.9-13.5-9.1-21.6-9.3V83.1c0-1.2-1-2.1-2.1-2.1H220
		c0,0,0,0,0,0c-1.3-1.4-3-2.1-5.1-2.1c-2,0-3.5,0.6-4.6,1.6c-1.4-2.5-3.8-3.9-6.8-3.9c-2.5,0-4.4,1-5.7,2.3V39.7c0,0,0,0,0,0
		c0,0,0,0,0-0.1c0-0.1,0-0.1,0-0.2c0,0,0-0.1,0-0.1c0-0.1,0-0.1,0-0.2c0,0,0,0,0-0.1c0-0.1-0.1-0.2-0.1-0.2c0,0,0,0,0,0
		c0-0.1-0.1-0.1-0.1-0.2c0,0,0,0,0,0l-16.7-27.9c-0.1-0.1-0.2-0.2-0.2-0.3c-0.3-0.4-0.8-0.6-1.3-0.7c-0.1,0-0.2,0-0.3,0
		c-0.8,0-1.5,0.4-1.8,1l-16.1,26.9h-32.8c-9.9,0-18,8.1-18,18v0.1H95.1c-1.2,0-2.1,1-2.1,2.1v17.8c0,0,0,0,0,0
		c-1.4,1.3-2.1,3-2.1,5.1c0,2,0.6,3.5,1.6,4.6c-2.5,1.4-3.9,3.8-3.9,6.8c0,2.6,1,4.4,2.3,5.8c-2.2,1.5-3.4,3.7-3.4,6.5
		c0,1.9,0.5,3.4,1.3,4.6c-2.6,0.9-5.8,3.3-5.8,8.1c0,6.1,5.2,8.1,8,8.3c0.1,0,0.1,0,0.2,0H93v5.2c0,2.5-0.7,5-2.2,7l-2.4,3.6
		c-1.9,2.8-2.9,6.1-2.9,9.4v12.7H66.6 M85.5,197.1v0.9H53.3v-2.3v-28h11.1h19.1h2V197.1z M222.1,113.3V86.4v-1.1h30.3h2v11.2
		c-7.1,0.8-13.7,4-18.7,9.2c-2.9,2.9-5.1,6.3-6.6,10h-6.9V113.3z M194,81C194,81,194,81,194,81c0.9,1,1,2.4,1.1,2.9v1c0,0,0,0,0,0
		v8.5c0,1.2,1,2.1,2.1,2.1c1.2,0,2.1-1,2.1-2.1V85c0.1-0.7,0.8-4.2,4.1-4.2c3.3,0,3.8,3.4,3.8,4.1v8.5c0,1.2,1,2.1,2.1,2.1
		s2.1-1,2.1-2.1v-7c0.1-0.6,0.6-3.3,3.3-3.3c2.5,0,2.9,2.5,3,3.3v31.3v15c0,2.5-0.7,5-2.2,7l-2.4,3.6c-1,1.5-1.7,3-2.2,4.7h-32
		c-0.9-2.5-2.3-4.8-4.3-6.8l-6.4-6.4c-2.6-2.6-4-6-4-9.7v-5.1h8c1.2,0,2.1-1,2.1-2.1v-0.2V83.1v-3.8c0-0.3,0.2-1.2,0.6-2
		c0.1-0.1,0.2-0.3,0.3-0.4c0.6-0.8,1.6-1.6,3.2-1.6c3.4,0,4.1,2.9,4.2,3.7v14.4c0,1.2,1,2.1,2.1,2.1s2.1-1,2.1-2.1V84c0,0,0,0,0,0
		c0-0.1,0-0.2,0-0.2c0.2-1,1-3.9,4.1-3.9C192.6,79.8,193.4,80.3,194,81z M180.1,155.5V154v-1.7h28.4h2v0.5v5h-30.3V155.5z M164.8,81
		c-0.1,0-0.2,0-0.4,0v-2.3V41.9c0.1,0,0.2,0,0.3,0h4.6h2v33.5c-0.7,1.3-1,2.6-1.1,3.6c0,0.1,0,0.1,0,0.2V81H164.8z M164.5,85.3h0.4
		h3.5h2v30.3H166h-1.6v-2.3V85.3z M175.6,68.7V41.9h5.3h2v30.2c-1.1-0.6-2.6-1.1-4.3-1.1c-1.1,0-2.1,0.2-3,0.5V68.7z M193.5,75.8
		c-0.7-0.2-1.5-0.3-2.2-0.3c-1.6,0-3,0.4-4.1,1v-3.1V41.9h4.4h2V75.8z M182.4,21.7h-6.8l1.4-2.3l1.7-2.9L179,16L182.4,21.7z M173,26
		h11.9l6.9,11.6h-25.8L173,26z M165.4,138l6.4,6.4c1,1,1.8,2.1,2.5,3.3h-3.8c-4.8,0-9.3,1.9-12.7,5.3l-6.4,6.4
		c-1.1,1.1-2.4,2-3.7,2.7v-3.7c0-4.8-1.9-9.3-5.3-12.7l-6.4-6.4c-1.1-1.1-1.9-2.2-2.6-3.5h3.8c4.8,0,9.3-1.9,12.7-5.3l6.4-6.4
		c1.1-1.1,2.4-2,3.7-2.7v3.9C160.1,130,162,134.6,165.4,138z M114.6,55.6c0-7.5,6.1-13.7,13.7-13.7h31.9v38.2
		c-0.8-0.3-1.6-0.7-2.4-1.3l-3.6-2.4c-2.8-1.9-6.1-2.9-9.4-2.9h-12.9V57.8c0-1.2-1-2.1-2.1-2.1h-15.2V55.6z M97.3,71.2V60h28.4h2
		v13.5H98.4h-1.1V71.2z M91.3,121.1c-0.7-0.1-4-0.6-4-4.1c0-3.4,2.9-4.1,3.7-4.2h4.8c0,0,0,0,0,0c0,0,0,0,0,0h9.6
		c1.2,0,2.1-1,2.1-2.1s-1-2.1-2.1-2.1H96c-0.7-0.1-4.2-0.8-4.2-4.1c0-3.3,3.4-3.8,4.1-3.8h1c0,0,0,0,0,0c0,0,0,0,0,0h8.5
		c1.2,0,2.1-1,2.1-2.1c0-1.2-1-2.1-2.1-2.1H97c-0.7-0.1-4.2-0.8-4.2-4.1c0-3.3,3.4-3.8,4.1-3.8h1.4c0,0,0,0,0,0h7.1
		c1.2,0,2.1-1,2.1-2.1s-1-2.1-2.1-2.1h-6.9c-0.7-0.1-3.3-0.6-3.3-3.3c0-2.5,2.5-2.9,3.3-3h31.3h15c2.5,0,5,0.7,7,2.2l3.6,2.4
		c1.5,1,3,1.7,4.7,2.2v32c-2.5,0.9-4.8,2.3-6.8,4.3l-6.4,6.4c-2.6,2.6-6,4-9.7,4h-5.1v-8c0-0.7-0.4-1.4-0.9-1.8
		c-0.4-0.4-0.9-0.6-1.5-0.6H95.1c-0.3,0-0.6,0.1-0.9,0.2H91.3z M97.3,130.6v-1.9v-3.3h28.4h2v4v1.7H97.3V130.6z M98.2,187.9
		c-1.2,0-2.1,1-2.1,2.1v4.1v2.9c-0.1,0.6-0.6,3.3-3.3,3.3c-2.5,0-2.9-2.5-3-3.3v-31.5v-14.8c0-2.5,0.7-5,2.2-7l2.4-3.6
		c1-1.5,1.7-3,2.2-4.7h32c0.9,2.5,2.3,4.8,4.3,6.8l6.4,6.4c2.6,2.6,4,6,4,9.7v5c-0.2,0-0.4,0-0.6,0.1h-7.4c-1,0-1.9,0.8-2.1,1.7
		c0,0.1,0,0.3,0,0.4v34.6c0,0.1,0,0.1,0,0.2v3.8c-0.1,0.7-0.6,4-4.1,4c-3.4,0-4.1-2.9-4.2-3.7v-4.8c0,0,0,0,0,0V190
		c0-1.2-1-2.1-2.1-2.1c-1.2,0-2.1,1-2.1,2.1v9.4c-0.1,0.7-0.8,4.2-4.1,4.2c-3.3,0-3.8-3.4-3.8-4.1V190c0-1.2-1-2.1-2.1-2.1
		c-1.2,0-2.1,1-2.1,2.1v8.4c-0.1,0.6-0.7,4.2-4.1,4.2c-3.3,0-3.8-3.4-3.8-4.1v-4.4V190C100.4,188.9,99.4,187.9,98.2,187.9z
		 M137.4,195.7v-28h3.9h0.3h1.7V198h-0.5h-5.4V195.7z M114.6,242c-7.8,0-14.2-6.4-14.2-14.2V206c1.1,0.6,2.4,0.9,3.8,0.9
		c2.6,0,4.4-1,5.8-2.3c1.5,2.2,3.7,3.4,6.5,3.4c1.9,0,3.4-0.5,4.6-1.3c0.9,2.6,3.3,5.8,8.1,5.8c6.1,0,8.1-5.2,8.3-8
		c0-0.1,0-0.1,0-0.2v-1.9h5.4c2.5,0,5,0.7,7,2.2l3.6,2.4c2.8,1.9,6.1,2.9,9.4,2.9h12.9V222c-4.8-2.6-9.6-3.9-14.2-3.9
		c-8.3,0-17.3,4.3-25.8,12.6c-4.9,4.7-8.3,9.4-9.7,11.4H114.6z M161.5,266c-15.3,0-28.5-17.1-31.8-21.8c3.3-4.7,16.5-21.8,31.8-21.8
		c15.3,0,28.5,17.1,31.8,21.8C190,248.9,176.8,266,161.5,266z M210.4,242H197c-0.4-0.6-1-1.4-1.7-2.3c-0.9-1.1-1.9-2.4-3.2-3.9
		c-1.4-1.6-3-3.3-4.8-5.1c-2.4-2.3-4.8-4.3-7.3-6v-0.9v-14h28.4h0.9c0,0,0,0,0,0h1.1V242z M211.8,170.4
		C211.8,170.4,211.8,170.4,211.8,170.4h-9.6c-1.2,0-2.1,1-2.1,2.1c0,1.2,1,2.1,2.1,2.1h9.4c0.7,0.1,4.2,0.8,4.2,4.1
		c0,3.3-3.4,3.8-4.1,3.8h-1c0,0,0,0,0,0h-8.5c-1.2,0-2.1,1-2.1,2.1c0,1.2,1,2.1,2.1,2.1h8.4c0.6,0.1,4.2,0.7,4.2,4.1
		c0,3.3-3.4,3.8-4.1,3.8h-1.4c0,0,0,0,0,0h-3.4h-3.7c-1.2,0-2.1,1-2.1,2.1c0,1.2,1,2.1,2.1,2.1h3.7h3.3c0.6,0.1,3.3,0.6,3.3,3.3
		c0,2.5-2.4,2.9-3.3,3h-31.3c0,0,0,0,0,0h-15c-2.5,0-5-0.7-7-2.2l-3.6-2.4c-1.5-1-3-1.7-4.7-2.2v-32c2.5-0.9,4.8-2.3,6.8-4.3
		l6.4-6.4c2.6-2.6,6-4,9.7-4h5.1v8c0,0.5,0.2,1,0.5,1.3c0.4,0.7,1.1,1.2,1.9,1.2h34.6c0.5,0,0.9-0.1,1.2-0.4h2.6
		c0.7,0.1,4,0.6,4,4.1c0,3.4-2.9,4.1-3.7,4.2H211.8z M243.5,194.9h-25.3c0.6-1.1,0.9-2.4,0.9-3.8c0-2.6-1-4.4-2.3-5.8
		c2.2-1.5,3.4-3.7,3.4-6.5c0-1.9-0.5-3.4-1.3-4.6c2.6-0.9,5.8-3.3,5.8-8.1c0-6.1-5.2-8.1-8-8.3c-0.1,0-0.1,0-0.2,0h-1.7v-5
		c0-2.5,0.7-5,2.2-7l2.4-3.6c1.9-2.8,2.9-6.1,2.9-9.4v-12.9h5.4c-0.6,2.5-1,5.1-1,7.8c0,7.7,2.8,15,7.8,20.8
		c4.3,4.9,6.7,11.1,6.7,17.4v7.1c0,0.1,0,0.1,0,0.2c0.1,1.1,1.1,2,2.2,2h1.3v5.3c0,1.2,1,2.1,2.1,2.1h9
		C255.8,189.4,250.3,194.9,243.5,194.9z M267.1,178.3H249v-3.1h18.2V178.3z M270.6,170.8h-25.2V168h7.4c0,0,0,0,0,0c0,0,0,0,0,0
		h10.5c0,0,0,0,0,0c0,0,0,0,0,0h7.3V170.8z M265,138.6c0.5,0,0.9,0,1.4-0.1l-4.9,25.2h-6.9l-0.5-2.3l-4.4-22.8
		c0.4,0.1,0.9,0.1,1.3,0.1c0.9,0,1.8-0.1,2.7-0.4c1.7-0.5,3.1-1.4,4.2-2.5c1,1.1,2.4,1.9,4,2.4c0.6,0.2,1.3,0.3,2,0.4
		C264.3,138.6,264.7,138.6,265,138.6z M278.3,145.7c-4.4,5-7.1,11.3-7.6,18h-4.8l5.5-28.3c0-0.1,0-0.2,0-0.3c0,0,0,0,0-0.1
		c0-0.1,0-0.2,0-0.4c0,0,0,0,0,0c0-0.1-0.1-0.2-0.1-0.4c0,0,0,0,0-0.1c0-0.1-0.1-0.2-0.2-0.3c0,0,0,0,0-0.1
		c-0.1-0.1-0.1-0.2-0.2-0.3c0,0,0,0,0,0c0,0,0,0,0,0c-0.1-0.1-0.2-0.2-0.3-0.3c0,0,0,0,0,0c-0.1-0.1-0.2-0.1-0.3-0.2c0,0,0,0,0,0
		c-0.1,0-0.2-0.1-0.3-0.1c0,0,0,0-0.1,0c0,0,0,0,0,0c-0.1,0-0.2,0-0.3,0c0,0,0,0-0.1,0c-0.1,0-0.2,0-0.4,0c0,0,0,0,0,0
		c-0.1,0-0.2,0.1-0.4,0.1c0,0,0,0,0,0c-0.1,0-0.2,0.1-0.3,0.2c0,0,0,0,0,0c-0.1,0.1-0.2,0.2-0.3,0.2c0,0,0,0,0,0
		c-1,0.9-2.8,1.2-4.5,0.7c-0.8-0.2-2.7-1-3.1-3.1c0,0,0,0,0,0c0-0.1,0-0.1,0-0.2c0,0,0,0,0,0c0,0,0-0.1,0-0.1
		c-0.1-0.2-0.1-0.3-0.2-0.4c0,0,0,0,0,0c0,0-0.1-0.1-0.1-0.1c0,0,0,0,0,0c0,0,0-0.1-0.1-0.1c0,0,0-0.1-0.1-0.1c0,0,0,0-0.1,0
		c0,0-0.1-0.1-0.1-0.1c0,0,0,0,0,0c-0.1-0.1-0.3-0.2-0.4-0.2c0,0-0.1,0-0.1-0.1c0,0,0,0,0,0c-0.1,0-0.1,0-0.2-0.1c0,0,0,0,0,0
		c0,0,0,0,0,0c-0.1,0-0.1,0-0.2,0c0,0,0,0-0.1,0c-0.1,0-0.1,0-0.2,0c0,0-0.1,0-0.1,0c0,0-0.1,0-0.1,0c0,0-0.1,0-0.1,0
		c0,0-0.1,0-0.1,0c-0.1,0-0.1,0-0.1,0c0,0,0,0-0.1,0c0,0,0,0,0,0c-0.1,0-0.1,0-0.2,0c0,0,0,0-0.1,0c0,0-0.1,0-0.1,0
		c-0.2,0.1-0.3,0.1-0.5,0.2c0,0,0,0,0,0c0,0-0.1,0.1-0.1,0.1c0,0,0,0-0.1,0c0,0,0,0-0.1,0.1c0,0-0.1,0.1-0.1,0.1c0,0,0,0,0,0
		c-0.1,0.2-0.3,0.4-0.4,0.6c0,0,0,0.1,0,0.1c0,0,0,0,0,0c0,0.1,0,0.1-0.1,0.2c0,0,0,0,0,0c-0.6,2.2-2.6,3-3.4,3.2
		c-1.6,0.5-3.3,0.2-4.3-0.7c0,0,0,0,0,0c-0.1-0.1-0.2-0.2-0.3-0.2c0,0,0,0,0,0c-0.1-0.1-0.2-0.1-0.3-0.2c0,0,0,0,0,0
		c-0.1,0-0.2-0.1-0.4-0.1c0,0,0,0,0,0c-0.1,0-0.2,0-0.4,0c0,0,0,0-0.1,0c-0.1,0-0.2,0-0.3,0c0,0,0,0,0,0c0,0,0,0-0.1,0
		c-0.1,0-0.2,0.1-0.3,0.1c0,0,0,0,0,0c-0.1,0.1-0.2,0.1-0.3,0.2c0,0,0,0,0,0c-0.1,0.1-0.2,0.2-0.3,0.3c0,0,0,0,0,0c0,0,0,0,0,0
		c-0.1,0.1-0.2,0.2-0.2,0.3c0,0,0,0,0,0.1c-0.1,0.1-0.1,0.2-0.2,0.3c0,0,0,0,0,0.1c0,0.1-0.1,0.2-0.1,0.4c0,0,0,0,0,0
		c0,0.1,0,0.2,0,0.4c0,0,0,0,0,0.1c0,0.1,0,0.2,0,0.3l5.5,28.3h-4.9c-0.5-6.6-3.2-13-7.7-18.1c-4.4-4.9-6.8-11.3-6.8-17.9
		c0-3.1,0.5-6.2,1.5-9.1c0,0,0-0.1,0-0.1c1.3-3.7,3.4-7,6.2-9.9c5-5.1,11.7-8,18.8-8.1c0.2,0,0.3,0,0.5,0c7.2,0,14,2.8,19.2,8
		c5.3,5.3,8.1,12.3,7.9,19.7C285,134.7,282.5,140.9,278.3,145.7z"/>
	<path id="XMLID_192_" class="st6" d="M258.6,103.9c-1.2,0-2.1,1-2.1,2.1s1,2.1,2.1,2.1c9.7,0,17.7,7.9,17.7,17.7
		c0,1.2,1,2.1,2.1,2.1c1.2,0,2.1-1,2.1-2.1C280.6,113.8,270.7,103.9,258.6,103.9z"/>
	<path id="XMLID_193_" class="st6" d="M241.9,111.9c-3.6,3.6-5.9,8.4-6.4,13.5c-0.1,1.2,0.8,2.2,1.9,2.3c0.1,0,0.1,0,0.2,0
		c1.1,0,2-0.8,2.1-1.9c0.4-4.1,2.2-8,5.1-10.9c0.8-0.8,0.8-2.2,0-3C244.1,111.1,242.7,111.1,241.9,111.9z"/>
	<path id="XMLID_194_" class="st6" d="M217.8,50.2v5.5h-5.5c-1.2,0-2.1,1-2.1,2.1s1,2.1,2.1,2.1h5.5v5.5c0,1.2,1,2.1,2.1,2.1
		s2.1-1,2.1-2.1V60h5.5c1.2,0,2.1-1,2.1-2.1s-1-2.1-2.1-2.1h-5.5v-5.5c0-1.2-1-2.1-2.1-2.1S217.8,49,217.8,50.2z"/>
	<path id="XMLID_195_" class="st7" d="M87.5,33.4h3.3v3.3c0,1.2,1,2.1,2.1,2.1c1.2,0,2.1-1,2.1-2.1v-3.3h3.3c1.2,0,2.1-1,2.1-2.1
		c0-1.2-1-2.1-2.1-2.1h-3.3v-3.3c0-1.2-1-2.1-2.1-2.1c-1.2,0-2.1,1-2.1,2.1v3.3h-3.3c-1.2,0-2.1,1-2.1,2.1
		C85.4,32.4,86.3,33.4,87.5,33.4z"/>
	<path id="XMLID_196_" class="st7" d="M268.7,210.8h-3.3v-3.3c0-1.2-1-2.1-2.1-2.1s-2.1,1-2.1,2.1v3.3h-3.3c-1.2,0-2.1,1-2.1,2.1
		c0,1.2,1,2.1,2.1,2.1h3.3v3.3c0,1.2,1,2.1,2.1,2.1s2.1-1,2.1-2.1v-3.3h3.3c1.2,0,2.1-1,2.1-2.1
		C270.8,211.8,269.9,210.8,268.7,210.8z"/>
	<path id="XMLID_197_" class="st7" d="M76.8,227.3h-5.2v-5.2c0-1.2-1-2.1-2.1-2.1c-1.2,0-2.1,1-2.1,2.1v5.2h-5.2
		c-1.2,0-2.1,1-2.1,2.1c0,1.2,1,2.1,2.1,2.1h5.2v5.2c0,1.2,1,2.1,2.1,2.1c1.2,0,2.1-1,2.1-2.1v-5.2h5.2c1.2,0,2.1-1,2.1-2.1
		C78.9,228.2,78,227.3,76.8,227.3z"/>
	<path id="XMLID_200_" class="st7" d="M324,171.7c0-5.9-4.8-10.7-10.7-10.7s-10.7,4.8-10.7,10.7s4.8,10.7,10.7,10.7
		S324,177.6,324,171.7z M313.3,178.1c-2.5,0-4.7-1.5-5.7-3.6c-0.4-0.8-0.6-1.8-0.6-2.8c0-3.5,2.9-6.4,6.4-6.4c1.4,0,2.7,0.5,3.8,1.3
		c1.6,1.2,2.6,3,2.6,5.1C319.7,175.2,316.8,178.1,313.3,178.1z"/>
	<path id="XMLID_203_" class="st6" d="M238.2,226.1c-5.9,0-10.7,4.8-10.7,10.7s4.8,10.7,10.7,10.7s10.7-4.8,10.7-10.7
		S244.1,226.1,238.2,226.1z M238.2,243.2c-2.5,0-4.7-1.5-5.7-3.6c-0.4-0.8-0.6-1.8-0.6-2.8c0-3.5,2.9-6.4,6.4-6.4
		c1.4,0,2.7,0.5,3.8,1.3c1.6,1.2,2.6,3,2.6,5.1C244.6,240.3,241.8,243.2,238.2,243.2z"/>
	<path id="XMLID_206_" class="st7" d="M249.8,49.7c5.5,0,9.9-4.4,9.9-9.9c0-5.5-4.4-9.9-9.9-9.9c-5.5,0-9.9,4.4-9.9,9.9
		C239.9,45.2,244.3,49.7,249.8,49.7z M255.4,39.7c0,3.1-2.5,5.6-5.6,5.6c-2.3,0-4.2-1.4-5.1-3.3c-0.3-0.7-0.5-1.5-0.5-2.3
		c0-3.1,2.5-5.6,5.6-5.6c1.2,0,2.3,0.4,3.2,1C254.5,36.1,255.4,37.8,255.4,39.7z"/>
	<path id="XMLID_207_" class="st7" d="M264.4,73.2h9.7c1.2,0,2.1-1,2.1-2.1c0-1.2-1-2.1-2.1-2.1h-9.7c-1.2,0-2.1,1-2.1,2.1
		C262.2,72.3,263.2,73.2,264.4,73.2z"/>
	<path id="XMLID_208_" class="st7" d="M117.1,8.3h16.1c1.2,0,2.1-1,2.1-2.1s-1-2.1-2.1-2.1h-16.1c-1.2,0-2.1,1-2.1,2.1
		S115.9,8.3,117.1,8.3z"/>
	<path id="XMLID_209_" class="st7" d="M125.7,17.4c0,1.2,1,2.1,2.1,2.1h20.4c1.2,0,2.1-1,2.1-2.1c0-1.2-1-2.1-2.1-2.1h-20.4
		C126.7,15.3,125.7,16.2,125.7,17.4z"/>
	<path id="XMLID_83_" class="st7" d="M287.4,203.9h16.1c1.2,0,2.1-1,2.1-2.1c0-1.2-1-2.1-2.1-2.1h-16.1c-1.2,0-2.1,1-2.1,2.1
		C285.3,203,286.3,203.9,287.4,203.9z"/>
	<path id="XMLID_81_" class="st7" d="M296.1,213.1c0,1.2,1,2.1,2.1,2.1h20.4c1.2,0,2.1-1,2.1-2.1s-1-2.1-2.1-2.1h-20.4
		C297.1,210.9,296.1,211.9,296.1,213.1z"/>
	<path id="XMLID_210_" class="st7" d="M67.7,66.3c0-1.2-1-2.1-2.1-2.1H53.9c-1.2,0-2.1,1-2.1,2.1s1,2.1,2.1,2.1h11.6
		C66.7,68.4,67.7,67.5,67.7,66.3z"/>
	<path id="XMLID_211_" class="st7" d="M63.4,73.9c0,1.2,1,2.1,2.1,2.1h5.3c1.2,0,2.1-1,2.1-2.1s-1-2.1-2.1-2.1h-5.3
		C64.3,71.8,63.4,72.8,63.4,73.9z"/>
	<path id="XMLID_212_" class="st7" d="M61.8,39.9h5.3c1.2,0,2.1-1,2.1-2.1s-1-2.1-2.1-2.1h-5.3c-1.2,0-2.1,1-2.1,2.1
		S60.6,39.9,61.8,39.9z"/>
	<path id="XMLID_213_" class="st7" d="M273.5,85.6c0,1.2,1,2.1,2.1,2.1h5.3c1.2,0,2.1-1,2.1-2.1c0-1.2-1-2.1-2.1-2.1h-5.3
		C274.4,83.4,273.5,84.4,273.5,85.6z"/>
	<path id="XMLID_214_" class="st7" d="M109.7,259c0-1.2-1-2.1-2.1-2.1H90.7c-1.2,0-2.1,1-2.1,2.1c0,1.2,1,2.1,2.1,2.1h16.9
		C108.8,261.1,109.7,260.2,109.7,259z"/>
	<path id="XMLID_216_" class="st7" d="M212.6,258.7h-9.2c-1.2,0-2.1,1-2.1,2.1c0,1.2,1,2.1,2.1,2.1h9.2c1.2,0,2.1-1,2.1-2.1
		C214.7,259.6,213.7,258.7,212.6,258.7z"/>
	<path id="XMLID_217_" class="st7" d="M209.4,26h8.5c1.2,0,2.1-1,2.1-2.1c0-1.2-1-2.1-2.1-2.1h-8.5c-1.2,0-2.1,1-2.1,2.1
		C207.3,25,208.3,26,209.4,26z"/>
	<path id="XMLID_218_" class="st7" d="M292.5,160.6h-8.1c-1.2,0-2.1,1-2.1,2.1c0,1.2,1,2.1,2.1,2.1h8.1c1.2,0,2.1-1,2.1-2.1
		C294.6,161.6,293.7,160.6,292.5,160.6z"/>
	<path id="XMLID_219_" class="st7" d="M42.7,208.1h-7.5c-1.2,0-2.1,1-2.1,2.1c0,1.2,1,2.1,2.1,2.1h7.5c1.2,0,2.1-1,2.1-2.1
		C44.9,209.1,43.9,208.1,42.7,208.1z"/>
	<polyline class="st3" points="254.3,92.3 318.7,92.3 318.7,135.3 286.8,135.3 	"/>
	<circle class="st8" cx="319" cy="114.1" r="10"/>
	<circle class="st4" cx="319" cy="114.3" r="4.6"/>
</g>
<g>
</g>
<g>
</g>
<g>
</g>
<g>
</g>
<g>
</g>
<g>
</g>
<g>
</g>
<g>
</g>
<g>
</g>
<g>
</g>
<g>
</g>
<g>
</g>
<g>
</g>
<g>
</g>
<g>
</g>
</svg>
