<?xml version="1.0" encoding="utf-8"?>
<!-- Generator: Adobe Illustrator 23.0.3, SVG Export Plug-In . SVG Version: 6.00 Build 0)  -->
<svg version="1.1" id="Layer_1" xmlns="http://www.w3.org/2000/svg" xmlns:xlink="http://www.w3.org/1999/xlink" x="0px" y="0px"
	 viewBox="0 0 195 195" style="enable-background:new 0 0 195 195;" xml:space="preserve">
<style type="text/css">
	.st0{fill:#333333;}
	.st1{fill:#DEDEDD;}
	.st2{fill:#B2B2B2;}
	.st3{fill:#D1D1D1;}
	.st4{fill:#F2F2F2;}
	.st5{fill:#D8D8D7;}
	.st6{fill:#FFFFFF;}
</style>
<g>
	<path class="st0" d="M185.8,92.5c-0.4,0-0.8,0-1.2,0.1l-32-59.2c0.6-1.1,0.9-2.3,0.9-3.6c0-4.3-3.5-7.7-7.7-7.7
		c-2.2,0-4.2,0.9-5.6,2.4L76.4,11.8C76,8,72.7,5,68.7,5C64.5,5,61,8.5,61,12.7c0,1.3,0.3,2.5,0.9,3.6L12.2,87.6
		c-0.6-0.2-1.3-0.3-2-0.3c-4.3,0-7.7,3.5-7.7,7.7c0,4.3,3.5,7.7,7.7,7.7l0.3,0L37.3,169c-0.4,1-0.7,2.1-0.7,3.2
		c0,4.3,3.5,7.7,7.7,7.7c2.2,0,4.2-0.9,5.6-2.4l80.5,7.9c0.8,3.4,3.9,5.8,7.5,5.8c4.3,0,7.7-3.5,7.7-7.7c0-1.9-0.7-3.7-1.8-5
		l40.7-70.6c0.4,0.1,0.8,0.1,1.3,0.1c4.3,0,7.7-3.5,7.7-7.7C193.5,96,190.1,92.5,185.8,92.5z M139.6,34.6c0.9,1.2,2.2,2.1,3.6,2.6
		L131,129.3c-0.8,0.2-1.5,0.4-2.2,0.8l-67-58.2c0.2-0.6,0.3-1.3,0.3-2c0-0.5-0.1-1-0.1-1.5L139.6,34.6z M178.4,102.3l-41.2,28.3
		c-0.3-0.2-0.6-0.4-1-0.6l12.3-92.9l0.1,0L180,95.1c-1.2,1.4-1.9,3.1-1.9,5.1C178.1,101,178.2,101.7,178.4,102.3z M53.3,62.3
		c-3.7,0.6-6.6,3.8-6.6,7.6l0,0.5L19.2,86.7l42.8-61.3L53.3,62.3z M56.1,77.5c1-0.2,2-0.7,2.8-1.3l66.5,57.8
		c-0.3,0.9-0.5,1.8-0.5,2.8l0,0.4l-74.1,30.6c-1.1-1.6-2.8-2.8-4.8-3.2L56.1,77.5z M126.9,142.1c1,1.1,2.4,2,4,2.3l3.7,32.2
		c-1.6,0.8-2.8,2.1-3.6,3.6l-78.1-7.6L126.9,142.1z M136,143.8c2.6-1.3,4.3-3.9,4.3-6.9c0-0.7-0.1-1.3-0.3-2l37.7-25.9l-38.2,66.3
		L136,143.8z M138,29.6L59.3,63.9c-0.3-0.2-0.6-0.4-0.9-0.6l10-42.9l0.3,0c2.7,0,5.1-1.4,6.5-3.5L138,29.4L138,29.6z M17.9,95
		c0-0.5-0.1-1-0.1-1.5l31.1-18.3c0.6,0.6,1.3,1.2,2.1,1.6l-10.1,86.9l-25.5-62.9C16.9,99.4,17.9,97.3,17.9,95z"/>
	<path class="st1" d="M148.6,37.1L180,95.1c-1.2,1.4-1.9,3.1-1.9,5.1c0,0.7,0.1,1.4,0.3,2.1l-41.2,28.3c-0.3-0.2-0.6-0.4-1-0.6
		l12.3-92.9L148.6,37.1"/>
	<path class="st2" d="M136,143.8c2.6-1.3,4.3-3.9,4.3-6.9c0-0.7-0.1-1.3-0.3-2l37.7-25.9l-38.2,66.3L136,143.8z"/>
	<path class="st3" d="M126.9,142.1c1,1.1,2.4,2,4,2.3l3.7,32.2c-1.6,0.8-2.8,2.1-3.6,3.6l-78.1-7.6L126.9,142.1z"/>
	<path class="st4" d="M56.1,77.5c1-0.2,2-0.7,2.8-1.3l66.5,57.8c-0.3,0.9-0.5,1.8-0.5,2.8l0,0.4l-74.1,30.6
		c-1.1-1.6-2.8-2.8-4.8-3.2L56.1,77.5z"/>
	<path class="st5" d="M17.9,95c0-0.5-0.1-1-0.1-1.5l31.1-18.3c0.6,0.6,1.3,1.2,2.1,1.6l-10.1,86.9l-25.5-62.9
		C16.9,99.4,17.9,97.3,17.9,95z"/>
	<path class="st2" d="M53.3,62.3c-3.7,0.6-6.6,3.8-6.6,7.6l0,0.5L19.2,86.7l42.8-61.3L53.3,62.3z"/>
	<path class="st3" d="M138,29.6L59.3,63.9c-0.3-0.2-0.6-0.4-0.9-0.6l10-42.9l0.3,0c2.7,0,5.1-1.4,6.5-3.5L138,29.4L138,29.6z"/>
	<path class="st6" d="M139.6,34.6c0.9,1.2,2.2,2.1,3.6,2.6L131,129.3c-0.8,0.2-1.5,0.4-2.2,0.8l-67-58.2c0.2-0.6,0.3-1.3,0.3-2
		c0-0.5-0.1-1-0.1-1.5L139.6,34.6z"/>
</g>
</svg>
