<?xml version="1.0" encoding="utf-8"?>
<!-- Generator: Adobe Illustrator 23.0.3, SVG Export Plug-In . SVG Version: 6.00 Build 0)  -->
<svg version="1.1" id="Layer_1" xmlns="http://www.w3.org/2000/svg" xmlns:xlink="http://www.w3.org/1999/xlink" x="0px" y="0px"
	 viewBox="0 0 452 363" style="enable-background:new 0 0 452 363;" xml:space="preserve">
<style type="text/css">
	.st0{fill:none;stroke:#333333;stroke-width:4.2376;stroke-linejoin:round;stroke-miterlimit:10;}
	.st1{fill:none;}
	.st2{fill:#1FA2FF;}
	.st3{fill:#FFFFFF;}
	.st4{fill:#333333;}
	.st5{opacity:0.4;fill:#1FA2FF;}
	.st6{fill:#414042;}
	.st7{fill:#AFE0DC;}
	.st8{fill:#AEE0DC;}
	.st9{fill:#FFFFFF;stroke:#333333;stroke-width:4.2376;stroke-linejoin:round;stroke-miterlimit:10;}
	.st10{fill:#1FA2FF;stroke:#333333;stroke-width:4.2376;stroke-linejoin:round;stroke-miterlimit:10;}
	.st11{clip-path:url(#SVGID_2_);fill:#333333;}
	.st12{fill:#FFFFFF;stroke:#333333;stroke-width:4.2376;stroke-miterlimit:10;}
	.st13{fill:none;stroke:#333333;stroke-width:4.2376;stroke-linecap:round;stroke-linejoin:round;stroke-miterlimit:10;}
</style>
<g>
	<polyline class="st0" points="356.5,120.8 356.5,76.3 259.1,76.3 	"/>
	<polyline class="st0" points="108.6,108.1 108.6,71.4 193.4,71.4 	"/>
	<g>
		<path id="XMLID_348_" class="st1" d="M233,131.4V106h-4c-5,0-9.7-2-13.2-5.5c-3.1-3.1-5-7.1-5.4-11.5h-17.6v34.8l16.3,22.7
			c0.4,0.6,0.5,1.3,0.1,1.9c-0.3,0.6-1,1-1.7,1h-6.9l0,7.7h12.9v-6.3c0-6.4,5.2-11.6,11.6-11.6C229.5,139.3,233,135.8,233,131.4z
			 M212.1,128.9c-4.7,0-8.6-3.8-8.6-8.6c0-4.7,3.8-8.6,8.6-8.6c4.7,0,8.6,3.8,8.6,8.6C220.7,125,216.8,128.9,212.1,128.9z"/>
		<path id="XMLID_351_" class="st1" d="M317.7,133.2c-1.2,1.7-3.9,5.2-7.6,8.8c-3,2.9-6.1,5.2-9.1,6.9c-3.9,2.1-7.8,3.2-11.6,3.2
			c-3.8,0-7.7-1.1-11.6-3.2c-3-1.7-6.1-4-9.1-6.9c-3.7-3.5-6.3-7-7.6-8.8c-0.4,0-0.7,0-1,0c0,0,0,0-0.1,0c-2.9,0-5.6-1.1-7.7-3.2
			c-2.1-2.1-3.2-4.8-3.2-7.7V106h-12.6v25.4c0,6.4-5.2,11.6-11.6,11.6c-4.3,0-7.8,3.5-7.8,7.8v6.3h91c5.7,0,10.2,4.6,10.2,10.2v12.1
			h15.1v-46.3C330.8,133.2,324.9,133.2,317.7,133.2z M247.5,151.5c-4,0-7.2-3.2-7.2-7.2c0-4,3.2-7.2,7.2-7.2c4,0,7.2,3.2,7.2,7.2
			C254.7,148.3,251.5,151.5,247.5,151.5z"/>
		<path id="XMLID_354_" class="st1" d="M175.2,157.1h6.2l0-7.7h-7.1c-0.7,0-1.3-0.4-1.7-1c-0.3-0.6-0.3-1.4,0.1-1.9l16.3-22.7V89h-1
			c-1.2,0.2-2.4,0.3-3.6,0.3h-4.5v19.5c0,8.8-7.1,15.9-15.9,15.9h-15.2v73h16.2v-30.4C164.9,161.7,169.5,157.1,175.2,157.1z
			 M159.9,148.8c-2.5,0-4.4-2-4.4-4.4c0-2.5,2-4.4,4.4-4.4c2.5,0,4.4,2,4.4,4.4C164.3,146.8,162.3,148.8,159.9,148.8z"/>
		<path id="XMLID_355_" class="st1" d="M154.7,258.6V252c0-1,0.8-1.9,1.9-1.9h8.3v-20.9c-1.6-0.6-3.3-0.9-5.1-0.9
			c-8,0-14.5,6.5-14.5,14.5v22H157C155.5,263.1,154.7,260.9,154.7,258.6z"/>
		<path id="XMLID_356_" class="st2" d="M188.5,268.6v31.9c0,1-0.8,1.9-1.9,1.9h-25.4l22.1,30.7l30.1-41.9h-14.1
			c-0.5,0-1-0.2-1.3-0.5c-0.3-0.4-0.5-0.8-0.5-1.3l0.1-20.8H188.5z"/>
		<path id="XMLID_359_" class="st3" d="M184.5,298.6v-30h-8.2h-32.8h-8.2v30H184.5z M159.9,274.7c2.7,0,5,2.2,5,5
			c0,2.1-1.3,3.9-3.1,4.6v6.3c0,1-0.8,1.9-1.9,1.9s-1.9-0.8-1.9-1.9v-6.3c-1.8-0.7-3.1-2.5-3.1-4.6
			C154.9,276.9,157.1,274.7,159.9,274.7z"/>
		<path id="XMLID_360_" class="st3" d="M158.6,279.6c0,0.7,0.6,1.2,1.2,1.2c0.7,0,1.2-0.6,1.2-1.2c0-0.7-0.6-1.2-1.2-1.2
			C159.2,278.4,158.6,279,158.6,279.6z"/>
		<path id="XMLID_363_" class="st4" d="M158,284.2v6.3c0,1,0.8,1.9,1.9,1.9s1.9-0.8,1.9-1.9v-6.3c1.8-0.7,3.1-2.5,3.1-4.6
			c0-2.7-2.2-5-5-5s-5,2.2-5,5C154.9,281.7,156.2,283.5,158,284.2z M161.1,279.6c0,0.7-0.6,1.2-1.2,1.2c-0.7,0-1.2-0.6-1.2-1.2
			c0-0.7,0.6-1.2,1.2-1.2C160.6,278.4,161.1,279,161.1,279.6z"/>
		<path id="XMLID_387_" class="st2" d="M308.5,160.8H175.4c-3.6,0-6.5,2.9-6.5,6.5v82.8h5.6v-79.2c0-1,0.8-1.9,1.9-1.9h130.9
			c1,0,1.9,0.8,1.9,1.9v79.2h5.8v-82.8C315.1,163.8,312.1,160.8,308.5,160.8z"/>
		<path id="XMLID_390_" class="st3" d="M178,250.2h127.2v-77.4H178V250.2z M186.1,197.9v-8.3c0-1,0.8-1.9,1.9-1.9h26.8v-6.4
			c0-1,0.8-1.9,1.9-1.9h80.1c1,0,1.9,0.8,1.9,1.9v8.3v40.2c0,1-0.8,1.9-1.9,1.9h-28.3v11.8c0,1-0.8,1.9-1.9,1.9H188
			c-1,0-1.9-0.8-1.9-1.9V197.9z"/>
		<path id="XMLID_391_" class="st2" d="M268.7,253.9v2.3c0,1-0.8,1.9-1.9,1.9h-49.9c-1,0-1.9-0.8-1.9-1.9v-2.3h-56.4v4.7
			c0,2.5,1.5,4.7,3.8,5.7c0.8,0.3,1.6,0.5,2.5,0.5h2.9h31.5H248h18.8h52c0.4,0,0.9,0,1.3-0.1c2.9-0.6,5-3.2,5-6.1v-4.7H268.7z"/>
		<rect id="XMLID_392_" x="218.5" y="254" class="st3" width="46.2" height="0.3"/>
		<path id="XMLID_393_" class="st5" d="M294.9,191.4h-26.4v4.4h20.4c1,0,1.9,0.8,1.9,1.9c0,1-0.8,1.9-1.9,1.9h-20.4v3.5h14.4
			c1,0,1.9,0.8,1.9,1.9s-0.8,1.9-1.9,1.9h-14.4v3.7h21c1,0,1.9,0.8,1.9,1.9c0,1-0.8,1.9-1.9,1.9h-21v3.8h19.8c1,0,1.9,0.8,1.9,1.9
			c0,1-0.8,1.9-1.9,1.9h-19.8v6.2h26.4V191.4z"/>
		<polygon id="XMLID_394_" class="st3" points="294.9,187.7 294.9,183.1 218.5,183.1 218.5,187.7 266.6,187.7 		"/>
		<path id="XMLID_397_" class="st3" d="M264.7,241.5v-41.7h-74.9v41.7H264.7z M198.3,223.1c0-1,0.8-1.9,1.9-1.9h20.4
			c1,0,1.9,0.8,1.9,1.9c0,1-0.8,1.9-1.9,1.9h-20.4C199.1,224.9,198.3,224.1,198.3,223.1z M246.4,237.3h-19.1c-1,0-1.9-0.8-1.9-1.9
			c0-1,0.8-1.9,1.9-1.9h19.1c1,0,1.9,0.8,1.9,1.9C248.2,236.5,247.4,237.3,246.4,237.3z M249.9,228.1c0,1-0.8,1.9-1.9,1.9h-20.7
			c-1,0-1.9-0.8-1.9-1.9s0.8-1.9,1.9-1.9H248C249.1,226.3,249.9,227.1,249.9,228.1z M227.3,205.3h15.4c1,0,1.9,0.8,1.9,1.9
			c0,1-0.8,1.9-1.9,1.9h-15.4c-1,0-1.9-0.8-1.9-1.9C225.4,206.1,226.3,205.3,227.3,205.3z M227.3,212.3h26c1,0,1.9,0.8,1.9,1.9
			c0,1-0.8,1.9-1.9,1.9h-26c-1,0-1.9-0.8-1.9-1.9C225.4,213.1,226.3,212.3,227.3,212.3z M227.3,219.3h29.9c1,0,1.9,0.8,1.9,1.9
			s-0.8,1.9-1.9,1.9h-29.9c-1,0-1.9-0.8-1.9-1.9S226.3,219.3,227.3,219.3z M210.3,205.3h10.2c1,0,1.9,0.8,1.9,1.9
			c0,1-0.8,1.9-1.9,1.9h-10.2c-1,0-1.9-0.8-1.9-1.9C208.5,206.1,209.3,205.3,210.3,205.3z M198.3,213.2h22.2c1,0,1.9,0.8,1.9,1.9
			s-0.8,1.9-1.9,1.9h-22.2c-1,0-1.9-0.8-1.9-1.9S197.3,213.2,198.3,213.2z"/>
		<path id="XMLID_407_" class="st6" d="M188,245.2h78.6c1,0,1.9-0.8,1.9-1.9v-11.8h28.3c1,0,1.9-0.8,1.9-1.9v-40.2v-8.3
			c0-1-0.8-1.9-1.9-1.9h-80.1c-1,0-1.9,0.8-1.9,1.9v6.4H188c-1,0-1.9,0.8-1.9,1.9v8.3v45.5C186.1,244.4,186.9,245.2,188,245.2z
			 M218.5,183.1h76.3v4.6h-28.3h-48.1V183.1z M268.5,221.7h19.8c1,0,1.9-0.8,1.9-1.9c0-1-0.8-1.9-1.9-1.9h-19.8v-3.8h21
			c1,0,1.9-0.8,1.9-1.9c0-1-0.8-1.9-1.9-1.9h-21v-3.7h14.4c1,0,1.9-0.8,1.9-1.9s-0.8-1.9-1.9-1.9h-14.4v-3.5h20.4
			c1,0,1.9-0.8,1.9-1.9c0-1-0.8-1.9-1.9-1.9h-20.4v-4.4h26.4v36.4h-26.4V221.7z M189.8,191.4h26.8h48.1v4.6h-74.9V191.4z
			 M264.7,199.7v41.7h-74.9v-41.7H264.7z"/>
		<polygon id="XMLID_411_" class="st5" points="264.7,196 264.7,191.4 216.7,191.4 189.8,191.4 189.8,196 		"/>
		<path id="XMLID_412_" class="st6" d="M248,226.3h-20.7c-1,0-1.9,0.8-1.9,1.9s0.8,1.9,1.9,1.9H248c1,0,1.9-0.8,1.9-1.9
			S249.1,226.3,248,226.3z"/>
		<path id="XMLID_413_" class="st6" d="M227.3,223h29.9c1,0,1.9-0.8,1.9-1.9s-0.8-1.9-1.9-1.9h-29.9c-1,0-1.9,0.8-1.9,1.9
			S226.3,223,227.3,223z"/>
		<path id="XMLID_414_" class="st6" d="M227.3,216h26c1,0,1.9-0.8,1.9-1.9c0-1-0.8-1.9-1.9-1.9h-26c-1,0-1.9,0.8-1.9,1.9
			C225.4,215.2,226.3,216,227.3,216z"/>
		<path id="XMLID_415_" class="st6" d="M227.3,209h15.4c1,0,1.9-0.8,1.9-1.9c0-1-0.8-1.9-1.9-1.9h-15.4c-1,0-1.9,0.8-1.9,1.9
			C225.4,208.1,226.3,209,227.3,209z"/>
		<path id="XMLID_416_" class="st6" d="M246.4,233.6h-19.1c-1,0-1.9,0.8-1.9,1.9c0,1,0.8,1.9,1.9,1.9h19.1c1,0,1.9-0.8,1.9-1.9
			C248.2,234.4,247.4,233.6,246.4,233.6z"/>
		<path id="XMLID_417_" class="st6" d="M210.3,209h10.2c1,0,1.9-0.8,1.9-1.9c0-1-0.8-1.9-1.9-1.9h-10.2c-1,0-1.9,0.8-1.9,1.9
			C208.5,208.1,209.3,209,210.3,209z"/>
		<path id="XMLID_418_" class="st6" d="M198.3,217h22.2c1,0,1.9-0.8,1.9-1.9s-0.8-1.9-1.9-1.9h-22.2c-1,0-1.9,0.8-1.9,1.9
			S197.3,217,198.3,217z"/>
		<path id="XMLID_419_" class="st6" d="M220.6,224.9c1,0,1.9-0.8,1.9-1.9c0-1-0.8-1.9-1.9-1.9h-20.4c-1,0-1.9,0.8-1.9,1.9
			c0,1,0.8,1.9,1.9,1.9H220.6z"/>
		<path id="XMLID_422_" class="st2" d="M139.7,201.5H72.4v5.6v5.9c0,2.2,1.8,4,4,4h64.9c2.2,0,4-1.8,4-4v-11.5H139.7z M108.8,215.5
			c-3.6,0-6.5-2.9-6.5-6.5c0-3.6,2.9-6.5,6.5-6.5c3.6,0,6.5,2.9,6.5,6.5C115.4,212.6,112.4,215.5,108.8,215.5z"/>
		<path id="XMLID_425_" class="st2" d="M145.2,121.1v-8.2c0-2.2-1.8-4-4-4H76.3c-2.2,0-4,1.8-4,4v8.2H145.2z M101.4,113.4h14.6
			c1,0,1.9,0.8,1.9,1.9c0,1-0.8,1.9-1.9,1.9h-14.6c-1,0-1.9-0.8-1.9-1.9C99.6,114.2,100.4,113.4,101.4,113.4z"/>
		<path id="XMLID_426_" class="st3" d="M108.8,206.2c-1.6,0-2.8,1.3-2.8,2.8c0,1.6,1.3,2.8,2.8,2.8s2.8-1.3,2.8-2.8
			C111.6,207.4,110.3,206.2,108.8,206.2z"/>
		<path id="XMLID_429_" class="st3" d="M72.3,124.9v72.9h67.3h5.5v-72.9H72.3z M123.3,169.4c-2.5,0-4.7-1.1-6.2-2.8l-15.1,8.1
			c0.2,0.7,0.3,1.4,0.3,2.1c0,4.5-3.7,8.2-8.2,8.2c-4.5,0-8.2-3.7-8.2-8.2c0-4.5,3.7-8.2,8.2-8.2c2.5,0,4.7,1.1,6.2,2.8l15.1-8.1
			c-0.2-0.7-0.3-1.4-0.3-2.1c0-0.7,0.1-1.4,0.3-2.1l-15-7.9c-1.5,1.7-3.7,2.8-6.2,2.8c-4.5,0-8.2-3.7-8.2-8.2c0-4.5,3.7-8.2,8.2-8.2
			c4.5,0,8.2,3.7,8.2,8.2c0,0.7-0.1,1.4-0.3,2.1l15,7.9c1.5-1.7,3.7-2.8,6.2-2.8c4.5,0,8.2,3.7,8.2,8.2
			C131.6,165.7,127.9,169.4,123.3,169.4z"/>
		<path id="XMLID_430_" class="st6" d="M101.3,117.1h14.6c1,0,1.9-0.8,1.9-1.9c0-1-0.8-1.9-1.9-1.9h-14.6c-1,0-1.9,0.8-1.9,1.9
			C99.4,116.3,100.3,117.1,101.3,117.1z"/>
		<path id="XMLID_433_" class="st4" d="M108.8,202.4c-3.6,0-6.5,2.9-6.5,6.5c0,3.6,2.9,6.5,6.5,6.5c3.6,0,6.5-2.9,6.5-6.5
			C115.3,205.4,112.4,202.4,108.8,202.4z M108.8,211.8c-1.6,0-2.8-1.3-2.8-2.8c0-1.6,1.3-2.8,2.8-2.8s2.8,1.3,2.8,2.8
			C111.6,210.5,110.3,211.8,108.8,211.8z"/>
		<path id="XMLID_434_" class="st5" d="M94,172.3c-2.5,0-4.5,2-4.5,4.5c0,2.5,2,4.5,4.5,4.5c2.5,0,4.5-2,4.5-4.5
			C98.5,174.3,96.5,172.3,94,172.3z"/>
		<path id="XMLID_435_" class="st5" d="M98.5,145.8c0-2.5-2-4.5-4.5-4.5c-2.5,0-4.5,2-4.5,4.5c0,2.5,2,4.5,4.5,4.5
			C96.5,150.3,98.5,148.3,98.5,145.8z"/>
		
			<ellipse id="XMLID_436_" transform="matrix(0.9871 -0.1602 0.1602 0.9871 -24.2263 21.815)" class="st5" cx="123.2" cy="161.2" rx="4.5" ry="4.5"/>
		<path id="XMLID_439_" class="st4" d="M123.2,153c-2.5,0-4.7,1.1-6.2,2.8l-15-7.9c0.2-0.7,0.3-1.4,0.3-2.1c0-4.5-3.7-8.2-8.2-8.2
			c-4.5,0-8.2,3.7-8.2,8.2c0,4.5,3.7,8.2,8.2,8.2c2.5,0,4.7-1.1,6.2-2.8l15,7.9c-0.2,0.7-0.3,1.4-0.3,2.1c0,0.7,0.1,1.5,0.3,2.1
			l-15.1,8.1c-1.5-1.7-3.7-2.8-6.2-2.8c-4.5,0-8.2,3.7-8.2,8.2c0,4.5,3.7,8.2,8.2,8.2c4.5,0,8.2-3.7,8.2-8.2c0-0.7-0.1-1.5-0.3-2.1
			l15.1-8.1c1.5,1.7,3.7,2.8,6.2,2.8c4.5,0,8.2-3.7,8.2-8.2C131.4,156.6,127.7,153,123.2,153z M123.2,165.7c-2.5,0-4.5-2-4.5-4.5
			c0-2.5,2-4.5,4.5-4.5c2.5,0,4.5,2,4.5,4.5C127.7,163.7,125.7,165.7,123.2,165.7z M94,150.3c-2.5,0-4.5-2-4.5-4.5
			c0-2.5,2-4.5,4.5-4.5c2.5,0,4.5,2,4.5,4.5C98.5,148.3,96.5,150.3,94,150.3z M98.5,176.8c0,2.5-2,4.5-4.5,4.5c-2.5,0-4.5-2-4.5-4.5
			c0-2.5,2-4.5,4.5-4.5C96.5,172.3,98.5,174.3,98.5,176.8z"/>
		<ellipse id="XMLID_442_" class="st7" cx="357.2" cy="189.3" rx="1.3" ry="1.3"/>
		<path id="XMLID_445_" class="st2" d="M337.5,183L337.5,183l0,8.7c0,1.5,1,2.8,2.4,3.2c0.3,0.1,0.6,0.1,0.9,0.1h33.1
			c1.8,0,3.3-1.5,3.3-3.3V183H337.5z M357.4,194.2c-2.7,0-5-2.2-5-5s2.2-5,5-5c2.7,0,5,2.2,5,5S360.1,194.2,357.4,194.2z"/>
		<path id="XMLID_448_" class="st2" d="M377.2,137.5V127c0-1.8-1.5-3.3-3.3-3.3h-33.1c-1.8,0-3.3,1.5-3.3,3.3v10.4H377.2z
			 M352.5,128.9h9.7c1,0,1.9,0.8,1.9,1.9c0,1-0.8,1.9-1.9,1.9h-9.7c-1,0-1.9-0.8-1.9-1.9C350.6,129.8,351.5,128.9,352.5,128.9z"/>
		<polygon id="XMLID_449_" class="st3" points="377.2,141.2 337.5,141.2 337.5,179.3 337.5,179.3 377.2,179.3 		"/>
		<path id="XMLID_450_" class="st4" d="M352.4,132.8h9.7c1,0,1.9-0.8,1.9-1.9s-0.8-1.9-1.9-1.9h-9.7c-1,0-1.9,0.8-1.9,1.9
			S351.3,132.8,352.4,132.8z"/>
		<path id="XMLID_453_" class="st4" d="M357.2,184.3c-2.7,0-5,2.2-5,5c0,2.8,2.2,5,5,5c2.7,0,5-2.2,5-5
			C362.2,186.6,360,184.3,357.2,184.3z M357.2,190.6c-0.7,0-1.3-0.6-1.3-1.3c0-0.7,0.6-1.3,1.3-1.3s1.3,0.6,1.3,1.3
			C358.5,190,357.9,190.6,357.2,190.6z"/>
		<path id="XMLID_493_" class="st3" d="M354.2,232.9c0,2.7,1.7,4.9,4.1,5.7v-5.7c0-1,0.8-1.9,1.9-1.9c1,0,1.9,0.8,1.9,1.9v5.7
			c2.4-0.8,4.1-3,4.1-5.7c0-3.3-2.7-6-6-6S354.2,229.6,354.2,232.9z"/>
		
			<ellipse id="XMLID_497_" transform="matrix(0.9732 -0.2298 0.2298 0.9732 -21.9705 51.9558)" class="st8" cx="212.1" cy="120.3" rx="4.8" ry="4.8"/>
		<path id="XMLID_500_" class="st6" d="M212.1,111.8c-4.7,0-8.6,3.8-8.6,8.6c0,4.7,3.8,8.6,8.6,8.6c4.7,0,8.6-3.8,8.6-8.6
			C220.7,115.6,216.8,111.8,212.1,111.8z M207.3,120.3c0-2.7,2.2-4.8,4.8-4.8s4.8,2.2,4.8,4.8c0,2.7-2.2,4.8-4.8,4.8
			S207.3,123,207.3,120.3z"/>
		
			<ellipse id="XMLID_513_" transform="matrix(0.9732 -0.2298 0.2298 0.9732 -19.6628 39.8815)" class="st3" cx="161.4" cy="104.4" rx="3" ry="3"/>
		<path id="XMLID_516_" class="st6" d="M168.1,104.4c0-3.7-3-6.7-6.7-6.7s-6.7,3-6.7,6.7c0,3.7,3,6.7,6.7,6.7
			S168.1,108.1,168.1,104.4z M161.4,101.4c1.6,0,3,1.3,3,3c0,1.6-1.3,3-3,3c-1.6,0-3-1.3-3-3C158.5,102.7,159.8,101.4,161.4,101.4z"
			/>
		<path id="XMLID_529_" class="st5" d="M105.3,293.8c-1.1,0-2,0.9-2,2s0.9,2,2,2c1.1,0,2-0.9,2-2S106.4,293.8,105.3,293.8z"/>
		<path id="XMLID_532_" class="st4" d="M105.3,290.1c-3.2,0-5.8,2.6-5.8,5.8s2.6,5.8,5.8,5.8c3.2,0,5.8-2.6,5.8-5.8
			S108.4,290.1,105.3,290.1z M105.3,297.9c-1.1,0-2-0.9-2-2s0.9-2,2-2c1.1,0,2,0.9,2,2S106.4,297.9,105.3,297.9z"/>
		<path id="XMLID_557_" class="st2" d="M159.9,143.6c-0.4,0-0.7,0.3-0.7,0.7c0,0.4,0.3,0.7,0.7,0.7c0.4,0,0.7-0.3,0.7-0.7
			C160.6,143.9,160.3,143.6,159.9,143.6z"/>
		<path id="XMLID_560_" class="st4" d="M159.9,139.9c-2.5,0-4.4,2-4.4,4.4c0,2.5,2,4.4,4.4,4.4c2.5,0,4.4-2,4.4-4.4
			C164.3,141.9,162.3,139.9,159.9,139.9z M159.9,145c-0.4,0-0.7-0.3-0.7-0.7c0-0.4,0.3-0.7,0.7-0.7c0.4,0,0.7,0.3,0.7,0.7
			C160.6,144.7,160.3,145,159.9,145z"/>
		<path id="XMLID_581_" class="st3" d="M247.5,140.8c-1.9,0-3.5,1.6-3.5,3.5c0,1.9,1.6,3.5,3.5,3.5s3.5-1.6,3.5-3.5
			C251,142.4,249.4,140.8,247.5,140.8z"/>
		<path id="XMLID_584_" class="st6" d="M247.5,137.1c-4,0-7.2,3.2-7.2,7.2c0,4,3.2,7.2,7.2,7.2c4,0,7.2-3.2,7.2-7.2
			C254.7,140.3,251.5,137.1,247.5,137.1z M247.5,147.8c-1.9,0-3.5-1.6-3.5-3.5c0-1.9,1.6-3.5,3.5-3.5s3.5,1.6,3.5,3.5
			C251,146.2,249.4,147.8,247.5,147.8z"/>
		<path id="XMLID_601_" class="st3" d="M335.5,215.4c-1.9,0-3.5,1.6-3.5,3.5s1.6,3.5,3.5,3.5c1.9,0,3.5-1.6,3.5-3.5
			S337.4,215.4,335.5,215.4z"/>
		<path id="XMLID_604_" class="st4" d="M335.5,211.7c-4,0-7.2,3.2-7.2,7.2c0,4,3.2,7.2,7.2,7.2c4,0,7.2-3.2,7.2-7.2
			C342.7,214.9,339.5,211.7,335.5,211.7z M335.5,222.3c-1.9,0-3.5-1.6-3.5-3.5s1.6-3.5,3.5-3.5c1.9,0,3.5,1.6,3.5,3.5
			S337.4,222.3,335.5,222.3z"/>
		<path id="XMLID_609_" class="st5" d="M335.5,287c-1.9,0-3.5,1.6-3.5,3.5s1.6,3.5,3.5,3.5c1.9,0,3.5-1.6,3.5-3.5
			S337.4,287,335.5,287z"/>
		<path id="XMLID_612_" class="st4" d="M328.3,290.5c0,4,3.2,7.2,7.2,7.2c4,0,7.2-3.2,7.2-7.2s-3.2-7.2-7.2-7.2
			C331.5,283.3,328.3,286.5,328.3,290.5z M335.5,294c-1.9,0-3.5-1.6-3.5-3.5s1.6-3.5,3.5-3.5c1.9,0,3.5,1.6,3.5,3.5
			S337.4,294,335.5,294z"/>
		<polygon id="XMLID_628_" class="st2" points="258.9,309 258.9,320.1 295.6,320.1 307.3,320.1 307.3,289.8 289.2,289.8 
			272.7,289.8 		"/>
		<polygon id="XMLID_629_" class="st2" points="307.3,286.1 307.3,282.1 295.1,282.1 292.6,286.1 		"/>
		<path id="XMLID_630_" class="st3" d="M249.8,268.6l0,11.7c0,1-0.8,1.9-1.9,1.9h-7.2l16.5,23l16.5-23h-6.9c-0.5,0-1-0.2-1.3-0.5
			c-0.3-0.4-0.5-0.8-0.5-1.3l0-11.6H249.8z"/>
	</g>
	<path id="XMLID_376_" class="st5" d="M107.2,245.5c-3.3,0-6,2.8-6,6.2s2.7,6.2,6,6.2c3.3,0,6-2.8,6-6.2S110.5,245.5,107.2,245.5z
		 M106.5,250c-0.6,0-1.1,0.5-1.1,1.2c0,1-0.8,1.9-1.9,1.9c-1,0-1.9-0.8-1.9-1.9c0-2.7,2.2-4.9,4.8-4.9c1,0,1.9,0.8,1.9,1.9
		C108.4,249.1,107.5,250,106.5,250z"/>
	<path id="XMLID_379_" class="st3" d="M120.2,251.7c0-2.2,1.2-4.2,3.1-5.1c-0.3-1-0.7-2-1.2-2.9c-2,0.6-4.2,0.1-5.7-1.5
		c-1.5-1.6-2-3.8-1.4-5.8c-0.9-0.5-1.8-0.9-2.8-1.2c-0.9,1.9-2.8,3.1-5,3.1c-2.2,0-4.1-1.2-5-3.1c-1,0.3-1.9,0.7-2.8,1.2
		c0.6,2,0.2,4.3-1.4,5.8c-1.5,1.6-3.7,2.1-5.7,1.5c-0.5,0.9-0.9,1.9-1.2,2.9c1.8,1,3.1,2.9,3.1,5.1c0,2.2-1.2,4.2-3.1,5.1
		c0.3,1,0.7,2,1.2,2.9c2-0.6,4.2-0.1,5.7,1.5c1.5,1.6,2,3.8,1.4,5.8c0.9,0.5,1.8,0.9,2.8,1.2c0.9-1.9,2.8-3.1,5-3.1
		c2.2,0,4.1,1.2,5,3.1c1-0.3,1.9-0.7,2.8-1.2c-0.6-2-0.2-4.3,1.4-5.8c1.5-1.6,3.7-2.1,5.7-1.5c0.5-0.9,0.9-1.9,1.2-2.9
		C121.4,255.9,120.2,253.9,120.2,251.7z M107.2,261.6c-5.4,0-9.7-4.5-9.7-9.9c0-5.5,4.4-9.9,9.7-9.9c5.4,0,9.7,4.5,9.7,9.9
		C116.9,257.2,112.6,261.6,107.2,261.6z"/>
	<path id="XMLID_382_" class="st4" d="M125.7,249.7c0.5-0.1,1-0.3,1.3-0.7c0.3-0.4,0.4-1,0.3-1.5c-0.5-2.6-1.5-5.1-3-7.3
		c-0.3-0.5-0.8-0.8-1.3-0.8c-0.5-0.1-1.1,0.1-1.5,0.4c-0.8,0.6-1.9,0.6-2.5-0.1c-0.7-0.7-0.8-2-0.1-2.8c0.3-0.4,0.5-0.9,0.4-1.4
		c-0.1-0.5-0.4-1-0.8-1.3c-2.2-1.5-4.6-2.5-7.2-3c-0.5-0.1-1.1,0-1.5,0.3c-0.4,0.3-0.7,0.8-0.8,1.3c-0.1,1-0.9,1.8-1.9,1.8
		c-1,0-1.8-0.8-1.9-1.8c-0.1-0.5-0.3-1-0.8-1.3c-0.4-0.3-1-0.4-1.5-0.3c-2.6,0.5-5,1.6-7.2,3c-0.4,0.3-0.7,0.7-0.8,1.3
		c-0.1,0.5,0.1,1,0.4,1.4c0.6,0.8,0.6,2-0.1,2.8c-0.7,0.7-1.8,0.8-2.6,0.1c-0.4-0.3-0.9-0.5-1.5-0.4c-0.5,0.1-1,0.4-1.3,0.8
		c-1.4,2.2-2.4,4.7-3,7.3c-0.1,0.5,0,1,0.3,1.5c0.3,0.4,0.8,0.7,1.3,0.7c1,0.1,1.7,1,1.7,2c0,1.1-0.7,1.9-1.7,2
		c-0.5,0.1-1,0.3-1.3,0.7c-0.3,0.4-0.4,1-0.3,1.5c0.5,2.6,1.5,5.1,2.9,7.3c0.3,0.5,0.8,0.8,1.3,0.8c0.5,0.1,1.1-0.1,1.5-0.4
		c0.8-0.6,1.9-0.6,2.5,0.1c0.7,0.7,0.8,2,0.1,2.8c-0.3,0.4-0.5,0.9-0.4,1.4c0.1,0.5,0.4,1,0.8,1.3c2.2,1.5,4.6,2.5,7.2,3
		c0.5,0.1,1.1,0,1.5-0.3c0.4-0.3,0.7-0.8,0.8-1.3c0.1-1,0.9-1.8,1.9-1.8c1,0,1.8,0.8,1.9,1.8c0.1,0.5,0.3,1,0.8,1.3
		c0.3,0.2,0.7,0.4,1.1,0.4c0.1,0,0.3,0,0.4,0c2.6-0.5,5-1.6,7.2-3c0.4-0.3,0.7-0.7,0.8-1.3c0.1-0.5-0.1-1-0.4-1.4
		c-0.6-0.8-0.6-2,0.1-2.8c0.7-0.7,1.8-0.8,2.5-0.1c0.4,0.3,0.9,0.5,1.5,0.4c0.5-0.1,1-0.4,1.3-0.8c1.4-2.2,2.4-4.7,2.9-7.3
		c0.1-0.5,0-1-0.3-1.5c-0.3-0.4-0.8-0.7-1.3-0.7c-1-0.1-1.7-1-1.7-2C123.9,250.7,124.7,249.8,125.7,249.7z M116.4,261.2
		c-1.5,1.6-2,3.8-1.4,5.8c-0.9,0.5-1.8,0.9-2.8,1.2c-0.9-1.9-2.8-3.1-5-3.1c-2.2,0-4.1,1.2-5,3.1c-1-0.3-1.9-0.7-2.8-1.2
		c0.6-2,0.2-4.3-1.4-5.8c-1.5-1.6-3.7-2.1-5.7-1.5c-0.5-0.9-0.9-1.9-1.2-2.9c1.8-1,3.1-2.9,3.1-5.1c0-2.2-1.2-4.2-3.1-5.1
		c0.3-1,0.7-2,1.2-2.9c2,0.6,4.2,0.1,5.7-1.5c1.5-1.6,2-3.8,1.4-5.8c0.9-0.5,1.8-0.9,2.8-1.2c0.9,1.9,2.8,3.1,5,3.1
		c2.2,0,4.1-1.2,5-3.1c1,0.3,1.9,0.7,2.8,1.2c-0.6,2-0.2,4.3,1.4,5.8c1.5,1.6,3.7,2.1,5.7,1.5c0.5,0.9,0.9,1.9,1.2,2.9
		c-1.8,1-3.1,2.9-3.1,5.1c0,2.2,1.2,4.2,3.1,5.1c-0.3,1-0.7,2-1.2,2.9C120.1,259.2,117.9,259.7,116.4,261.2z"/>
	<path id="XMLID_385_" class="st4" d="M107.2,241.8c-5.4,0-9.7,4.5-9.7,9.9c0,5.5,4.4,9.9,9.7,9.9c5.4,0,9.7-4.5,9.7-9.9
		C116.9,246.2,112.6,241.8,107.2,241.8z M113.2,251.7c0,3.4-2.7,6.2-6,6.2c-3.3,0-6-2.8-6-6.2s2.7-6.2,6-6.2
		C110.5,245.5,113.2,248.3,113.2,251.7z"/>
	<path id="XMLID_386_" class="st4" d="M106.5,246.2c-2.7,0-4.8,2.2-4.8,4.9c0,1,0.8,1.9,1.9,1.9c1,0,1.9-0.8,1.9-1.9
		c0-0.7,0.5-1.2,1.1-1.2c1,0,1.9-0.8,1.9-1.9C108.4,247.1,107.5,246.2,106.5,246.2z"/>
	<path id="XMLID_501_" class="st5" d="M288.6,43.7c1.3,0,2.3-1,2.3-2.3c0-1.3-1-2.3-2.3-2.3c-1.3,0-2.3,1-2.3,2.3
		C286.2,42.7,287.3,43.7,288.6,43.7z"/>
	<path id="XMLID_504_" class="st4" d="M288.6,47.4c3.3,0,6.1-2.7,6.1-6.1s-2.7-6.1-6.1-6.1c-3.3,0-6.1,2.7-6.1,6.1
		S285.2,47.4,288.6,47.4z M288.6,39.1c1.3,0,2.3,1,2.3,2.3c0,1.3-1,2.3-2.3,2.3c-1.3,0-2.3-1-2.3-2.3
		C286.2,40.1,287.3,39.1,288.6,39.1z"/>
	<path id="XMLID_517_" class="st3" d="M130.7,51.5c2,0,3.6-1.6,3.6-3.6c0-2-1.6-3.6-3.6-3.6s-3.6,1.6-3.6,3.6
		C127.1,49.9,128.7,51.5,130.7,51.5z"/>
	<path id="XMLID_520_" class="st4" d="M130.7,55.2c4,0,7.3-3.3,7.3-7.3c0-4-3.3-7.3-7.3-7.3c-4,0-7.3,3.3-7.3,7.3
		C123.4,52,126.7,55.2,130.7,55.2z M130.7,44.4c2,0,3.6,1.6,3.6,3.6c0,2-1.6,3.6-3.6,3.6s-3.6-1.6-3.6-3.6
		C127.1,46,128.7,44.4,130.7,44.4z"/>
	<path id="XMLID_545_" class="st5" d="M261.6,35.3c1.9,0,3.5-1.6,3.5-3.5s-1.6-3.5-3.5-3.5c-1.9,0-3.5,1.6-3.5,3.5
		S259.7,35.3,261.6,35.3z"/>
	<path id="XMLID_548_" class="st4" d="M261.6,39.1c4,0,7.2-3.2,7.2-7.2c0-4-3.2-7.2-7.2-7.2c-4,0-7.2,3.2-7.2,7.2
		C254.4,35.8,257.6,39.1,261.6,39.1z M261.6,28.4c1.9,0,3.5,1.6,3.5,3.5s-1.6,3.5-3.5,3.5c-1.9,0-3.5-1.6-3.5-3.5
		S259.7,28.4,261.6,28.4z"/>
	<path id="XMLID_619_" class="st3" d="M289.8,148.3c12,0,22.5-13.4,25.2-17.3c-2.7-3.8-13.2-17.3-25.2-17.3
		c-12,0-22.5,13.4-25.2,17.3C267.3,134.9,277.7,148.3,289.8,148.3z M274.6,131.1c0-8.3,6.8-15.1,15.1-15.1c8.3,0,15.1,6.8,15.1,15.1
		s-6.8,15.1-15.1,15.1C281.4,146.2,274.6,139.4,274.6,131.1z"/>
	<path id="XMLID_621_" class="st5" d="M282.3,129.2c0.8-3.4,3.9-5.9,7.5-5.9s6.7,2.5,7.5,5.9h3.7c-0.9-5.4-5.6-9.5-11.2-9.5
		c-5.6,0-10.3,4.1-11.2,9.5H282.3z"/>
	<path id="XMLID_624_" class="st4" d="M289.8,146.2c8.3,0,15.1-6.8,15.1-15.1s-6.8-15.1-15.1-15.1c-8.3,0-15.1,6.8-15.1,15.1
		S281.5,146.2,289.8,146.2z M289.8,119.7c5.6,0,10.3,4.1,11.2,9.5h-3.7c-0.8-3.4-3.9-5.9-7.5-5.9s-6.7,2.5-7.5,5.9h-3.7
		C279.5,123.8,284.2,119.7,289.8,119.7z M285.8,131.1c0-2.2,1.8-4,4-4c2.2,0,4,1.8,4,4c0,2.2-1.8,4-4,4
		C287.6,135.1,285.8,133.3,285.8,131.1z M282.3,132.9c0.8,3.4,3.9,5.9,7.5,5.9s6.7-2.5,7.5-5.9h3.7c-0.9,5.4-5.6,9.5-11.2,9.5
		c-5.6,0-10.3-4.1-11.2-9.5H282.3z"/>
	
		<ellipse id="XMLID_627_" transform="matrix(0.9732 -0.2298 0.2298 0.9732 -22.3573 70.0895)" class="st3" cx="289.8" cy="131.1" rx="4" ry="4"/>
	<path id="XMLID_85_" class="st9" d="M243,157.9l0.1-65.2c0-2.6,2.2-4.8,4.8-4.8h18.6L224,28.7l-42.6,59.3h17.9
		c1.3,0,2.5,0.5,3.4,1.4c0.9,0.9,1.4,2.1,1.4,3.4l-0.1,65.2H243z"/>
	<path id="XMLID_102_" class="st10" d="M198.2,157.6l0.1-18.6c0-1.4,1.2-2.6,2.6-2.6h10.1L187.9,104l-23.2,32.3h9.8
		c0.7,0,1.4,0.3,1.9,0.8c0.5,0.5,0.8,1.2,0.8,1.9l-0.1,18.6H198.2z"/>
	<circle class="st9" cx="145.7" cy="70.6" r="8.8"/>
	<circle class="st10" cx="74.5" cy="45.9" r="8.8"/>
	<circle class="st9" cx="158.1" cy="26.8" r="8.8"/>
	<circle class="st10" cx="356.1" cy="76.2" r="8.8"/>
	<g>
		<defs>
			<path id="SVGID_1_" d="M168.3,157.3l53.6-0.9l42.3-16.6l-3.8-9.8c0,0,6.4-25.6,8.3-23.7c1.9,1.9,107.3,7.6,109.6,7.6
				s7.6,5.9,7.6,5.9s-1.2,25.8,0.6,26.4c1.8,0.6,38.1,15.2,38.1,15.2l4.7,33.4l-35.8,128.4l-85.6,57.5H70.9l-93.2-227L15.8,47.1
				l43.4,17.6l34.6,28.1l13.5,4.7l53.3,0.5L168.3,157.3z"/>
		</defs>
		<clipPath id="SVGID_2_">
			<use xlink:href="#SVGID_1_"  style="overflow:visible;"/>
		</clipPath>
		<path id="XMLID_458_" class="st11" d="M408.2,171.5c-4.7,0-8.7,3.4-9.6,7.9h-17.6v-52.3c0-3.9-3.2-7-7-7H341c-3.9,0-7,3.2-7,7v2.3
			c-2.8,0-8.5,0-15.6,0c-1-1.5-3.8-5.4-7.9-9.3c-3-2.9-6.1-5.2-9.1-6.9c-3.9-2.1-7.8-3.2-11.6-3.2s-7.7,1.1-11.6,3.2
			c-3,1.7-6.1,4-9.1,6.9c-4.1,3.9-6.9,7.8-7.9,9.3c-0.2,0-0.5,0-0.7,0c0,0,0,0,0,0c-1.9,0-3.7-0.7-5-2.1c-1.4-1.3-2.1-3.1-2.1-5.1
			V106h39.2c0.5,0,1.1,0,1.6-0.1h34.6h15.1H381c9.7,0,17.5,7.9,17.5,17.5v6.5c-4.5,0.9-7.9,4.8-7.9,9.5c0,5.4,4.4,9.7,9.7,9.7
			s9.7-4.4,9.7-9.7c0-4.7-3.4-8.7-7.9-9.5v-6.5c0-11.7-9.5-21.2-21.2-21.2h-24.1c1.6-1,3.1-2.2,4.5-3.6c4.7-4.7,7.3-10.9,7.3-17.5
			c0-6.4-2.5-12.5-6.9-17.1c-4-4.2-9.3-6.8-15-7.5c0,0,0-0.1,0-0.1c0-10.1-3.9-19.6-11.1-26.7c-7.1-7.1-16.6-11.1-26.7-11.1
			c-6.8,0-13.4,1.8-19.3,5.3c-5.3,3.1-9.7,7.5-13,12.8c-0.5,0-1.1-0.1-1.6-0.1c-4.4,0-8.4,1.3-11.8,3.5c-2.3-1.2-4.8-2.1-7.4-2.6
			c-0.7-11.2-9.6-20.3-20.8-21.2V7.4c0-6.9,5.6-12.6,12.6-12.6h9.6c0.9,4.5,4.8,7.9,9.5,7.9c5.4,0,9.7-4.4,9.7-9.7
			c0-5.4-4.4-9.7-9.7-9.7c-4.7,0-8.7,3.4-9.5,7.9h-9.6c-9,0-16.3,7.3-16.3,16.3v8.7c-3.4-5.4-8-10-13.5-13.2
			c-6.1-3.6-13.1-5.5-20.2-5.5c-10.6,0-20.6,4.1-28,11.6c-3.3,3.3-5.9,7-7.8,11c-1.6-1.4-3.3-2.7-5.1-3.7
			c-5.2-3.1-11.1-4.7-17.2-4.7c-9,0-17.5,3.5-23.8,9.9c-6.3,6.3-9.9,14.8-9.9,23.8c-5,0.6-9.6,3-13.2,6.7c-4,4.2-6.2,9.6-6.2,15.3
			c0,5.9,2.3,11.5,6.5,15.7c4.2,4.2,9.8,6.5,15.7,6.5h67.7v19.5c0,6.7-5.5,12.2-12.2,12.2H149v-8.1c0-4.2-3.4-7.7-7.7-7.7H81.7
			c-0.9-8.2-7.9-14.5-16.3-14.5h-7.7c-0.9-4.5-4.8-7.9-9.5-7.9c-5.4,0-9.7,4.4-9.7,9.7c0,5.4,4.4,9.7,9.7,9.7c4.7,0,8.7-3.4,9.5-7.9
			h7.7c6.4,0,11.6,4.7,12.5,10.8h-1.5c-4.2,0-7.7,3.4-7.7,7.7V123v76.6v7.5v5.9v10.1c0,7-4.8,13-11.3,14.7c-1.3-3.9-4.9-6.8-9.3-6.8
			c-5.4,0-9.7,4.4-9.7,9.7c0,5.4,4.4,9.7,9.7,9.7c5.1,0,9.3-3.9,9.7-8.9c8.4-2,14.6-9.5,14.6-18.4v-3.5c1.2,0.7,2.5,1.1,4,1.1h64.9
			c4.2,0,7.7-3.4,7.7-7.7v-11.5h16.2v23.8c-1.6-0.5-3.3-0.7-5.1-0.7h0c-10.1,0-18.2,8.2-18.2,18.2v22h-8.2c-1,0-1.9,0.8-1.9,1.9
			v33.8c0,1,0.8,1.9,1.9,1.9h23l25.1,35c0.4,0.5,0.9,0.8,1.5,0.8s1.2-0.3,1.5-0.8l33.7-46.9c0.4-0.6,0.5-1.3,0.1-1.9
			c-0.3-0.6-1-1-1.7-1h-15.9l0.1-18.9H228v56.2c0,5-3.4,9.2-8,10.5c-1-4.3-4.9-7.4-9.5-7.4c-5.4,0-9.7,4.4-9.7,9.7s4.4,9.7,9.7,9.7
			c4.8,0,8.9-3.6,9.6-8.2c6.6-1.4,11.5-7.3,11.5-14.3v-56.2h14.3l0,9.8h-9c-0.7,0-1.3,0.4-1.7,1c-0.3,0.6-0.3,1.4,0.1,1.9l19.6,27.3
			V322c0,1,0.8,1.9,1.9,1.9h38.6h13.6h15.8c0.9,4.5,4.8,7.9,9.5,7.9c5.4,0,9.7-4.4,9.7-9.7c0-5.4-4.4-9.7-9.7-9.7
			c-4.7,0-8.7,3.4-9.5,7.9H311V288c0,0,0,0,0,0v-7.8c0-1-0.8-1.9-1.9-1.9h-15.1c-0.6,0-1.2,0.3-1.6,0.9l-4.3,6.9h-12.8l3.5-4.8
			c0.4-0.6,0.5-1.3,0.1-1.9c-0.3-0.6-1-1-1.7-1h-8.7l0-9.8h39.7c0.1,0,0.2,0,0.3,0h30.9c12.4,0,22.5-10.1,22.5-22.5v-3.7
			c4.5-0.9,7.9-4.8,7.9-9.5c0-5.4-4.4-9.7-9.7-9.7s-9.7,4.4-9.7,9.7c0,4.7,3.4,8.7,7.9,9.5v3.7c0,10.3-8.4,18.8-18.8,18.8h-13
			c1.4-1.7,2.2-3.9,2.2-6.3V252c0-1-0.8-1.9-1.9-1.9h-8.1v-67h15.1v8.7c0,3.2,2.1,6,5.2,6.8c0.6,0.2,1.2,0.3,1.9,0.3H374
			c3.9,0,7-3.2,7-7v-8.7h17.6c0.9,4.5,4.8,7.8,9.5,7.8c5.4,0,9.7-4.4,9.7-9.7S413.6,171.5,408.2,171.5z M400.4,145.5
			c-3.3,0-6-2.7-6-6c0-2.7,1.7-4.9,4.1-5.7v5.7c0,1,0.8,1.9,1.9,1.9c1,0,1.9-0.8,1.9-1.9v-5.7c2.4,0.8,4.1,3,4.1,5.7
			C406.4,142.8,403.7,145.5,400.4,145.5z M266.9-8.9h-5.7c0.8-2.4,3-4.1,5.7-4.1c3.3,0,6,2.7,6,6c0,3.3-2.7,6-6,6
			c-2.7,0-4.9-1.7-5.7-4.1h5.7c1,0,1.9-0.8,1.9-1.9C268.7-8,267.9-8.9,266.9-8.9z M48.2,94.4h5.7c-0.8,2.4-3,4.1-5.7,4.1
			c-3.3,0-6-2.7-6-6c0-3.3,2.7-6,6-6c2.7,0,4.9,1.7,5.7,4.1h-5.7c-1,0-1.9,0.8-1.9,1.9C46.3,93.6,47.1,94.4,48.2,94.4z M48.2,242
			h5.4c0.2,0,0.3,0,0.5,0c-0.6,2.7-3,4.7-5.9,4.7c-3.3,0-6-2.7-6-6s2.7-6,6-6c2.4,0,4.5,1.5,5.5,3.5c0,0-0.1,0-0.1,0h-5.4
			c-1,0-1.9,0.8-1.9,1.9S47.1,242,48.2,242z M204.6,337.6c0-3.3,2.7-6,6-6c2.7,0,4.9,1.7,5.7,4.1h-5.7c-1,0-1.9,0.8-1.9,1.9
			c0,1,0.8,1.9,1.9,1.9h5.7c-0.8,2.4-3,4.1-5.7,4.1C207.3,343.6,204.6,341,204.6,337.6z M366.2,232.9c0,2.7-1.7,4.9-4.1,5.7v-5.7
			c0-1-0.8-1.9-1.9-1.9s-1.9,0.8-1.9,1.9v5.7c-2.4-0.8-4.1-3-4.1-5.7c0-3.3,2.7-6,6-6S366.2,229.6,366.2,232.9z M374,195.2H341
			c-0.3,0-0.6,0-0.9-0.1c-1.4-0.4-2.4-1.7-2.4-3.2v-8.7h0h39.7v8.7C377.3,193.7,375.9,195.2,374,195.2z M337.7,127.2
			c0-1.8,1.5-3.3,3.3-3.3H374c1.8,0,3.3,1.5,3.3,3.3v10.4h-39.7V127.2z M337.7,179.4L337.7,179.4l0-38.1h39.7v38.1H337.7z
			 M264.5,131.1c2.7-3.8,13.1-17.3,25.2-17.3c12,0,22.5,13.4,25.2,17.3c-2.7,3.8-13.1,17.3-25.2,17.3
			C277.7,148.3,267.3,134.9,264.5,131.1z M229.3,106h4v25.4c0,4.3-3.5,7.8-7.8,7.8c-6.4,0-11.6,5.2-11.6,11.6v6.3H201l0-7.7h6.9
			c0.7,0,1.3-0.4,1.7-1c0.3-0.6,0.3-1.4-0.1-1.9l-16.3-22.7V89h17.6c0.4,4.3,2.3,8.3,5.4,11.5 M325.1,258.6c0,2.9-2.1,5.5-5,6.1
			c-0.4,0.1-0.9,0.1-1.3,0.1h-52H248h-48.6h-31.5H165c-0.9,0-1.7-0.2-2.5-0.5c-2.3-1-3.8-3.2-3.8-5.7v-4.7h56.4v2.3
			c0,1,0.8,1.9,1.9,1.9h49.9c1,0,1.9-0.8,1.9-1.9v-2.3h56.4V258.6z M265.4,281.5c0.3,0.4,0.8,0.5,1.3,0.5h6.9l-16.5,23l-16.5-23h7.2
			c1,0,1.9-0.8,1.9-1.9l0-11.7h15.1l0,11.6C264.9,280.7,265.1,281.2,265.4,281.5z M307.3,282.1v4.1h-14.7l2.5-4.1H307.3z
			 M289.3,289.8h18.1v30.3h-11.7h-36.7V309l13.8-19.2H289.3z M198,290.7c0.3,0.4,0.8,0.5,1.3,0.5h14.1l-30.1,41.9l-22.1-30.7h25.4
			c1,0,1.9-0.8,1.9-1.9v-31.9h9l-0.1,20.8C197.4,289.8,197.6,290.3,198,290.7z M305.5,250.2H178.3v-77.4h127.2V250.2z M265,254v0.3
			h-46.2V254H265z M135.6,268.6h8.2h32.8h8.2v30h-49.2V268.6z M309.2,250.2v-79.2c0-1-0.8-1.9-1.9-1.9H176.4c-1,0-1.9,0.8-1.9,1.9
			v79.2h-5.6v-82.8c0-3.6,2.9-6.5,6.5-6.5h133.1c3.6,0,6.5,2.9,6.5,6.5v82.8H309.2z M204.2,145.7h-5.1c-0.5,0-1,0.2-1.3,0.5
			c-0.3,0.4-0.5,0.8-0.5,1.3l0,9.3h-11.8l0-9.3c0-1-0.8-1.9-1.9-1.9h-5.3l13-18.1L204.2,145.7z M107.9,48.8c0.5,0,1-0.2,1.3-0.6
			c0.3-0.4,0.5-0.9,0.5-1.4c0-0.5,0-1,0-1.5c0-16.5,13.4-30,30-30c5.4,0,10.7,1.4,15.3,4.2c4.5,2.7,8.2,6.4,10.8,11
			c0.4,0.7,1.1,1,1.9,0.9c0.7-0.1,1.3-0.1,2-0.1c8.6,0,15.7,7,15.7,15.7c0,0,0,0,0,0c-0.1,1,0.7,1.8,1.6,1.9
			c4.1,0.5,7.9,2.4,10.8,5.3c3.5,3.5,5.4,8.1,5.4,13c0,4.9-1.9,9.5-5.4,13c-1.8,1.8-4,3.2-6.3,4.2c-0.1,0-0.1,0-0.2,0
			c-0.5,0-0.9,0.2-1.3,0.5c-1.7,0.5-3.4,0.8-5.2,0.8h-76c-4.9,0-9.5-1.9-13-5.4c-3.5-3.5-5.4-8.1-5.4-13c0-4.8,1.8-9.3,5.2-12.8
			C98.7,51,103.2,49,107.9,48.8z M216,6.1c5.4,3.2,9.8,7.7,12.9,13.1c0.4,0.7,1.1,1,1.9,0.9c0.8-0.1,1.6-0.2,2.5-0.2
			c10.5,0,19,8.5,19,19c0,0,0,0.1,0,0.1c-0.1,1,0.7,1.8,1.6,1.9c4.9,0.6,9.5,2.9,13.1,6.4c4.2,4.2,6.5,9.8,6.5,15.7
			c0,5.9-2.3,11.5-6.5,15.7c-4.2,4.2-9.8,6.5-15.7,6.5h-53.9c5.7-4,9.4-10.6,9.4-18.1c0-5.9-2.3-11.5-6.5-15.7
			c-3.1-3.1-7.1-5.3-11.4-6.1c-0.5-6.2-3.9-11.6-8.8-14.9c2.8-7.2,9.7-12.3,17.9-12.3c1,0,1.9-0.8,1.9-1.9s-0.8-1.9-1.9-1.9
			c-6.1,0-11.9,2.4-16.2,6.7c-2.2,2.2-3.9,4.8-5,7.6c-2.2-0.9-4.6-1.4-7.2-1.4c-0.4,0-0.9,0-1.3,0c-1-1.7-2.2-3.3-3.5-4.7
			c1.8-4.1,4.3-7.9,7.6-11.2c6.8-6.8,15.8-10.5,25.4-10.5C204.2,1.1,210.5,2.8,216,6.1z M277.5,40.5c0.8,0.1,1.5-0.3,1.9-0.9
			c2.9-5.1,7.2-9.4,12.2-12.5c5.2-3.1,11.2-4.7,17.4-4.7c9.1,0,17.7,3.5,24.1,10c6.4,6.4,10,15,10,24.1c0,0.6,0,1.2,0,1.8
			c0,0.5,0.1,1,0.5,1.4c0.3,0.4,0.8,0.6,1.3,0.6c5.4,0.2,10.5,2.5,14.3,6.5c3.8,4,5.9,9.1,5.9,14.6c0,5.6-2.2,10.9-6.2,14.9
			c-4,4-9.3,6.2-14.9,6.2h-15.1h-25c4.5-3.4,7.4-8.8,7.4-14.9c0-5-2-9.7-5.5-13.2c-2.6-2.6-5.9-4.4-9.4-5.1c-0.7-8.4-7.8-15-16.4-15
			c-0.3,0-0.6,0-0.9,0c-2.3-3.7-5.5-6.8-9.2-9.1c0,0-0.1-0.1-0.1-0.1c-0.9-0.9-1.8-1.7-2.8-2.4c2.5-1.3,5.3-2,8.3-2
			C275.9,40.3,276.7,40.4,277.5,40.5z M141.3,217H76.4c-2.2,0-4-1.8-4-4v-5.9v-5.6h67.3h5.5V213C145.3,215.2,143.5,217,141.3,217z
			 M76.4,108.9h64.9c2.2,0,4,1.8,4,4v8.2H72.5v-8.2C72.5,110.7,74.3,108.9,76.4,108.9z M139.8,197.8H72.5v-72.9h72.8v72.9H139.8z
			 M149,197.8v-73h15.2c8.8,0,15.9-7.1,15.9-15.9V89.3h4.5c1.2,0,2.4-0.1,3.6-0.3h1v34.8l-16.3,22.7c-0.4,0.6-0.5,1.3-0.1,1.9
			c0.3,0.6,1,1,1.7,1h7.1l0,7.7h-6.2c-5.7,0-10.2,4.6-10.2,10.2v30.4H149z M145.7,242.8c0-8,6.5-14.5,14.5-14.5
			c1.8,0,3.5,0.3,5.1,0.9v20.9h-8.3c-1,0-1.9,0.8-1.9,1.9v6.6c0,2.3,0.8,4.5,2.2,6.3h-11.6V242.8z M334.5,320.1h-5.7
			c0.8-2.4,3-4.1,5.7-4.1c3.3,0,6,2.7,6,6c0,3.3-2.7,6-6,6c-2.7,0-4.9-1.7-5.7-4.1h5.7c1,0,1.9-0.8,1.9-1.9
			C336.3,321,335.5,320.1,334.5,320.1z M318.8,179.4v-12.1c0-5.7-4.6-10.2-10.2-10.2h-91v-6.3c0-4.3,3.5-7.8,7.8-7.8
			c6.4,0,11.6-5.2,11.6-11.6V106h12.6v16.3c0,2.9,1.1,5.6,3.2,7.7c2,2,4.8,3.2,7.7,3.2c0,0,0,0,0.1,0c0.3,0,0.6,0,1,0
			c1.2,1.7,3.9,5.2,7.6,8.8c3,2.9,6.1,5.2,9.1,6.9c3.9,2.1,7.8,3.2,11.6,3.2s7.7-1.1,11.6-3.2c3.1-1.7,6.1-4,9.1-6.9
			c3.7-3.6,6.3-7.1,7.6-8.8c7.3,0,13.1,0,16,0v46.3H318.8z M408.2,187.3c-2.6,0-4.9-1.7-5.7-4.1h5.7c1,0,1.9-0.8,1.9-1.9
			c0-1-0.8-1.9-1.9-1.9h-5.7c0.8-2.4,3-4.2,5.7-4.2c3.3,0,6,2.7,6,6C414.2,184.6,411.5,187.3,408.2,187.3z"/>
	</g>
	<rect x="275.7" y="58.3" class="st9" width="62.5" height="42.4"/>
	<line class="st12" x1="146.9" y1="123" x2="174.1" y2="123"/>
	<g>
		<g>
			<path class="st5" d="M291.8,67.3h-8.1c-0.6,0-1.1-0.5-1.1-1.1v0c0-0.6,0.5-1.1,1.1-1.1h8.1c0.6,0,1.1,0.5,1.1,1.1v0
				C292.9,66.8,292.4,67.3,291.8,67.3z"/>
			<path class="st5" d="M332.4,67.3h-8.1c-0.6,0-1.1-0.5-1.1-1.1v0c0-0.6,0.5-1.1,1.1-1.1h8.1c0.6,0,1.1,0.5,1.1,1.1v0
				C333.5,66.8,333,67.3,332.4,67.3z"/>
			<path class="st5" d="M316.2,67.3h-1.4c-0.6,0-1.1-0.5-1.1-1.1v0c0-0.6,0.5-1.1,1.1-1.1h1.4c0.6,0,1.1,0.5,1.1,1.1v0
				C317.4,66.8,316.9,67.3,316.2,67.3z"/>
			<path class="st5" d="M320.8,67.3h-1.4c-0.6,0-1.1-0.5-1.1-1.1v0c0-0.6,0.5-1.1,1.1-1.1h1.4c0.6,0,1.1,0.5,1.1,1.1v0
				C321.9,66.8,321.4,67.3,320.8,67.3z"/>
			<path class="st5" d="M311.3,67.3h-8.1c-0.6,0-1.1-0.5-1.1-1.1v0c0-0.6,0.5-1.1,1.1-1.1h8.1c0.6,0,1.1,0.5,1.1,1.1v0
				C312.5,66.8,312,67.3,311.3,67.3z"/>
			<path class="st5" d="M299.8,67.3h-4.5c-0.6,0-1.1-0.5-1.1-1.1v0c0-0.6,0.5-1.1,1.1-1.1h4.5c0.6,0,1.1,0.5,1.1,1.1v0
				C300.9,66.8,300.4,67.3,299.8,67.3z"/>
			<path class="st5" d="M312.9,68.9h8.1c0.6,0,1.1,0.5,1.1,1.1v0c0,0.6-0.5,1.1-1.1,1.1h-8.1c-0.6,0-1.1-0.5-1.1-1.1v0
				C311.7,69.4,312.2,68.9,312.9,68.9z"/>
			<path class="st5" d="M324,68.9h8.1c0.6,0,1.1,0.5,1.1,1.1v0c0,0.6-0.5,1.1-1.1,1.1H324c-0.6,0-1.1-0.5-1.1-1.1v0
				C322.8,69.4,323.4,68.9,324,68.9z"/>
			<path class="st5" d="M288.4,68.9h1.4c0.6,0,1.1,0.5,1.1,1.1v0c0,0.6-0.5,1.1-1.1,1.1h-1.4c-0.6,0-1.1-0.5-1.1-1.1v0
				C287.3,69.4,287.8,68.9,288.4,68.9z"/>
			<path class="st5" d="M283.9,68.9h1.4c0.6,0,1.1,0.5,1.1,1.1v0c0,0.6-0.5,1.1-1.1,1.1h-1.4c-0.6,0-1.1-0.5-1.1-1.1v0
				C282.7,69.4,283.2,68.9,283.9,68.9z"/>
			<path class="st5" d="M293.3,68.9h8.1c0.6,0,1.1,0.5,1.1,1.1v0c0,0.6-0.5,1.1-1.1,1.1h-8.1c-0.6,0-1.1-0.5-1.1-1.1v0
				C292.2,69.4,292.7,68.9,293.3,68.9z"/>
			<path class="st5" d="M304.9,68.9h4.5c0.6,0,1.1,0.5,1.1,1.1v0c0,0.6-0.5,1.1-1.1,1.1h-4.5c-0.6,0-1.1-0.5-1.1-1.1v0
				C303.7,69.4,304.3,68.9,304.9,68.9z"/>
			<path class="st5" d="M319.3,72.7h8.1c0.6,0,1.1,0.5,1.1,1.1v0c0,0.6-0.5,1.1-1.1,1.1h-8.1c-0.6,0-1.1-0.5-1.1-1.1v0
				C318.2,73.2,318.7,72.7,319.3,72.7z"/>
			<path class="st5" d="M308,72.7h8.1c0.6,0,1.1,0.5,1.1,1.1v0c0,0.6-0.5,1.1-1.1,1.1H308c-0.6,0-1.1-0.5-1.1-1.1v0
				C306.9,73.2,307.4,72.7,308,72.7z"/>
			<path class="st5" d="M330.5,72.7h1.4c0.6,0,1.1,0.5,1.1,1.1v0c0,0.6-0.5,1.1-1.1,1.1h-1.4c-0.6,0-1.1-0.5-1.1-1.1v0
				C329.3,73.2,329.8,72.7,330.5,72.7z"/>
			<path class="st5" d="M291.6,72.7h1.4c0.6,0,1.1,0.5,1.1,1.1v0c0,0.6-0.5,1.1-1.1,1.1h-1.4c-0.6,0-1.1-0.5-1.1-1.1v0
				C290.4,73.2,290.9,72.7,291.6,72.7z"/>
			<path class="st5" d="M296.2,72.7h8.1c0.6,0,1.1,0.5,1.1,1.1v0c0,0.6-0.5,1.1-1.1,1.1h-8.1c-0.6,0-1.1-0.5-1.1-1.1v0
				C295.1,73.2,295.6,72.7,296.2,72.7z"/>
			<path class="st5" d="M284,72.7h4.5c0.6,0,1.1,0.5,1.1,1.1v0c0,0.6-0.5,1.1-1.1,1.1H284c-0.6,0-1.1-0.5-1.1-1.1v0
				C282.9,73.2,283.4,72.7,284,72.7z"/>
		</g>
		<g>
			<path class="st5" d="M291.8,90.4h-8.1c-0.6,0-1.1-0.5-1.1-1.1v0c0-0.6,0.5-1.1,1.1-1.1h8.1c0.6,0,1.1,0.5,1.1,1.1v0
				C292.9,89.9,292.4,90.4,291.8,90.4z"/>
			<path class="st5" d="M332.4,90.4h-8.1c-0.6,0-1.1-0.5-1.1-1.1v0c0-0.6,0.5-1.1,1.1-1.1h8.1c0.6,0,1.1,0.5,1.1,1.1v0
				C333.5,89.9,333,90.4,332.4,90.4z"/>
			<path class="st5" d="M316.2,90.4h-1.4c-0.6,0-1.1-0.5-1.1-1.1v0c0-0.6,0.5-1.1,1.1-1.1h1.4c0.6,0,1.1,0.5,1.1,1.1v0
				C317.4,89.9,316.9,90.4,316.2,90.4z"/>
			<path class="st5" d="M320.8,90.4h-1.4c-0.6,0-1.1-0.5-1.1-1.1v0c0-0.6,0.5-1.1,1.1-1.1h1.4c0.6,0,1.1,0.5,1.1,1.1v0
				C321.9,89.9,321.4,90.4,320.8,90.4z"/>
			<path class="st5" d="M311.3,90.4h-8.1c-0.6,0-1.1-0.5-1.1-1.1v0c0-0.6,0.5-1.1,1.1-1.1h8.1c0.6,0,1.1,0.5,1.1,1.1v0
				C312.5,89.9,312,90.4,311.3,90.4z"/>
			<path class="st5" d="M299.8,90.4h-4.5c-0.6,0-1.1-0.5-1.1-1.1v0c0-0.6,0.5-1.1,1.1-1.1h4.5c0.6,0,1.1,0.5,1.1,1.1v0
				C300.9,89.9,300.4,90.4,299.8,90.4z"/>
			<path class="st5" d="M312.9,92h8.1c0.6,0,1.1,0.5,1.1,1.1v0c0,0.6-0.5,1.1-1.1,1.1h-8.1c-0.6,0-1.1-0.5-1.1-1.1v0
				C311.7,92.5,312.2,92,312.9,92z"/>
			<path class="st5" d="M324,92h8.1c0.6,0,1.1,0.5,1.1,1.1v0c0,0.6-0.5,1.1-1.1,1.1H324c-0.6,0-1.1-0.5-1.1-1.1v0
				C322.8,92.5,323.4,92,324,92z"/>
			<path class="st5" d="M288.4,92h1.4c0.6,0,1.1,0.5,1.1,1.1v0c0,0.6-0.5,1.1-1.1,1.1h-1.4c-0.6,0-1.1-0.5-1.1-1.1v0
				C287.3,92.5,287.8,92,288.4,92z"/>
			<path class="st5" d="M283.9,92h1.4c0.6,0,1.1,0.5,1.1,1.1v0c0,0.6-0.5,1.1-1.1,1.1h-1.4c-0.6,0-1.1-0.5-1.1-1.1v0
				C282.7,92.5,283.2,92,283.9,92z"/>
			<path class="st5" d="M293.3,92h8.1c0.6,0,1.1,0.5,1.1,1.1v0c0,0.6-0.5,1.1-1.1,1.1h-8.1c-0.6,0-1.1-0.5-1.1-1.1v0
				C292.2,92.5,292.7,92,293.3,92z"/>
			<path class="st5" d="M304.9,92h4.5c0.6,0,1.1,0.5,1.1,1.1v0c0,0.6-0.5,1.1-1.1,1.1h-4.5c-0.6,0-1.1-0.5-1.1-1.1v0
				C303.7,92.5,304.3,92,304.9,92z"/>
		</g>
		<g>
			<path class="st5" d="M291.8,78.7h-8.1c-0.6,0-1.1-0.5-1.1-1.1v0c0-0.6,0.5-1.1,1.1-1.1h8.1c0.6,0,1.1,0.5,1.1,1.1v0
				C292.9,78.2,292.4,78.7,291.8,78.7z"/>
			<path class="st5" d="M332.4,78.7h-8.1c-0.6,0-1.1-0.5-1.1-1.1v0c0-0.6,0.5-1.1,1.1-1.1h8.1c0.6,0,1.1,0.5,1.1,1.1v0
				C333.5,78.2,333,78.7,332.4,78.7z"/>
			<path class="st5" d="M316.2,78.7h-1.4c-0.6,0-1.1-0.5-1.1-1.1v0c0-0.6,0.5-1.1,1.1-1.1h1.4c0.6,0,1.1,0.5,1.1,1.1v0
				C317.4,78.2,316.9,78.7,316.2,78.7z"/>
			<path class="st5" d="M320.8,78.7h-1.4c-0.6,0-1.1-0.5-1.1-1.1v0c0-0.6,0.5-1.1,1.1-1.1h1.4c0.6,0,1.1,0.5,1.1,1.1v0
				C321.9,78.2,321.4,78.7,320.8,78.7z"/>
			<path class="st5" d="M311.3,78.7h-8.1c-0.6,0-1.1-0.5-1.1-1.1v0c0-0.6,0.5-1.1,1.1-1.1h8.1c0.6,0,1.1,0.5,1.1,1.1v0
				C312.5,78.2,312,78.7,311.3,78.7z"/>
			<path class="st5" d="M299.8,78.7h-4.5c-0.6,0-1.1-0.5-1.1-1.1v0c0-0.6,0.5-1.1,1.1-1.1h4.5c0.6,0,1.1,0.5,1.1,1.1v0
				C300.9,78.2,300.4,78.7,299.8,78.7z"/>
			<path class="st5" d="M312.9,80.4h8.1c0.6,0,1.1,0.5,1.1,1.1v0c0,0.6-0.5,1.1-1.1,1.1h-8.1c-0.6,0-1.1-0.5-1.1-1.1v0
				C311.7,80.9,312.2,80.4,312.9,80.4z"/>
			<path class="st5" d="M324,80.4h8.1c0.6,0,1.1,0.5,1.1,1.1v0c0,0.6-0.5,1.1-1.1,1.1H324c-0.6,0-1.1-0.5-1.1-1.1v0
				C322.8,80.9,323.4,80.4,324,80.4z"/>
			<path class="st5" d="M288.4,80.4h1.4c0.6,0,1.1,0.5,1.1,1.1v0c0,0.6-0.5,1.1-1.1,1.1h-1.4c-0.6,0-1.1-0.5-1.1-1.1v0
				C287.3,80.9,287.8,80.4,288.4,80.4z"/>
			<path class="st5" d="M283.9,80.4h1.4c0.6,0,1.1,0.5,1.1,1.1v0c0,0.6-0.5,1.1-1.1,1.1h-1.4c-0.6,0-1.1-0.5-1.1-1.1v0
				C282.7,80.9,283.2,80.4,283.9,80.4z"/>
			<path class="st5" d="M293.3,80.4h8.1c0.6,0,1.1,0.5,1.1,1.1v0c0,0.6-0.5,1.1-1.1,1.1h-8.1c-0.6,0-1.1-0.5-1.1-1.1v0
				C292.2,80.9,292.7,80.4,293.3,80.4z"/>
			<path class="st5" d="M304.9,80.4h4.5c0.6,0,1.1,0.5,1.1,1.1v0c0,0.6-0.5,1.1-1.1,1.1h-4.5c-0.6,0-1.1-0.5-1.1-1.1v0
				C303.7,80.9,304.3,80.4,304.9,80.4z"/>
			<path class="st5" d="M319.3,84.2h8.1c0.6,0,1.1,0.5,1.1,1.1v0c0,0.6-0.5,1.1-1.1,1.1h-8.1c-0.6,0-1.1-0.5-1.1-1.1v0
				C318.2,84.7,318.7,84.2,319.3,84.2z"/>
			<path class="st5" d="M308,84.2h8.1c0.6,0,1.1,0.5,1.1,1.1v0c0,0.6-0.5,1.1-1.1,1.1H308c-0.6,0-1.1-0.5-1.1-1.1v0
				C306.9,84.7,307.4,84.2,308,84.2z"/>
			<path class="st5" d="M330.5,84.2h1.4c0.6,0,1.1,0.5,1.1,1.1v0c0,0.6-0.5,1.1-1.1,1.1h-1.4c-0.6,0-1.1-0.5-1.1-1.1v0
				C329.3,84.7,329.8,84.2,330.5,84.2z"/>
			<path class="st5" d="M291.6,84.2h1.4c0.6,0,1.1,0.5,1.1,1.1v0c0,0.6-0.5,1.1-1.1,1.1h-1.4c-0.6,0-1.1-0.5-1.1-1.1v0
				C290.4,84.7,290.9,84.2,291.6,84.2z"/>
			<path class="st5" d="M296.2,84.2h8.1c0.6,0,1.1,0.5,1.1,1.1v0c0,0.6-0.5,1.1-1.1,1.1h-8.1c-0.6,0-1.1-0.5-1.1-1.1v0
				C295.1,84.7,295.6,84.2,296.2,84.2z"/>
			<path class="st5" d="M284,84.2h4.5c0.6,0,1.1,0.5,1.1,1.1v0c0,0.6-0.5,1.1-1.1,1.1H284c-0.6,0-1.1-0.5-1.1-1.1v0
				C282.9,84.7,283.4,84.2,284,84.2z"/>
		</g>
	</g>
	<path class="st13" d="M97.7,106.8V68.7c0,0,2.3-22.5-22.5-22.5"/>
	<path class="st13" d="M206.9,50.8h-27.1c0,0-21.4,1.1-21.4-22.7"/>
</g>
<g>
</g>
<g>
</g>
<g>
</g>
<g>
</g>
<g>
</g>
<g>
</g>
<g>
</g>
<g>
</g>
<g>
</g>
<g>
</g>
<g>
</g>
<g>
</g>
<g>
</g>
<g>
</g>
<g>
</g>
</svg>
